<svg xmlns="http://www.w3.org/2000/svg" xmlns:xlink="http://www.w3.org/1999/xlink" viewBox="0 0 2521.37 1104.45"><defs><style>.cls-1{fill:url(#radial-gradient);}</style><radialGradient id="radial-gradient" cx="179.93" cy="967.17" r="1" gradientTransform="matrix(275.5, -758, -758, -275.5, 684174.3, 403720.49)" gradientUnits="userSpaceOnUse"><stop offset="0" stop-color="#e4ada3" stop-opacity="0.71"/><stop offset="0.73" stop-color="#77ade2"/><stop offset="1" stop-color="#527aab"/></radialGradient></defs><g id="Layer_2" data-name="Layer 2"><g id="Layer_1-2" data-name="Layer 1"><path class="cls-1" d="M103,736.14a174.64,174.64,0,0,0,91.46-97.28L234.22,534A213,213,0,0,1,421.8,396.87l12.36-.67A213,213,0,0,0,630.48,229.83l14.07-63.15A213,213,0,0,1,856.27,0L2312.19,26.16c116.13,2.08,209.18,96.82,209.18,213V891.45c0,119-97.47,214.89-216.44,213L172.08,1070C-14.46,1067-67,812.9,103,736.14Z"/></g></g></svg>