<svg width="7689" height="295" viewBox="0 0 7689 295" fill="none" xmlns="http://www.w3.org/2000/svg">
<path d="M3624.13 1.53164L3741.09 9.44538L3747.51 1.53164L3750.58 9.09748L3756.27 2.34829L3756.84 9.72132L3766.29 3.4031L3769.29 10.1182L3775.54 5.33889L3782.63 11.3356L3791.86 7.58467L3797.49 10.791L3813.85 2.7977L3813.18 10.2161L3821.28 2.52543L3830.52 14.9838C3836.6 13.2445 3848.68 9.93902 3848.4 10.6317C3848.12 11.3244 3851.23 13.2772 3852.82 14.167C3856.72 11.0854 3864.54 5.26256 3864.65 6.62367C3864.76 7.98485 3864.24 11.9474 3863.96 13.7585L3868.3 5.63681L3872.28 14.3067L3875.93 7.9167L3881.02 14.8398L3888.1 10.0302L3891.06 16.1781L3904.27 15.6941L3914.24 16.1817C3915.16 13.7782 3917.02 9.25486 3917.1 10.3892L3917.54 16.0607L3925.96 17.7432C3927.06 15.9963 3929.28 12.6161 3929.32 13.0698C3929.35 13.5235 3933.28 17.8541 3935.23 19.9626L3937.77 15.3195L3944.06 21.6299L3950.78 12.2832L3953.4 19.297L3963.93 16.3515L3968.13 22.454L3976.93 18.4347L3981.87 23.3727L3994.83 19.7693L3995.34 26.2915L4006.52 21.0471L4016.61 28.3558L4024.52 23.516L4028.39 30.768C4029.59 28.3544 4032.07 23.8078 4032.49 24.93C4032.91 26.0522 4036.32 29.8138 4037.97 31.5543C4041.8 29.3286 4049.47 24.9904 4049.51 25.4441C4049.55 26.0112 4052.36 30.1742 4053.25 30.9946C4053.96 31.6511 4059.31 27.2652 4061.89 24.9903L4066.66 33.0628L4071.52 26.3438L4077.8 32.6543L4093.2 28.393L4098.36 36.1667L4118.38 27.4702L4105.92 37.5959L4129.94 27.0465L4115.83 37.2328L4134.86 31.701L4119.79 41.1574L4120.35 41.1288L4152.72 32.4684L4141.49 40.0337L4163.15 38.9112L4169.58 30.9974L4172.2 37.4489L4173.82 37.1716L4178.33 31.8141L4178.69 36.3409L4180.73 35.9921L4180.28 38.2694L4188.35 32.8688L4191 38.7958L4193.19 38.1838L4197.61 34.8047L4199.51 36.411C4203.86 35.1084 4212.27 32.7967 4212.01 33.708C4211.81 34.4156 4209.96 37.1365 4208.43 39.2855L4213.93 37.0505L4214.54 37.3956L4220.36 34.5398L4221.56 39.2785L4235.91 32.2635L4235.65 35.1459L4235.72 35.1144L4237.25 37.7808L4243.34 31.9912L4247 36.9173L4250.58 34.5698L4258.75 33.1329L4254.07 42.1205L4274.68 35.6775L4275.12 41.349L4280.23 39.5963C4283.51 37.2298 4286.65 35.2311 4286.72 36.0895C4286.81 37.2536 4286.44 40.3201 4286.16 42.3166L4286.32 42.6846L4290.37 35.1026L4293.06 40.955L4296.55 39.9178L4297.99 37.3825L4299.78 39.8144L4308.96 40.315L4310.16 39.496L4310.6 40.4047L4328.53 41.3826C4327.47 42.5303 4326.27 43.8245 4324.98 45.2096L4326.33 45.1598L4336.31 45.6475C4337.23 43.2441 4339.08 38.7206 4339.17 39.8549L4339.61 45.5265L4348.02 47.209C4349.13 45.4621 4351.35 42.0819 4351.38 42.5356C4351.42 42.9893 4355.34 47.3198 4357.3 49.4284L4359.84 44.7852L4366.12 51.0958L4372.85 41.7489L4375.46 48.7628L4386 45.8172L4390.2 51.9198L4398.99 47.9005L4403.93 52.8385L4416.9 49.235L4417.41 55.7573L4428.59 50.5129L4438.68 57.8216L4446.58 52.9818L4450.46 60.2338C4451.65 57.8202 4454.14 53.2737 4454.56 54.3959C4454.98 55.5181 4458.39 59.2796 4460.04 61.0202C4463.87 58.7944 4471.54 54.4562 4471.57 54.9099C4471.62 55.4771 4474.42 59.6399 4475.31 60.4605C4476.03 61.1168 4481.37 56.731 4483.96 54.4561L4488.72 62.5286L4493.58 55.8096L4499.87 62.1201L4515.27 57.8587L4520.43 65.6325L4540.45 56.9359L4527.99 67.0617L4552.01 56.5124L4537.9 66.6986L4556.92 61.1668L4541.53 70.8313L4574.79 61.9342L4558.26 73.0619L4602.8 65.4579L4601.61 71.4735L4621.46 65.9114C4625.78 64.6158 4634.34 62.2544 4634.08 63.1739C4633.82 64.0935 4630.76 68.4145 4629.27 70.46L4642.43 64.0057L4644.21 71.0497L4657.79 64.5802L4661.62 71.2651L4672.65 64.0356L4680.82 62.5988L4676.13 71.5864L4696.75 65.1433L4697.19 70.8148L4706.46 67.6311L4708.49 72.3914L4719.41 69.1472L4729.03 77.9965H4770.5L4794.05 91.7294L4801.73 82.7426L4794.05 100.672L4818.63 82.7426L5586.13 128.5L5735.63 77.9965L6611.13 128.5L7688.63 91.7294V243.055L3621.06 295L0.00012207 243.055L0 60.1966L146.63 103L117.63 46.4637L329.63 103L437.63 51.2098L936.63 128.5L2518.65 51.2098L2543.22 69.1395L2535.54 51.2098L2543.22 60.1966L2566.77 46.4637H2608.25L2617.86 37.6144L2628.79 40.8586L2630.81 36.0983L2640.09 39.282L2640.53 33.6104L2661.14 40.0535L2656.46 31.066L2664.62 32.5028L2675.65 39.7322L2679.48 33.0474L2693.06 39.5169L2694.85 32.4728L2708.01 38.9272C2706.51 36.8816 2703.45 32.5606 2703.19 31.6411C2702.93 30.7215 2711.5 33.083 2715.81 34.3786L2735.67 39.9407L2734.48 33.925L2779.01 41.5291L2762.49 30.4014L2795.74 39.2984L2780.35 29.634L2799.38 35.1658L2785.26 24.9796L2809.28 35.5289L2796.82 25.4031L2816.85 34.0997L2822 26.3259L2837.4 30.5873L2843.69 24.2768L2848.55 30.9957L2853.32 22.9233C2855.9 25.1982 2861.24 29.584 2861.96 28.9277C2862.85 28.1071 2865.66 23.9443 2865.7 23.3771C2865.74 22.9234 2873.4 27.2616 2877.23 29.4874C2878.88 27.7468 2882.29 23.9852 2882.71 22.863C2883.13 21.7408 2885.62 26.2874 2886.81 28.701L2890.69 21.449L2898.59 26.2888L2908.68 18.9801L2919.87 24.2245L2920.37 17.7022L2933.34 21.3057L2938.28 16.3677L2947.07 20.387L2951.27 14.2844L2961.81 17.2299L2964.42 10.2161L2971.15 19.5629L2977.43 13.2524L2979.97 17.8956C2981.93 15.787 3020.22 42.9893 3020.26 42.5356C3020.29 42.0819 3008.02 20.7072 3009.13 22.454L3017.54 20.7716L3017.98 15.1C3018.07 13.9657 3019.93 18.4891 3020.84 20.8926L3030.82 20.4049L3032.17 20.4547C3030.88 19.0696 3029.68 17.7754 3028.63 16.6277L3046.55 15.6497L3046.99 14.7411L3048.19 15.5601L3057.37 15.0594L3059.16 12.6276L3060.6 15.1629L3064.1 16.2001L3066.79 10.3477L3070.83 17.9296L3070.99 17.5616C3070.71 15.5651 3070.35 12.4986 3070.44 11.3346C3070.5 10.4762 3073.64 12.4748 3076.93 14.8414L3082.03 16.5941L3082.47 10.9225L3103.09 17.3655L3098.4 8.378L3106.57 9.81489L3110.15 12.1624L3113.81 7.23626L3119.9 13.0259L3121.43 10.3595L3121.5 10.391L3121.24 7.50858L3135.59 14.5235L3136.79 9.78487L3142.62 12.6406L3143.22 12.2956L3148.72 14.5305C3147.19 12.3815 3145.34 9.66062 3145.14 8.9531C3144.88 8.04174 3153.29 10.3535 3157.64 11.6561L3159.54 10.0498L3163.96 13.4288L3166.15 14.0409L3168.8 8.11392L3176.87 13.5145L3176.42 11.2371L3178.47 11.586L3178.82 7.05911L3183.33 12.4166L3184.95 12.694L3187.57 6.24246L3194 14.1563L3215.67 15.2788L3204.43 7.71346L3236.8 16.3738L3237.36 16.4025L3222.29 6.94603L3241.32 12.4779L3227.21 2.29162L3251.23 12.8409L3238.77 2.71523L3258.79 11.4118L3263.95 3.63803L3279.35 7.89934L3285.63 1.58888L3290.49 8.30784L3295.26 0.235326C3297.84 2.51029 3303.19 6.89612 3303.9 6.23969C3304.79 5.41922 3307.6 1.2563 3307.65 0.689168C3307.68 0.235464 3315.35 4.57366 3319.18 6.7994C3320.83 5.05891 3324.24 1.29727 3324.66 0.175076C3325.08 -0.947119 3327.57 3.59948 3328.76 6.01304L3347.12 23.516L3355.03 28.3558L3365.12 21.0471L3376.3 26.2915L3376.81 19.7693L3389.78 23.3727L3394.71 18.4347L3403.51 22.454L3407.71 16.3515L3418.24 19.297L3420.86 12.2832L3427.58 21.6299L3433.87 15.3195L3436.41 19.9626C3438.36 17.8541 3442.29 13.5235 3442.32 13.0698C3442.36 12.6161 3444.58 15.9963 3445.69 17.7432L3454.1 16.0607L3454.54 10.3892C3454.63 9.25486 3456.48 13.7782 3457.4 16.1817L3467.37 15.6941L3480.58 16.1781L3483.54 10.0302L3490.62 14.8398L3495.71 7.9167L3499.36 14.3067L3503.34 5.63681L3507.68 13.7585C3507.41 11.9474 3506.89 7.98485 3506.99 6.62367C3507.1 5.26256 3514.92 11.0854 3518.83 14.167C3520.41 13.2772 3523.52 11.3244 3523.24 10.6317C3522.96 9.93902 3535.04 13.2445 3541.12 14.9838L3550.36 2.52543L3558.46 10.2161L3557.79 2.7977L3574.15 10.791L3579.78 7.58467L3589.01 11.3356L3596.1 5.33889L3602.35 10.1182L3605.36 3.4031L3614.8 9.72132L3615.37 2.34829L3624.13 1.53164Z" fill="#19274B"/>
</svg>
