<svg width="1438" height="229" viewBox="0 0 1438 229" fill="none" xmlns="http://www.w3.org/2000/svg">
<path d="M114.217 7.5034L0 16.0266V229H1438V85.5209L1166.5 77L1142.5 94L1150 77L1142.5 85.5209L1119.5 72.5H1079C1085.46 66.6982 1073.97 77.8316 1079 72.5L1069.61 64.1096L1058.94 67.1856L1056.96 62.6721L1047.91 65.6907L1047.48 60.3132L1027.35 66.4222L1031.92 57.9007L1023.94 59.263L1013.17 66.1176L1009.43 59.7794L996.176 65.9134L994.429 59.2346L981.577 65.3543C983.039 63.4148 986.027 59.3178 986.28 58.446C986.534 57.5741 978.17 59.8131 973.955 61.0416L954.567 66.3153L955.729 60.6115L912.239 67.8213L928.374 57.2706L895.898 65.7063L910.932 56.543L892.351 61.788L906.132 52.1299L882.675 62.1322L894.845 52.5315L875.29 60.7771L870.253 53.4064L855.214 57.4469L849.075 51.4635L844.329 57.8341L839.674 50.1802C837.152 52.3372 831.932 56.4956 831.236 55.8733C830.365 55.0953 827.623 51.1483 827.58 50.6105C827.546 50.1803 820.059 54.2936 816.319 56.404C814.705 54.7536 811.375 51.1871 810.966 50.1231C810.557 49.0591 808.126 53.3699 806.961 55.6584L803.177 48.7824L795.459 53.3712L785.606 46.4416L774.684 51.414L774.189 45.2299L761.526 48.6465L756.704 43.9646L748.115 47.7755L744.013 41.9893L733.726 44.7821L731.172 38.132L724.604 46.9941L718.465 41.0108L715.988 45.4132C714.076 43.414 710.244 39.3081 710.209 38.8778C710.174 38.4476 708.005 41.6526 706.925 43.3089L698.712 41.7137L698.282 36.3362C698.196 35.2607 696.383 39.5496 695.487 41.8284L685.747 41.366L684.421 41.4132C685.689 40.0999 686.86 38.8728 687.886 37.7846L670.383 36.8574L669.955 35.9959L668.778 36.7724L659.817 36.2977L658.07 33.992L656.659 36.3958L653.248 37.3792L650.621 31.8303L646.667 39.0191L646.513 38.6702C646.786 36.7772 647.145 33.8697 647.057 32.766C646.992 31.9521 643.928 33.8471 640.718 36.091L635.732 37.7528L635.302 32.3753L615.172 38.4842L619.746 29.9627L611.77 31.3251L608.272 33.5509L604.701 28.8802L598.749 34.3696L597.257 31.8415L597.192 31.8713L597.444 29.1384L583.43 35.7896L582.255 31.2966L576.568 34.0043L575.977 33.6772L570.606 35.7962C572.098 33.7587 573.911 31.1788 574.106 30.508C574.357 29.6439 566.142 31.8358 561.894 33.0708L560.039 31.5478L555.722 34.7517L553.589 35.332L550.998 29.7123L543.114 34.8329L543.554 32.6736L541.559 33.0043L541.216 28.7122L536.808 33.7919L535.222 34.0549L532.664 27.9379L526.391 35.4414L505.23 36.5057L516.2 29.3326L484.588 37.544L484.047 37.5711L498.758 28.605L480.176 33.85L493.958 24.1919L470.501 34.1942L482.67 24.5936L463.115 32.8392L458.079 25.4685L443.04 29.5089L436.901 23.5256L432.155 29.8962L427.5 22.2423C424.978 24.3993 419.758 28.5577 419.061 27.9353C418.19 27.1574 415.449 23.2103 415.406 22.6726C415.371 22.2424 407.885 26.3556 404.145 28.466C402.531 26.8157 399.2 23.2491 398.791 22.1851C398.383 21.1211 395.952 25.432 394.787 27.7204L391.003 20.8444L383.285 25.4333L373.432 18.5036L362.51 23.4761L362.015 17.292L349.351 20.7086L344.53 16.0266L335.94 19.8375L331.839 14.0514L321.551 16.8442L318.998 10.1941L312.43 19.0562L306.291 13.0729L303.813 17.4753C301.902 15.4761 298.07 11.3701 298.035 10.9399C298 10.5097 295.831 13.7147 294.751 15.371L286.537 13.7757L286.108 8.39827C286.022 7.32276 284.208 11.6116 283.312 13.8905L273.573 13.4281L260.673 13.887L257.78 8.05789L250.868 12.6181L245.896 6.05398L242.338 12.1126L238.447 3.89231L234.211 11.5929C234.478 9.87569 234.986 6.1186 234.883 4.828C234.779 3.53747 227.136 9.05839 223.327 11.9802C221.776 11.1365 218.745 9.28499 219.015 8.62821C219.286 7.97144 207.49 11.1056 201.557 12.7547L192.527 0.942264L184.62 8.23419L185.27 1.20041L169.301 8.77921L163.802 5.73917L154.788 9.29557L147.865 3.60984L141.759 8.14131L138.824 1.77442L129.601 7.76503L129.042 0.774308L123.489 7.17354L120.49 0L114.217 7.5034Z" fill="#19274B"/>
</svg>
