<svg width="69" height="69" viewBox="0 0 69 69" fill="none" xmlns="http://www.w3.org/2000/svg">
<path d="M6.27083 68.0668C6.27083 68.0668 0.638184 68.0668 0.638184 62.4342C0.638184 56.8015 6.27083 39.9036 34.4341 39.9036C62.5973 39.9036 68.2299 56.8015 68.2299 62.4342C68.2299 68.0668 62.5973 68.0668 62.5973 68.0668H6.27083ZM34.4341 34.271C38.9157 34.271 43.2137 32.4907 46.3827 29.3217C49.5517 26.1527 51.332 21.8546 51.332 17.373C51.332 12.8914 49.5517 8.59337 46.3827 5.42439C43.2137 2.25541 38.9157 0.475098 34.4341 0.475098C29.9524 0.475098 25.6544 2.25541 22.4854 5.42439C19.3164 8.59337 17.5361 12.8914 17.5361 17.373C17.5361 21.8546 19.3164 26.1527 22.4854 29.3217C25.6544 32.4907 29.9524 34.271 34.4341 34.271Z" fill="white"/>
</svg>
