<svg width="91" height="100" viewBox="0 0 91 100" fill="none" xmlns="http://www.w3.org/2000/svg">
<path d="M32.7205 54.1708H29.1015V54.3599H32.7205V54.1708Z" fill="#D1D1D1"/>
<path d="M23.5688 76.6418V63.728H23.8249V63.9204H24.4892V62.7626H25.0427V63.1778H27.4335V56.0458H27.7933V54.5658H28.2171V53.8451H28.4126V53.2207H28.5579V52.6368H28.8312V53.2241H28.9869V53.8519H29.1703V54.5742H32.6474V53.8181H32.8343V53.2477H33.0211V52.6469H33.2944V53.2511H33.4743V53.835H33.6162V54.5776H34.1213V56.0492H34.4638V76.6688L23.5688 76.6418Z" fill="#D1D1D1"/>
<path d="M28.7681 51.8911H28.6116V52.9795H28.7681V51.8911Z" fill="#D1D1D1"/>
<path d="M33.2501 51.8815H33.0935V52.9698H33.2501V51.8815Z" fill="#D1D1D1"/>
<path d="M53.9789 49.4358L51.5844 51.826V78.1185H59.3665V54.6146L56.3734 51.826V49.4358H53.9789Z" fill="white"/>
<path d="M66.4816 56.2173V77.4143L55.809 77.3737V69.3459H56.1498V68.9648H56.7898V69.3702H57.1805V68.9729H58.7016V68.4539H59.2585V68.9972H60.4783L60.4783 61.691H60.923V61.4424H62.0347V61.691H62.4752V55.439H62.9241L64.4805 55.7726L65.5922 55.9949V55.8837H66.0369V56.1061L66.4816 56.2173Z" fill="#E3E3E3"/>
<path d="M31.7957 78.192V57.9978L32.7819 57.0357L36.252 56.6009V57.3849H36.9825V63.0009H38.0564V62.8085H37.7423L38.8391 62.5218L38.4757 62.7264V63.0294H39.2545V63.7991H39.5467V63.5568H40.2992V63.7991H40.4672V78.192H31.7957Z" fill="white"/>
<rect x="41.7029" y="36.3173" width="8.66079" height="41.8012" fill="#D1D1D1"/>
<mask id="mask0_301_1249" style="mask-type:alpha" maskUnits="userSpaceOnUse" x="35" y="18" width="21" height="17">
<path d="M38.9963 34.7615C38.0753 34.7615 37.2928 33.9901 37.1562 32.9473L35.7991 22.589L37.3591 20.1747C37.3518 20.1857 37.3659 20.1638 37.3591 20.1747C38.1645 18.9705 41.6109 18.3286 45.7403 18.3286C49.8465 18.3286 53.2773 18.9633 54.1077 20.1545C54.093 20.1299 54.1245 20.1786 54.1077 20.1545L55.6815 22.589L54.3243 32.9473C54.1877 33.9901 53.4053 34.7615 52.4843 34.7615H38.9963Z" fill="#C4C4C4"/>
</mask>
<g mask="url(#mask0_301_1249)">
<path d="M26.9148 -1.86522L26.9137 -1.86531L142.449 39.7573L40.0705 126.271L26.9148 -1.86522Z" fill="#E3E3E3"/>
</g>
<path d="M36.7151 32.0042L35.943 28.0239C35.5025 25.7529 37.242 23.6435 39.5554 23.6435H52.4664C54.7944 23.6435 56.5374 25.7783 56.0717 28.0593L55.2589 32.0397C54.9092 33.7528 53.4021 34.9832 51.6537 34.9832H40.3274C38.5654 34.9832 37.0506 33.734 36.7151 32.0042Z" fill="#E3E3E3"/>
<path d="M35.0934 23.1988L36.9167 32.6486H54.8081L56.8593 23.1988H35.0934Z" fill="#E3E3E3"/>
<path d="M56.8593 23.1988L55.036 32.6486H37.1446L35.0934 23.1988H56.8593Z" fill="#E3E3E3"/>
<path d="M39.4758 34.9833C38.4264 34.9833 53.6166 34.9833 52.5934 34.9833C51.5703 34.9833 51.2126 37.2068 51.2126 37.2068H40.8912C40.8912 37.2068 40.5252 34.9833 39.4758 34.9833Z" fill="white"/>
<path d="M33.8122 23.4212L33.2701 22.1395L34.6007 21.8648H57.0719L58.7967 22.0937L58.1561 23.4212H33.8122Z" fill="white"/>
<path d="M56.6314 25.4224H35.3817L36.005 28.3129H56.0217L56.6314 25.4224Z" fill="white"/>
<path d="M45.9772 17.4179C37.3375 17.8556 37.4865 19.1567 35.0934 22.0871H57.2012C55.1499 19.2783 53.7356 17.6369 45.9772 17.4179Z" fill="white"/>
<path d="M42.1476 16.5843C42.0637 16.2719 42.2732 15.9575 42.5652 15.9575H49.5778C49.8666 15.9575 50.0756 16.2656 49.9974 16.5762L49.5402 18.392H42.6332L42.1476 16.5843Z" fill="white"/>
<path d="M46.0662 0.741859L46.7363 13.7127L46.7799 14.5576L46.8019 14.9837L46.8836 16.5661H45.2489L45.3526 14.5576L46.0662 0.741859Z" fill="white"/>
<path d="M44.1923 14.2851C44.1923 14.161 44.2674 14.0525 44.375 14.0213L45.3962 13.7127C45.4589 13.6945 46.6737 13.6942 46.7363 13.7127L47.7793 14.0206C47.8866 14.0523 47.9613 14.1606 47.9613 14.2846C47.9613 14.4354 47.8519 14.5576 47.7168 14.5576H47.2107H47.1562H46.7799H45.3526H44.4363C44.3016 14.5576 44.1923 14.4356 44.1923 14.2851Z" fill="white"/>
<path d="M47.2107 14.5576H46.7747L46.802 15.0445C46.802 14.7839 46.9699 14.5576 47.2107 14.5576Z" fill="white"/>
<path d="M44.9219 14.5576L45.3579 14.5576L45.3306 15.0445C45.3306 14.7839 45.1627 14.5576 44.9219 14.5576Z" fill="white"/>
<path d="M21.4774 91.7333H25.2038V81.0083C24.4585 78.1993 21.7009 79.0505 21.4774 81.2636C16.8864 79.8336 5.70207 79.4194 0.683794 79.391V81.7743C10.7005 81.6381 18.7198 88.3569 21.4774 91.7333Z" fill="white"/>
<path d="M70.1447 92.0737H66.4183V81.3487C67.1636 78.5397 69.9211 79.3909 70.1447 81.604C74.7357 80.174 85.92 79.7598 90.9383 79.7314V82.1147C80.9216 81.9785 72.9023 88.6973 70.1447 92.0737Z" fill="white"/>
<path d="M25.2784 92.0744H21.552V81.3493C22.2973 78.5404 25.0549 79.3916 25.2784 81.6047C29.8694 80.1747 41.0537 79.7604 46.072 79.7321V82.1154C36.0553 81.9792 28.036 88.698 25.2784 92.0744Z" fill="white"/>
<path d="M66.3437 92.0737H70.0702V81.3487C69.3249 78.5398 66.5673 79.3909 66.3437 81.604C61.7528 80.174 50.5685 79.7598 45.5502 79.7314V82.1148C55.5669 81.9786 63.5862 88.6973 66.3437 92.0737Z" fill="white"/>
<path d="M0.683838 79.2302H90.9383V81.4433L79.2373 80.9326L68.8032 82.2945L32.4331 80.4218L23.7133 82.1242L15.5151 80.4218L0.683838 81.4433V79.2302Z" fill="white"/>
<path d="M49.4855 78.2034C50.9158 77.1149 51.3362 71.7631 51.3675 69.2232C38.7401 75.8384 29.3484 70.0352 28.6888 69.3593C28.7202 71.8991 29.1405 77.2509 30.5709 78.3394L49.4855 78.2034Z" fill="#E3E3E3"/>
<mask id="mask1_301_1249" style="mask-type:alpha" maskUnits="userSpaceOnUse" x="0" y="37" width="91" height="63">
<path d="M11.878 43.9035C11.8466 43.9999 11.8151 44.0964 11.7833 44.1927C11.4096 45.3284 10.4831 46.0069 9.27107 46.0192C8.57292 46.027 7.87446 46.0252 7.17592 46.0233C6.87036 46.0225 6.56479 46.0217 6.25922 46.0217C6.25922 46.0382 6.25937 46.0546 6.25953 46.0708C6.25969 46.0869 6.25984 46.103 6.25984 46.119C5.95811 46.119 5.65637 46.1167 5.35465 46.1144C4.6817 46.1092 4.00883 46.104 3.33626 46.1246C1.45816 46.1816 0.167277 47.3922 0.0101421 49.2033C-0.126333 50.7876 1.12949 52.2033 2.87425 52.567C4.82622 52.9747 6.7638 53.4475 8.69762 53.9338C9.69426 54.186 10.4443 55.1266 10.5256 56.0714C10.5346 56.1737 10.5435 56.2759 10.5525 56.3782C10.6144 57.0883 10.6764 57.7987 10.7585 58.5076C10.9038 59.7481 10.3854 60.7468 9.22787 61.2933C7.50064 62.1087 5.77153 62.9179 4.02365 63.6868C2.32396 64.4328 1.49071 66.0195 2.00406 67.6484C2.54496 69.3702 4.11567 70.2104 5.96874 69.8349C7.92259 69.4372 9.88458 69.0741 11.851 68.7395C13.0047 68.5419 13.935 69.0338 14.5072 70.0351C14.5638 70.134 14.6203 70.233 14.6767 70.3321C14.9972 70.8939 15.3177 71.4559 15.6541 72.0084C16.3878 73.2173 16.3302 74.2235 15.3968 75.2984C14.7581 76.0332 14.1117 76.7612 13.4654 77.489C12.8239 78.2115 12.1826 78.9338 11.5492 79.6622C10.3635 81.0253 10.3798 82.9002 11.5611 84.1176C12.7199 85.3141 14.5473 85.4107 15.979 84.3909C17.5835 83.2515 19.2012 82.1312 20.8277 81.0253C21.8193 80.3512 22.8879 80.402 23.8633 81.1114C24.0087 81.2177 24.1538 81.3244 24.2991 81.4312C24.7449 81.759 25.1913 82.0873 25.6456 82.4032C26.939 83.3016 27.2789 84.2416 26.8169 85.7341C26.4195 87.0197 26.0168 88.3039 25.6141 89.588C25.4667 90.0579 25.3194 90.5277 25.1723 90.9975C24.6227 92.7578 25.337 94.4765 26.8845 95.1203C28.5529 95.8117 30.1906 95.199 31.1628 93.5533C32.1307 91.9158 33.1217 90.2912 34.1234 88.6728C34.7976 87.5842 35.8061 87.2019 37.062 87.4839C37.5929 87.6053 38.1276 87.7035 38.6628 87.8018C38.8211 87.8309 38.9795 87.86 39.1379 87.8897C40.6247 88.1679 41.376 88.9963 41.5569 90.4932C41.5986 90.8419 41.6396 91.1907 41.6806 91.5395C41.8747 93.191 42.0689 94.843 42.3382 96.484C42.6249 98.2355 44.3315 99.3012 46.0913 98.9481C47.58 98.6457 48.4777 97.699 48.6899 96.1234C48.826 95.1135 48.9487 94.1021 49.0714 93.0905C49.1809 92.1886 49.2903 91.2866 49.4092 90.3854C49.5971 88.9634 50.2538 88.2645 51.668 87.9461C52.072 87.855 52.4781 87.7745 52.8842 87.6941C53.2292 87.6258 53.5742 87.5575 53.9179 87.4826C55.1406 87.2162 56.141 87.5892 56.7952 88.6431C57.8025 90.2577 58.7998 91.8804 59.757 93.5248C60.7261 95.1909 62.4533 95.8508 64.1023 95.1252C65.6373 94.4523 66.3184 92.7361 65.7606 90.9734C65.1978 89.1933 64.6381 87.4114 64.0935 85.6257C63.6928 84.3085 64.0728 83.275 65.1953 82.49C65.822 82.0507 66.4392 81.6046 67.0559 81.1548C68.0682 80.4168 69.1149 80.3753 70.1629 81.0872C71.7681 82.1777 73.367 83.2775 74.9483 84.4014C76.4301 85.4522 78.2794 85.3426 79.4288 84.0922C80.6133 82.8035 80.5757 81.0364 79.3531 79.6554C78.0484 78.1826 76.7494 76.703 75.4667 75.2111C74.681 74.3021 74.6134 73.221 75.2156 72.2098C75.6291 71.52 76.0288 70.8243 76.4282 70.129L76.4527 70.0865C77.038 69.0666 78.0259 68.5468 79.1966 68.755C81.1035 69.0927 83.0073 69.4526 84.8985 69.8628C86.7541 70.2655 88.3461 69.4756 88.9308 67.7798C89.493 66.1509 88.7248 64.543 87.022 63.7636C86.8207 63.6715 86.6193 63.5795 86.418 63.4874C84.8825 62.7855 83.3469 62.0836 81.8215 61.3627C80.6659 60.8156 80.0818 59.8776 80.1826 58.797L80.188 58.7397C80.272 57.8578 80.3561 56.9744 80.475 56.0974C80.6277 54.976 81.2519 54.217 82.375 53.9376L82.4799 53.9115C84.3494 53.4474 86.2215 52.9827 88.105 52.5788C89.8911 52.1972 91.1369 50.8353 90.9879 49.2454C90.8051 47.2981 89.2413 46.114 87.5541 46.1574C86.0477 46.1962 84.5395 46.1527 83.0319 46.1092C82.591 46.0965 82.1502 46.0838 81.7095 46.0731C80.4725 46.044 79.6104 45.378 79.2172 44.2063C79.1836 44.1053 79.1498 44.0044 79.1159 43.9035L68.9882 42.4377C70.6367 46.3186 71.3256 52.0796 70.8002 56.7815C70.2061 62.0882 68.05 66.7488 64.3952 70.6466C58.7716 76.6467 51.8038 79.4714 43.4989 78.9026C37.6411 78.5036 32.4994 76.3499 28.2286 72.4075C22.0152 66.6738 19.1943 59.5566 19.99 51.1284C20.2322 48.5559 21.0619 44.6842 22.0057 42.4377L11.878 43.9035Z" fill="#3A3A3A"/>
<path d="M18.7807 37.6008C15.6647 36.8408 12.8499 38.7 12.4704 41.2651L22.0057 42.4377C22.6871 39.2131 19.9827 37.8939 18.7807 37.6008Z" fill="#3A3A3A"/>
<path d="M11.878 43.9035L22.0057 42.4377L12.4704 41.2651C12.4905 41.2649 11.8863 43.7079 11.878 43.9035Z" fill="#3A3A3A"/>
<path d="M18.7807 37.6008C15.6647 36.8408 12.8499 38.7 12.4704 41.2651L22.0057 42.4377C22.6871 39.2131 19.9827 37.8939 18.7807 37.6008Z" fill="#3A3A3A"/>
<path d="M11.878 43.9035L22.0057 42.4377L12.4704 41.2651C12.4905 41.2649 11.8863 43.7079 11.878 43.9035Z" fill="#3A3A3A"/>
<path d="M72.2131 37.6008C75.2731 37.0144 77.9776 38.6268 78.5234 41.2651L68.9882 42.4377C68.3067 39.2131 70.9974 37.8337 72.2131 37.6008Z" fill="#3A3A3A"/>
<path d="M79.1159 43.9035L68.9882 42.4377L78.5234 41.2651C78.5033 41.2649 79.1075 43.7079 79.1159 43.9035Z" fill="#3A3A3A"/>
<path d="M72.2131 37.6008C75.2731 37.0144 77.9776 38.6268 78.5234 41.2651L68.9882 42.4377C68.3067 39.2131 70.9974 37.8337 72.2131 37.6008Z" fill="#3A3A3A"/>
<path d="M79.1159 43.9035L68.9882 42.4377L78.5234 41.2651C78.5033 41.2649 79.1075 43.7079 79.1159 43.9035Z" fill="#3A3A3A"/>
</mask>
<g mask="url(#mask1_301_1249)">
<rect width="118.995" height="71.2352" transform="matrix(1 0 0 -1 -14.3586 78.2029)" fill="white"/>
</g>
</svg>
