<svg width="613" height="631" viewBox="0 0 613 631" fill="none" xmlns="http://www.w3.org/2000/svg">
<path d="M322.304 165.58H310.583V250.073H322.304V165.58Z" fill="#C5283D"/>
<path d="M267.351 250.069C273.265 253.6 277.508 258.647 277.878 267.212L316.077 267.189L354.274 267.212C354.643 258.647 358.887 253.6 364.801 250.069H316.077H267.351Z" fill="#1B294D"/>
<path d="M234.548 165.577L249.698 242.89C250.834 247.055 253.273 250.089 256.464 250.089H316.075H375.688C378.879 250.089 381.316 247.055 382.452 242.89L397.604 165.577H316.075H234.548Z" fill="#C5283D"/>
<path d="M241.602 201.544L237.493 180.638H394.655L390.557 201.544H241.602Z" fill="#1B294D"/>
<path d="M316.077 0L310.243 95.0312L301.782 97.2969C300.438 97.657 299.902 100.25 302.573 100.25H307.315C307.642 101.117 307.747 102.043 309.575 102.51V110.781H291.274C287.86 110.693 285.193 111.318 286.415 115.641L288.635 123.926C254.089 126.522 243.85 140.182 235.573 154.734C230.638 154.405 225.703 154.959 220.768 156.129L224.528 165.578H316.077H407.624L411.384 156.129C406.448 154.959 401.514 154.405 396.579 154.734C388.302 140.182 378.064 126.522 343.518 123.926L345.737 115.641C346.959 111.318 344.292 110.693 340.878 110.781H322.577V102.51C324.405 102.043 324.512 101.117 324.839 100.25H329.579C332.25 100.25 331.714 97.657 330.37 97.2969L321.909 95.0312L316.077 0Z" fill="#1B294D"/>
<path d="M351.677 539.295V362.807L368.265 346.219H384.424V362.475L404.467 382.517V539.295H351.677Z" fill="#1B294D"/>
<path d="M376.377 539.295V478.73H380.105V477.123H383.472V478.738H387.168V476.548L397.99 476.68V474.007H401.613V476.68H410.206V426.441H413.714V424.611H419.01V426.303H424.279V382.789H427.745L446.152 386.73C446.11 386.267 446.099 385.765 446.081 385.571C446.908 385.625 446.889 385.622 448.96 385.798C448.994 386.561 448.998 386.571 449.031 387.347L452.305 388.048V539.295H376.377Z" fill="#C5283D"/>
<path d="M190.532 364.381V373.464H189.42V377.354H188.171V382.181H185.61V392.075H182.882V439.755H167.55V436.863H163.365V445.351H160.513V539.295H211.31H239.911C239.911 465.699 239.739 464.795 239.739 392.075H237.011V382.181H234.45V377.354H233.201V373.464H232.089V364.381H230.904V368.733H191.717V364.381H190.532ZM191.717 370.022H230.904V373.412H229.661V377.556H228.329V382.324H211.31H194.292V377.556H192.959V373.412H191.717V370.022Z" fill="#5B6976"/>
<path d="M216.777 402.425V539.314H277.901V443.172H275.622V441.042H271.09V443.271H268.117V438.119H262.519V435.568C262.519 435.568 266.464 434.529 265.539 433.824C264.79 433.253 258.569 434.834 258.733 435.648C258.872 436.335 260.835 435.83 260.835 435.83V438.169H252.601V397.139H247.495V393.53L224.354 396.316L216.777 402.425Z" fill="#19274B"/>
<path d="M202.377 479.71C202.855 491.619 202.021 516.09 212.003 539.291C213.63 539.293 215.155 539.292 216.772 539.295L216.777 539.314C234.29 539.314 253.887 539.321 274.938 539.321C295.989 539.321 315.586 539.314 333.099 539.314L333.103 539.295C334.72 539.293 336.245 539.293 337.873 539.291C347.855 516.09 347.02 491.619 347.498 479.71C324.44 489.521 300.557 496.681 274.939 497.114C249.32 496.682 225.436 489.521 202.377 479.71H202.377Z" fill="#C5283D"/>
<path d="M322.304 165.58H310.583V250.073H322.304V165.58Z" fill="#C5283D"/>
<path d="M287.998 266.877H344.101C345.022 266.877 345.764 265.249 345.765 266.171L345.776 539.295H286.333V265.268C286.333 264.346 287.075 266.877 287.996 266.877L287.998 266.877Z" fill="#D1D1D1"/>
<path d="M267.351 250.069C273.265 253.6 277.508 258.647 277.878 267.212L316.077 267.189L354.274 267.212C354.643 258.647 358.887 253.6 364.801 250.069H316.077H267.351Z" fill="white"/>
<path d="M234.548 165.577L249.698 242.89C250.834 247.055 253.273 250.089 256.464 250.089H316.075H375.688C378.879 250.089 381.316 247.055 382.452 242.89L397.604 165.577H316.075H234.548Z" fill="#E3E3E3"/>
<path d="M241.602 201.544L237.493 180.638H394.655L390.557 201.544H241.602Z" fill="white"/>
<path d="M316.077 0L310.243 95.0312L301.782 97.2969C300.438 97.657 299.902 100.25 302.573 100.25H307.315C307.642 101.117 307.747 102.043 309.575 102.51V110.781H291.274C287.86 110.693 285.193 111.318 286.415 115.641L288.635 123.926C254.089 126.522 243.85 140.182 235.573 154.734C230.638 154.405 225.703 154.959 220.768 156.129L224.528 165.578H316.077H407.624L411.384 156.129C406.448 154.959 401.514 154.405 396.579 154.734C388.302 140.182 378.064 126.522 343.518 123.926L345.737 115.641C346.959 111.318 344.292 110.693 340.878 110.781H322.577V102.51C324.405 102.043 324.512 101.117 324.839 100.25H329.579C332.25 100.25 331.714 97.657 330.37 97.2969L321.909 95.0312L316.077 0Z" fill="white"/>
<path d="M351.677 539.295V362.807L368.265 346.219H384.424V362.475L404.467 382.517V539.295H351.677Z" fill="white"/>
<path d="M376.377 539.295V478.73H380.105V477.123H383.472V478.738H387.168V476.548L397.99 476.68V474.007H401.613V476.68H410.206V426.441H413.714V424.611H419.01V426.303H424.279V382.789H427.745L446.152 386.73C446.11 386.267 446.099 385.765 446.081 385.571C446.908 385.625 446.889 385.622 448.96 385.798C448.994 386.561 448.998 386.571 449.031 387.347L452.305 388.048V539.295H376.377Z" fill="#E3E3E3"/>
<path d="M190.532 364.381V373.464H189.42V377.354H188.171V382.181H185.61V392.075H182.882V439.755H167.55V436.863H163.365V445.351H160.513V539.295H211.31H239.911C239.911 465.699 239.739 464.795 239.739 392.075H237.011V382.181H234.45V377.354H233.201V373.464H232.089V364.381H230.904V368.733H191.717V364.381H190.532ZM191.717 370.022H230.904V373.412H229.661V377.556H228.329V382.324H211.31H194.292V377.556H192.959V373.412H191.717V370.022Z" fill="#D1D1D1"/>
<path d="M216.777 402.425V539.314H277.901V443.172H275.622V441.042H271.09V443.271H268.117V438.119H262.519V435.568C262.519 435.568 266.464 434.529 265.539 433.824C264.79 433.253 258.569 434.834 258.733 435.648C258.872 436.335 260.835 435.83 260.835 435.83V438.169H252.601V397.139H247.495V393.53L224.354 396.316L216.777 402.425Z" fill="white"/>
<path d="M202.377 479.71C202.855 491.619 202.021 516.09 212.003 539.291C213.63 539.293 215.155 539.292 216.772 539.295L216.777 539.314C234.29 539.314 253.887 539.321 274.938 539.321C295.989 539.321 315.586 539.314 333.099 539.314L333.103 539.295C334.72 539.293 336.245 539.293 337.873 539.291C347.855 516.09 347.02 491.619 347.498 479.71C324.44 489.521 300.557 496.681 274.939 497.114C249.32 496.682 225.436 489.521 202.377 479.71H202.377Z" fill="#E3E3E3"/>
<path d="M491.164 265.559C475.965 265.745 462.336 276.792 463.293 301.709C464.021 320.677 476.444 337.484 478.316 357.576C483.67 414.875 464.691 463.261 422.885 502.24C403.99 519.863 382.515 532.121 358.849 539.295H524.406C519.327 533.511 514.245 527.733 509.223 521.895C502.942 514.588 502.553 507.746 507.49 499.53C510.152 495.109 512.667 490.604 515.207 486.112C519.057 479.307 525.317 475.962 533.08 477.305C546.311 479.579 559.512 482.047 572.658 484.752C585.126 487.305 595.694 481.593 599.334 469.887C602.788 458.812 597.18 448.026 585.744 442.955C573.984 437.726 562.35 432.225 550.728 426.682C542.94 422.967 539.452 416.177 540.43 407.744C541.062 402.23 541.516 396.704 541.996 391.182C542.544 384.758 547.591 378.365 554.297 376.651C567.308 373.344 580.345 370.129 593.478 367.358C605.218 364.885 613.668 355.259 612.75 344.488C611.693 332.176 603.006 323.946 590.369 323.559C583.815 323.356 577.257 323.522 570.699 323.522C550.437 322.844 570.699 323.522 550.437 322.844C542.283 322.76 536.05 318.147 533.535 310.426C531.816 305.153 530.187 299.844 528.451 294.574C523.131 276.045 506.363 265.372 491.164 265.559L491.164 265.559ZM121.654 265.715C106.456 265.528 89.6872 276.202 84.367 294.731C82.6313 300 81.0019 305.309 79.283 310.582C76.7684 318.303 70.5354 322.916 62.3807 323L42.119 323.678C35.5607 323.678 29.0033 323.513 22.4491 323.715C9.81246 324.102 1.1255 332.332 0.0682359 344.645C-0.850026 355.415 7.60029 365.041 19.3397 367.514C32.4734 370.286 45.5099 373.5 58.5214 376.807C65.2272 378.521 70.2745 384.914 70.8222 391.338C71.3023 396.86 71.7566 402.387 72.3886 407.901C73.3658 416.333 69.8783 423.123 62.0897 426.838C50.4685 432.381 38.8345 437.882 27.0741 443.111C15.6379 448.182 10.0302 458.968 13.4843 470.043C17.1236 481.749 27.692 487.461 40.16 484.908C53.3064 482.203 66.5074 479.735 79.7382 477.461C87.5012 476.118 93.7614 479.464 97.6112 486.268C100.151 490.76 102.666 495.265 105.328 499.686C110.265 507.902 109.876 514.744 103.596 522.051C98.618 527.836 93.5827 533.563 88.5487 539.295H253.41C229.964 532.097 208.681 519.882 189.933 502.397C148.127 463.418 129.148 415.031 134.502 357.733C136.374 337.64 148.797 320.833 149.525 301.865C150.482 276.949 136.853 265.902 121.654 265.715L121.654 265.715Z" fill="#FFBF1A"/>
<path d="M491.164 265.559C475.965 265.745 462.336 276.792 463.293 301.709C464.021 320.677 476.444 337.484 478.316 357.576C483.67 414.875 464.691 463.261 422.885 502.24C403.99 519.863 382.515 532.121 358.849 539.295H524.406C519.327 533.511 514.245 527.733 509.223 521.895C502.942 514.588 502.553 507.746 507.49 499.53C510.152 495.109 512.667 490.604 515.207 486.112C519.057 479.307 525.317 475.962 533.08 477.305C546.311 479.579 559.512 482.047 572.658 484.752C585.126 487.305 595.694 481.593 599.334 469.887C602.788 458.812 597.18 448.026 585.744 442.955C573.984 437.726 562.35 432.225 550.728 426.682C542.94 422.967 539.452 416.177 540.43 407.744C541.062 402.23 541.516 396.704 541.996 391.182C542.544 384.758 547.591 378.365 554.297 376.651C567.308 373.344 580.345 370.129 593.478 367.358C605.218 364.885 613.668 355.259 612.75 344.488C611.693 332.176 603.006 323.946 590.369 323.559C583.815 323.356 577.257 323.522 570.699 323.522C550.437 322.844 570.699 323.522 550.437 322.844C542.283 322.76 536.05 318.147 533.535 310.426C531.816 305.153 530.187 299.844 528.451 294.574C523.131 276.045 506.363 265.372 491.164 265.559L491.164 265.559ZM121.654 265.715C106.456 265.528 89.6872 276.202 84.367 294.731C82.6313 300 81.0019 305.309 79.283 310.582C76.7684 318.303 70.5354 322.916 62.3807 323L42.119 323.678C35.5607 323.678 29.0033 323.513 22.4491 323.715C9.81246 324.102 1.1255 332.332 0.0682359 344.645C-0.850026 355.415 7.60029 365.041 19.3397 367.514C32.4734 370.286 45.5099 373.5 58.5214 376.807C65.2272 378.521 70.2745 384.914 70.8222 391.338C71.3023 396.86 71.7566 402.387 72.3886 407.901C73.3658 416.333 69.8783 423.123 62.0897 426.838C50.4685 432.381 38.8345 437.882 27.0741 443.111C15.6379 448.182 10.0302 458.968 13.4843 470.043C17.1236 481.749 27.692 487.461 40.16 484.908C53.3064 482.203 66.5074 479.735 79.7382 477.461C87.5012 476.118 93.7614 479.464 97.6112 486.268C100.151 490.76 102.666 495.265 105.328 499.686C110.265 507.902 109.876 514.744 103.596 522.051C98.618 527.836 93.5827 533.563 88.5487 539.295H253.41C229.964 532.097 208.681 519.882 189.933 502.397C148.127 463.418 129.148 415.031 134.502 357.733C136.374 337.64 148.797 320.833 149.525 301.865C150.482 276.949 136.853 265.902 121.654 265.715L121.654 265.715Z" fill="white"/>
<path d="M6.12207 545.1V561.925C86.4986 566.319 120.623 604.449 145.292 630.359H169.914C194.308 604.737 227.792 562.086 306.424 562.09C385.036 562.094 418.512 604.74 442.904 630.359H467.525C492.195 604.449 526.319 566.319 606.696 561.925V545.1H528.163H520.365H467.525H467.158H443.271H309.084H169.914H169.547H145.66H6.12207ZM74.5797 558.714C78.286 558.669 81.7261 560.292 83.4985 562.419V569.088C77.7135 566.076 71.8691 563.784 65.9339 562.575C68.5065 559.84 71.6268 558.749 74.5797 558.714ZM240.626 558.714C243.579 558.753 246.7 559.84 249.272 562.575C243.337 563.784 237.493 566.076 231.708 569.088V562.419C233.48 560.292 236.92 558.671 240.626 558.714ZM372.191 558.714C375.898 558.669 379.338 560.292 381.11 562.419V569.088C375.325 566.076 369.481 563.784 363.546 562.575C366.118 559.84 369.238 558.749 372.191 558.714ZM538.24 558.714C541.193 558.753 544.311 559.84 546.884 562.575C540.949 563.784 535.107 566.076 529.322 569.088V562.419C531.094 560.292 534.534 558.671 538.24 558.714ZM212.815 561.527C215.608 561.596 218.745 562.779 222.078 565.995V573.181C215.735 576.158 210.15 580.031 205.245 584.708H201.818V566.546C203.645 565.062 207.338 561.705 212.168 561.532C212.382 561.524 212.597 561.524 212.815 561.528V561.527ZM400.002 561.527C400.22 561.523 400.436 561.524 400.65 561.531C405.479 561.705 409.173 565.061 411 566.545V584.707H407.572C402.328 579.706 396.306 575.625 389.41 572.575V567.378C393.239 563.111 396.841 561.604 400.002 561.526V561.527ZM510.429 561.527C513.41 561.601 516.781 562.943 520.365 566.67V572.868C513.742 575.884 507.935 579.866 502.857 584.708H499.43V566.546C501.256 565.062 504.95 561.705 509.78 561.532H509.782C509.996 561.524 510.211 561.524 510.429 561.528V561.527ZM103.038 561.531C107.868 561.705 111.561 565.061 113.388 566.545V584.707H109.961C104.589 579.585 98.4039 575.424 91.2969 572.352V567.762L91.3957 567.828C95.6402 562.901 99.6157 561.408 103.038 561.531L103.038 561.531ZM132.878 565.867C136.673 565.865 140.963 568.015 145.292 573.856V611.047H141.046C135.263 603.277 128.329 597.088 121.186 591.187V574.162C123.31 570.009 127.613 565.87 132.878 565.867ZM182.328 565.867C186.401 565.869 189.894 568.349 192.252 571.394V592.666C185.739 598.129 179.464 603.921 174.16 611.047H169.914V573.856C174.243 568.015 178.534 565.865 182.328 565.867ZM430.49 565.867C434.284 565.865 438.575 568.015 442.904 573.856V611.047H438.658C433.052 603.516 426.365 597.473 419.455 591.736V573.004C421.739 569.273 425.716 565.869 430.49 565.867ZM479.942 565.867C484.534 565.869 488.393 569.018 490.713 572.578V591.955C483.897 597.628 477.306 603.611 471.772 611.047H467.525V573.856C471.854 568.015 476.148 565.865 479.942 565.867Z" fill="white"/>
</svg>
