<svg width="53" height="54" viewBox="0 0 53 54" fill="none" xmlns="http://www.w3.org/2000/svg">
<path fill-rule="evenodd" clip-rule="evenodd" d="M26.5 50.1875C32.6497 50.1875 38.5475 47.7445 42.896 43.396C47.2445 39.0475 49.6875 33.1497 49.6875 27C49.6875 20.8503 47.2445 14.9525 42.896 10.604C38.5475 6.25546 32.6497 3.81249 26.5 3.8125C20.3503 3.8125 14.4525 6.25546 10.104 10.604C5.75546 14.9525 3.3125 20.8503 3.3125 27C3.3125 33.1497 5.75546 39.0475 10.104 43.396C14.4525 47.7445 20.3503 50.1875 26.5 50.1875ZM26.5 0.499995C33.5282 0.499995 40.2686 3.29195 45.2383 8.26166C50.208 13.2314 53 19.9718 53 27C53 34.0282 50.208 40.7686 45.2383 45.7383C40.2686 50.708 33.5282 53.5 26.5 53.5C19.4718 53.5 12.7314 50.708 7.76167 45.7383C2.79196 40.7686 -8.51138e-07 34.0282 -1.15835e-06 27C-1.46557e-06 19.9718 2.79196 13.2314 7.76167 8.26167C12.7314 3.29195 19.4718 0.499995 26.5 0.499995ZM14.9062 25.3437C14.467 25.3437 14.0457 25.5182 13.7351 25.8289C13.4245 26.1395 13.25 26.5607 13.25 27C13.25 27.4393 13.4245 27.8605 13.7351 28.1711C14.0457 28.4817 14.467 28.6562 14.9062 28.6562L34.0956 28.6562L26.9836 35.7649C26.6726 36.0759 26.4979 36.4977 26.4979 36.9375C26.4979 37.3773 26.6726 37.7991 26.9836 38.1101C27.2946 38.4211 27.7164 38.5958 28.1563 38.5958C28.5961 38.5958 29.0179 38.4211 29.3289 38.1101L39.2664 28.1726C39.4206 28.0188 39.543 27.836 39.6265 27.6348C39.71 27.4336 39.753 27.2178 39.753 27C39.753 26.7821 39.71 26.5664 39.6265 26.3652C39.543 26.164 39.4206 25.9812 39.2664 25.8274L29.3289 15.8899C29.0179 15.5789 28.5961 15.4042 28.1563 15.4042C27.7164 15.4042 27.2946 15.5789 26.9836 15.8899C26.6726 16.2009 26.4979 16.6227 26.4979 17.0625C26.4979 17.5023 26.6726 17.9241 26.9836 18.2351L34.0956 25.3437L14.9062 25.3437Z" fill="white"/>
</svg>
