<svg width="74" height="63" viewBox="0 0 74 63" fill="none" xmlns="http://www.w3.org/2000/svg">
<path d="M65.1512 44.3712C66.7515 44.7054 68.419 44.4062 69.8032 43.5363C71.1873 42.6665 72.1803 41.2938 72.5732 39.7069V39.703C72.7726 38.8978 72.8113 38.0612 72.6871 37.241C72.5629 36.4209 72.2782 35.6332 71.8494 34.9231C71.4206 34.2131 70.856 33.5945 70.188 33.1027C69.5199 32.611 68.7615 32.2558 67.956 32.0574L50.0052 27.6128L29.779 0.882638L21.0547 0L32.5525 25.8475L15.0998 24.0862L6.03021 9.06567L0.616699 10.2817L5.48101 31.9358L65.1512 44.3712ZM3.0057 54.9785H73.6167V62.8242H3.0057V54.9785Z" fill="white"/>
</svg>
