<svg width="57" height="72" viewBox="0 0 57 72" fill="none" xmlns="http://www.w3.org/2000/svg">
<path fill-rule="evenodd" clip-rule="evenodd" d="M52.3655 0.451782H4.77541C3.72361 0.451782 2.71488 0.869611 1.97114 1.61335C1.2274 2.35709 0.80957 3.36582 0.80957 4.41762V67.8711C0.80957 68.9229 1.2274 69.9316 1.97114 70.6754C2.71488 71.4191 3.72361 71.8369 4.77541 71.8369H52.3655C53.4173 71.8369 54.426 71.4191 55.1698 70.6754C55.9135 69.9316 56.3313 68.9229 56.3313 67.8711V4.41762C56.3313 3.36582 55.9135 2.35709 55.1698 1.61335C54.426 0.869611 53.4173 0.451782 52.3655 0.451782ZM40.468 55.9736H16.6729V48.0419H40.468V55.9736ZM40.468 40.1102H16.6729V32.1785H40.468V40.1102ZM40.468 24.2468H16.6729V16.3151H40.468V24.2468Z" fill="white"/>
</svg>
