<svg width="28" height="36" viewBox="0 0 28 36" fill="none" xmlns="http://www.w3.org/2000/svg">
<path d="M1.18518 0C0.530624 0 0 0.530625 0 1.18519V34.8148C0 35.4694 0.530626 36 1.18519 36H26.8148C27.4694 36 28 35.4694 28 34.8148V1.18518C28 0.530625 27.4694 0 26.8148 0H1.18518ZM18 25C18 25.5523 17.5523 26 17 26H7C6.44772 26 6 25.5523 6 25V25C6 24.4477 6.44772 24 7 24H17C17.5523 24 18 24.4477 18 25V25ZM22 19C22 19.5523 21.5523 20 21 20H7C6.44772 20 6 19.5523 6 19V19C6 18.4477 6.44772 18 7 18H21C21.5523 18 22 18.4477 22 19V19ZM22 13C22 13.5523 21.5523 14 21 14H7C6.44772 14 6 13.5523 6 13V13C6 12.4477 6.44772 12 7 12H21C21.5523 12 22 12.4477 22 13V13ZM22 7C22 7.55228 21.5523 8 21 8H7C6.44772 8 6 7.55228 6 7V7C6 6.44772 6.44772 6 7 6H21C21.5523 6 22 6.44772 22 7V7Z" fill="#C5283D"/>
</svg>
