<svg width="295" height="379" viewBox="0 0 295 379" fill="none" xmlns="http://www.w3.org/2000/svg">
<path d="M138.103 0.8125C134.926 64.754 120.629 124.157 113.877 145.865H118.643L107.126 180.648H117.054L99.9771 235.413H109.906L69 319.04L85.2829 315.34C92.0343 312.626 108.158 309.567 118.643 319.04C129.127 328.513 166.962 328.414 184.569 327.181L180.2 310.899L200.851 319.04L186.951 307.199H208C193.703 289.438 176.361 234.673 169.477 209.511H176.626C164.87 188.197 158.754 151.292 157.166 135.504L165.109 145.865C160.343 133.432 150.944 93.8139 146.84 75.559L154.783 84.4397C143.981 60.1656 139.162 18.574 138.103 0.8125Z" fill="url(#paint0_linear_305_1395)"/>
<path d="M225.103 182.219C221.926 220.584 207.629 256.225 200.877 269.25H205.643L194.126 290.12H204.054L186.977 322.979H196.906L156 373.155L172.283 370.935C179.034 369.307 195.158 367.472 205.643 373.155C216.127 378.839 253.962 378.78 271.569 378.04L267.2 368.271L287.851 373.155L273.951 366.051H295C280.703 355.394 263.361 322.535 256.477 307.438H263.626C251.87 294.649 245.754 272.507 244.166 263.034L252.109 269.25C247.343 261.79 237.944 238.02 233.84 227.067L241.783 232.395C230.981 217.831 226.162 192.876 225.103 182.219Z" fill="url(#paint1_linear_305_1395)"/>
<path d="M69.1029 164.289C65.9257 202.654 51.6286 238.295 44.8771 251.321H49.6429L38.1257 272.19H48.0543L30.9771 305.049H40.9057L0 355.226L16.2829 353.005C23.0343 351.377 39.1583 349.542 49.6429 355.226C60.1274 360.909 97.9619 360.85 115.569 360.11L111.2 350.341L131.851 355.226L117.951 348.121H139C124.703 337.464 107.361 304.605 100.477 289.508H107.626C95.8703 276.72 89.7543 254.577 88.1657 245.104L96.1086 251.321C91.3429 243.861 81.9438 220.09 77.84 209.137L85.7829 214.465C74.9806 199.901 70.1619 174.946 69.1029 164.289Z" fill="url(#paint2_linear_305_1395)"/>
<defs>
<linearGradient id="paint0_linear_305_1395" x1="138.5" y1="0.8125" x2="138.5" y2="327.766" gradientUnits="userSpaceOnUse">
<stop stop-color="#10123E"/>
<stop offset="1" stop-color="#213394"/>
</linearGradient>
<linearGradient id="paint1_linear_305_1395" x1="225.5" y1="182.219" x2="225.5" y2="378.391" gradientUnits="userSpaceOnUse">
<stop stop-color="#696EDB"/>
<stop offset="1" stop-color="#213394"/>
</linearGradient>
<linearGradient id="paint2_linear_305_1395" x1="69.5" y1="164.289" x2="69.5" y2="360.461" gradientUnits="userSpaceOnUse">
<stop stop-color="#ACAFEB"/>
<stop offset="1" stop-color="#5967B0"/>
</linearGradient>
</defs>
</svg>
