<svg width="7689" height="4136" viewBox="0 0 7689 4136" fill="none" xmlns="http://www.w3.org/2000/svg">
<g clip-path="url(#clip0_894_2655)">
<rect width="7689" height="4136" fill="url(#paint0_linear_894_2655)"/>
<path d="M1066.27 1782.85C1114.53 1782.85 1108.21 1796.29 1121.24 1801.17C1134.27 1806.06 1167.39 1820.85 1182.33 1827.64L1223.05 1782.85L1278.02 1754.34L1310.6 1733.98H1349.29C1361.5 1740.77 1387.57 1757.19 1394.08 1768.59C1400.6 1780 1432.09 1804.57 1447.02 1815.42L1514.21 1801.17L1575.29 1782.85L1638.41 1768.59L1691.35 1754.34C1711.71 1757.74 1756.1 1768.19 1770.76 1782.85C1789.09 1801.17 1819.63 1833.75 1833.88 1841.89C1848.13 1850.04 1883.67 1873.1 1899.04 1905.01C1918.36 1945.13 1904.28 1974.82 1899.04 2019.04C1889.75 2097.44 1833.88 2194.14 1833.88 2210.43C1833.88 2226.72 1935.69 2275.59 1923.47 2340.74C1920.83 2354.83 1935.69 2375.36 1935.69 2375.36C1935.69 2375.36 1971.82 2373.69 1980.48 2367.21C2022.46 2335.78 2027.05 2307.29 2059.89 2271.51C2100.2 2227.6 2135.52 2214.38 2169.84 2165.64C2177.46 2154.82 2188.16 2137.13 2188.16 2137.13C2188.16 2137.13 2082.96 2098 2059.89 2039.4C2043.58 1997.96 2070.07 1937.59 2070.07 1937.59C2070.07 1937.59 2067 1897.19 2059.89 1872.44C2045.02 1820.66 2006.27 1783.53 1988.62 1754.34C1970.98 1725.16 1988.62 1705.94 1988.62 1674.93C1988.62 1647.9 1973.83 1628.33 1988.62 1605.71C2000.72 1587.21 2015.83 1581.54 2037.49 1577.2C2061.2 1572.45 2074.78 1583.05 2098.58 1587.38C2133.71 1593.77 2153.02 1599.35 2188.16 1605.71C2250.57 1616.99 2349.02 1628.1 2349.02 1628.1C2349.02 1628.1 2483.07 1652.86 2562.81 1628.1C2598.82 1616.92 2617.79 1602.38 2654.43 1593.49C2698.48 1582.81 2721.1 1587.38 2766.42 1587.38C2802.2 1587.38 2824.2 1575.76 2858.04 1587.38C2903.78 1603.09 2916.32 1636.45 2945.6 1674.93C2974.92 1713.47 2999.89 1758.41 3006.68 1782.85C3013.47 1807.28 3019.86 1842.86 3012.79 1880.58C3003.37 1930.87 2984.28 1955.92 2972.07 2000.71C2959.85 2045.51 2922.66 2031.47 2919.13 2059.76C2915.17 2091.45 2945.6 2137.13 2945.6 2137.13C2945.6 2137.13 2964.52 2180.95 2972.07 2210.43C2980.04 2241.59 2984.28 2291.88 2984.28 2291.88C2984.28 2291.88 3030.01 2334.57 3061.66 2359.07C3103.85 2391.74 3142.85 2392.32 3175.68 2434.4C3198.87 2464.13 3216.4 2521.96 3216.4 2521.96C3216.4 2521.96 3276.8 2585.08 3301.92 2601.36C3327.03 2617.65 3365.04 2572.86 3375.22 2558.61C3385.4 2544.35 3405.76 2503.63 3405.76 2503.63C3405.76 2493.86 3444.09 2416.24 3436.3 2359.07C3427.14 2291.91 3364.36 2225.36 3346.71 2210.43C3329.07 2195.5 3301.21 2184.63 3277.48 2161.56C3247.12 2132.05 3241.2 2089.75 3216.4 2071.97C3191.6 2054.2 3203.41 2032.84 3200.11 2006.82C3196.61 1979.21 3185.18 1945.74 3200.11 1935.56C3215.04 1925.37 3231.02 1907.65 3253.05 1892.8C3296.43 1863.55 3383.36 1856.15 3383.36 1856.15C3383.36 1856.15 3506.89 1803.89 3564.57 1790.99C3622.26 1778.1 3673.45 1754.19 3745.79 1752.31C3804.25 1750.78 3880.17 1758.41 3894.43 1770.63C3908.68 1782.85 3939.22 1808.5 3947.36 1813.39C3955.51 1818.28 4043.56 1853.03 4096 1892.8C4126.94 1916.26 4148.69 1927.08 4169.3 1959.99C4190.81 1994.33 4197.81 2059.76 4197.81 2059.76C4197.81 2059.76 4177.23 2095.1 4157.08 2110.66C4122.14 2137.67 4077 2133.74 4047.13 2137.13C4017.27 2140.52 4000.3 2167.67 4000.3 2167.67C4000.3 2167.67 4040.41 2226.1 4067.49 2251.15C4105.24 2286.06 4140.66 2296.22 4159.12 2338.71C4175.28 2375.9 4125.86 2402.5 4159.12 2430.33C4192.38 2458.16 4277.21 2521.96 4277.21 2521.96C4277.21 2521.96 4352.55 2585.75 4381.06 2613.58C4409.56 2641.41 4511.37 2613.58 4511.37 2613.58C4511.37 2613.58 4572.43 2585.2 4609.1 2562.68C4648.41 2538.54 4683.08 2511.1 4704.8 2493.45C4726.52 2475.8 4770.36 2438.48 4771.99 2430.33C4771.99 2430.33 4772.67 2342.78 4771.99 2304.09C4763.17 2277.62 4743.48 2224.68 4735.34 2224.68C4725.16 2224.68 4662.04 2188.03 4645.75 2167.67C4629.46 2147.31 4588.99 2123.07 4566.34 2084.19C4545.71 2048.78 4533.76 1994.6 4533.76 1984.42C4533.76 1984.42 4527.66 1909.09 4566.34 1892.8C4605.03 1876.51 4609.1 1860.22 4609.1 1860.22C4609.1 1860.22 4575.17 1796.42 4592.81 1770.63C4610.46 1744.84 4645.75 1690.81 4645.75 1681.04C4645.75 1668.82 4664.07 1648.46 4684.44 1642.36C4704.8 1636.25 4726.21 1628.33 4753.66 1621.99C4836.66 1602.85 4905.01 1615.21 4971.53 1611.81C5038.72 1621.99 5175.55 1642.36 5185.32 1642.36C5197.54 1642.36 5258.62 1656.61 5274.91 1662.72C5291.2 1668.82 5360.43 1713.62 5370.61 1721.76C5380.79 1729.91 5435.76 1780.81 5443.91 1795.06C5452.05 1809.32 5458.16 1837.82 5460.19 1860.22C5462.23 1882.62 5445.94 1898.91 5460.19 1913.16C5474.45 1927.41 5500.92 1935.56 5517.21 1959.99C5533.49 1984.42 5559.96 2057.72 5559.96 2084.19V2137.13C5559.96 2167.67 5537.57 2190.07 5559.96 2224.68C5582.36 2259.3 5602.72 2269.48 5610.87 2277.62C5619.01 2285.77 5620.81 2281.6 5621.05 2304.09C5621.92 2385.28 5883.05 2499.88 5912.21 2521.96C5938.8 2586.81 6766.69 2578.05 6793.5 2562.68C6830.64 2541.39 6858.66 2607.47 6956.39 2650.23C7054.12 2692.99 7172.22 2754.07 7200.72 2770.36C7223.53 2783.39 6493.86 3429.38 6618.74 3704.94L-156 3752.5L-128.444 2654.68C-139.607 2648.03 -140.219 2641.95 -128 2637L-128.444 2654.68C-29.5318 2713.65 897.718 2818.36 1066.27 2595.26C1118.03 2526.73 1066.27 2465.62 1066.27 2375.36C1066.27 2285.09 1175.19 2213.34 1155 2103.5C1138.12 2011.62 1030 2019.04 1006 1937.59C982 1856.15 995.141 1874.47 1006 1841.89C1006 1841.89 1018 1782.85 1066.27 1782.85Z" fill="#D0782D"/>
<path d="M2892.66 2937.32C2955.22 2942.23 2950.56 2982.04 3012.79 2973.98C3070.78 2966.46 3096.98 2938.75 3151.24 2916.96C3205.92 2895.01 3313.74 2952.19 3360.96 2916.96C3383.05 2900.49 3780.6 2939.34 3796.69 2916.96C3832.29 2867.45 3768.18 2876.24 3768.18 2876.24C3737.11 2907.65 3552.36 2750 3316.17 2609.51C3279.43 2587.66 3263.87 2570.81 3216.4 2521.96C3216.4 2521.96 3210.06 2500.3 3204.18 2487.34C3197.11 2471.75 3196.47 2466.24 3187.89 2452.73C3175.51 2433.21 3165.98 2421.37 3147.17 2407.94C3118.67 2387.58 3090.43 2384.01 3061.65 2359.07C3031.11 2332.6 2984.28 2291.88 2984.28 2291.88C2982.67 2248.71 2979.05 2231.14 2965.96 2190.07C2950.66 2133.65 2928.29 2113.86 2923.2 2086.23C2916.66 2066.98 2917.74 2057.96 2929.31 2045.51C2964.85 2027.92 2980.21 2014.97 2984.28 1990.53C2990.98 1950.33 3017.04 1925.84 3025 1888.73C3041.81 1817.63 3029.07 1785.83 2998.53 1731.95C2968.54 1682.8 2958.09 1647.66 2913.02 1611.82C2875.49 1581.97 2837.3 1569.75 2776.6 1587.38C2581.13 1573.13 2609.64 1642.36 2391.77 1634.21C2391.77 1634.21 2388.88 1641.16 2383.63 1648.47C2380.92 1652.23 2381.06 1656.3 2379.56 1660.68C2377.24 1667.46 2378.79 1671.89 2379.56 1679.01C2381.29 1695.02 2392.45 1691.21 2399.92 1705.48C2407.59 1720.14 2428.6 1737.51 2442.68 1746.2C2522.76 1795.65 2559.74 1767.89 2619.82 1811.36C2639.41 1825.53 2662.58 1839.86 2682.94 1864.29C2692.61 1875.9 2697.33 1883.96 2695.15 1898.91C2691.71 1922.58 2681.42 1928.72 2664.61 1945.74C2650.87 1959.65 2637.39 1959.55 2619.82 1968.14C2592.97 1981.25 2565.23 1977.98 2540.41 1994.61C2529.58 2001.86 2528.16 2008.68 2524.12 2021.07C2521.9 2027.88 2520.05 2034.28 2520.05 2041.44C2520.05 2051.77 2523.35 2059.38 2532.27 2063.83C2552.63 2074.01 2564.89 2058.62 2589.28 2065.87C2601.89 2069.62 2618.91 2066.99 2619.82 2080.12C2620.52 2090.28 2610.69 2093.24 2603.53 2100.48C2579.52 2124.77 2555.61 2123.9 2524.12 2137.13C2508.33 2143.77 2497.36 2143.5 2483.4 2153.42C2468.21 2164.21 2457.79 2172.11 2452.86 2190.07C2449.7 2201.57 2449.51 2209.17 2452.86 2220.61C2457.92 2237.92 2466.02 2250.44 2483.4 2255.23C2491.83 2257.55 2497.05 2255.23 2505.8 2255.23C2523.29 2255.23 2534.23 2249.03 2550.59 2255.23C2571.65 2263.2 2577.97 2278.51 2589.28 2297.99C2596.62 2310.63 2601.53 2318.12 2603.53 2332.6C2606.56 2354.57 2596.84 2366.72 2589.28 2387.58C2578.24 2418 2565.66 2432.23 2550.59 2460.88C2533.04 2494.24 2526.75 2515.05 2505.8 2546.39C2469.22 2601.08 2424.57 2612.04 2387.7 2666.52C2370.35 2692.17 2361.66 2707.48 2349.02 2735.75C2339.67 2756.65 2349.65 2781.6 2328.65 2790.72C2117.41 2882.47 2072 2911.14 2157.62 2908.82C2170.04 2908.48 2169.28 2924.39 2177.98 2933.25C2191.47 2946.99 2199.81 2954.51 2216.67 2963.79C2288.14 3003.16 2540.44 2927.69 2619.82 2908.82C2655.48 2900.34 2687.18 2920.58 2723.66 2916.96C2789.81 2910.41 2826.86 2932.17 2892.66 2937.32Z" fill="url(#paint1_linear_894_2655)"/>
<path d="M5401.15 2607.47L5472.41 2660.41L5627.16 2625.8L5885.74 2507.7L5800.23 2460.87C5766.83 2442.58 5706.57 2403.86 5706.57 2403.86C5706.57 2403.86 5680.68 2386.79 5663.81 2369.25C5657.94 2363.14 5649.39 2356.4 5643.45 2348.89C5637.43 2341.27 5630.95 2335.42 5627.16 2326.49C5624.89 2321.16 5623.09 2318.34 5623.09 2316.31C5623.09 2313.13 5620.04 2305.55 5621.05 2300.02C5621.5 2297.55 5621.49 2292.18 5621.05 2289.84C5619.89 2283.74 5613.69 2280.27 5608.83 2275.59C5600.33 2267.37 5592.23 2263.38 5584.4 2255.23C5574.92 2245.36 5571.34 2240.89 5564.04 2228.76C5559.46 2221.14 5556.2 2216.97 5553.86 2208.39C5552.38 2202.97 5551.74 2199.76 5551.82 2194.14C5551.93 2186.81 5551.8 2183.54 5553.86 2175.82C5555.88 2168.25 5558.74 2163.19 5559.97 2155.46C5560.71 2150.74 5559.97 2148.01 5559.97 2143.24V2096.41C5559.97 2096.41 5560.82 2087.59 5559.97 2078.08C5558.49 2061.76 5554.8 2046.86 5549.78 2031.25C5543.45 2011.57 5538.7 2000.86 5529.42 1982.39C5524.95 1973.48 5522.93 1968.14 5517.21 1959.99C5511.06 1951.23 5506.9 1946.71 5498.88 1939.63C5483.24 1925.82 5465.76 1922.41 5456.12 1907.05C5453.4 1902.71 5454.33 1901.43 5454.33 1901.43C5454.33 1901.43 5460.45 1878.03 5460.44 1862.74C5460.43 1853.96 5459.31 1848.53 5458.16 1839.86C5456.51 1827.4 5454.97 1820.87 5450.02 1809.32C5446.51 1801.15 5446.02 1796.76 5439.84 1788.96C5435.65 1783.67 5425.58 1774.7 5425.58 1774.7C5425.58 1774.7 5434.47 1789.59 5439.83 1805.24C5446.02 1823.3 5448.8 1837.26 5439.83 1854.11C5435.34 1862.57 5431.38 1866.94 5423.55 1872.44C5404.02 1886.13 5386.29 1873.58 5362.46 1872.44C5332.9 1871.01 5287.7 1834.71 5287.13 1864.29C5286.38 1903.03 5100.44 1927.16 5046.86 1881.06C5024.17 1861.54 4973.56 1864.78 4973.56 1864.78C4973.56 1864.78 4995.26 1895.04 5012.25 1901.43C5036.36 1910.48 5095.76 1931.06 5152.74 1939.63C5292.31 1960.6 5315.63 1908.99 5362.46 1913.16C5386.34 1915.29 5400.78 1919.91 5423.55 1927.41C5438.74 1932.42 5445.72 1929.56 5458.16 1939.63C5472.75 1951.44 5482.92 1948.24 5488.7 1966.1C5494.34 1983.5 5488.7 1994.64 5488.7 2012.93C5488.7 2028.04 5493.19 2037.19 5488.7 2051.61C5482.84 2070.48 5468.72 2101.21 5454.33 2114.73C5437.29 2130.75 5426.38 2138.89 5405.46 2149.35C5384.55 2159.81 5371.61 2164.42 5348.45 2167.67C5329.55 2170.33 5318.65 2168.52 5299.58 2167.67C5266.77 2166.21 5245.52 2157.13 5216.1 2157.49C5154.04 2158.26 5129.13 2153.11 5067.23 2149.35C5027.34 2146.93 5005.35 2134.52 4965.42 2133.06C4942.38 2132.22 4929.07 2128.98 4906.37 2133.06C4892.51 2135.55 4877.28 2130.28 4871.76 2143.24C4868.95 2149.82 4837.3 2152.62 4839.18 2159.53C4842.73 2172.55 4884.84 2178.7 4896.19 2186C4917.85 2199.93 4934.97 2186.27 4961.35 2196.18C4995.3 2208.94 5016.73 2231.51 5048.9 2247.08C5085.85 2264.96 5101.26 2279.74 5140.53 2293.91C5184.14 2309.65 5216.53 2311.95 5262.69 2316.31C5277.73 2317.73 5300.05 2325.56 5307.49 2338.71C5314.33 2350.79 5297.1 2339.23 5287.13 2348.89C5268.84 2366.58 5246.9 2343.78 5221.97 2348.89C5192.7 2354.88 5174.47 2360.95 5152.74 2381.46C5142.45 2391.18 5135.24 2396.69 5130.35 2409.97C5124.85 2424.89 5127.73 2435.01 5130.35 2450.69C5134.04 2472.83 5137.88 2486.81 5152.74 2503.63C5172.31 2525.77 5194.08 2524.41 5221.97 2534.17C5252.19 2544.74 5271.03 2544.35 5301.38 2554.53C5327.42 2563.27 5366.53 2581 5366.53 2581L5401.15 2607.47Z" fill="url(#paint2_linear_894_2655)"/>
<path d="M4108.22 1925.37C4105.73 1912.02 4096 1892.8 4096 1892.8C4096 1892.8 4115.45 1905.38 4130.61 1917.23C4137.76 1922.81 4146.62 1931.16 4153.01 1937.59C4157.39 1942 4158.93 1943.84 4163.19 1949.81C4168.98 1957.92 4173.3 1965.18 4177.45 1974.24C4183.72 1987.96 4185.32 1995.88 4189.66 2010.89C4192.67 2021.28 4193.79 2028.76 4195.77 2039.4C4197.23 2047.25 4199.74 2052.01 4197.81 2059.76C4196.25 2065.98 4193.37 2067.94 4189.66 2074.01C4185.52 2080.8 4179.48 2086.23 4173.37 2094.37C4168.6 2100.73 4161.61 2108.21 4155.05 2112.7C4148.86 2116.93 4143.43 2119.51 4136.72 2122.88C4128.4 2127.05 4123.91 2128.79 4114.33 2131.02C4103.24 2133.61 4085.82 2135.09 4085.82 2135.09C4085.82 2135.09 4064.57 2134.94 4051.21 2137.13C4043.97 2138.32 4039.79 2138.74 4032.88 2141.2C4026.18 2143.59 4022.36 2145.18 4016.59 2149.35C4008.83 2154.95 4000.3 2167.67 4000.3 2167.67L4034.92 2214.5C4034.92 2214.5 4050.95 2235.67 4063.42 2247.08C4073.04 2255.88 4093.97 2273.55 4093.97 2273.55C4093.97 2273.55 4122.98 2289.63 4138.76 2308.16C4154.36 2326.48 4172.03 2348.87 4159.12 2375.36C4146.22 2401.84 4140.74 2421.51 4167.27 2436.44C4251.89 2500.52 4293.47 2536.86 4372.91 2605.44C4401.42 2638.01 4448.25 2625.8 4515.44 2611.54C4515.44 2611.54 4510.8 2622.13 4505.26 2627.83C4494.81 2638.6 4486.47 2642.28 4472.68 2648.19C4454.05 2656.19 4441.99 2656.83 4421.78 2658.37C4397.94 2660.2 4385.25 2656.43 4360.7 2654.3C4334.13 2652 4315.65 2644.37 4293.5 2642.09C4261.66 2638.8 4251.08 2636.27 4220.2 2627.83C4197.87 2621.73 4185.02 2619.26 4163.19 2611.54C4138.68 2602.88 4125.7 2595.99 4102.11 2585.07C4073.06 2571.63 4055.81 2565.61 4028.81 2548.42C4008.68 2535.62 3998.11 2527.23 3979.94 2511.77C3964.09 2498.29 3958.89 2486.18 3941.26 2475.12C3924.62 2464.69 3894.43 2456.8 3894.43 2456.8C3894.43 2456.8 3875.1 2447.59 3861.85 2444.58C3840.14 2439.65 3829.27 2440.51 3804.84 2444.58C3797.82 2445.75 3792.08 2442.61 3788.55 2436.44C3785.39 2430.92 3785.72 2425.85 3788.55 2420.15C3791.88 2413.43 3798.06 2413.19 3804.84 2409.97C3818.08 2403.67 3826.9 2403.26 3841.49 2401.82C3853.36 2400.66 3860.1 2401.82 3872.03 2401.82C3880.78 2401.82 3885.7 2402.43 3894.43 2401.82C3904.86 2401.1 3913.44 2406.21 3922.93 2401.82C3930.15 2398.49 3934.51 2394.41 3937.19 2385.54C3938.33 2381.73 3945.53 2375.19 3947.37 2367.21C3950.1 2355.36 3945.75 2351.09 3941.26 2336.67C3938.29 2327.16 3934.37 2322.69 3929.04 2314.27C3922.65 2304.2 3914.49 2301.15 3910.71 2289.84C3906.94 2278.52 3913.4 2270.92 3910.71 2259.3C3906.94 2242.95 3899.29 2235.33 3888.32 2222.65C3875.72 2208.09 3863.91 2205.01 3849.63 2192.11C3838.79 2182.3 3834.29 2175.11 3823.16 2165.64C3810.56 2154.91 3803.03 2149.2 3788.55 2141.2C3776.39 2134.49 3768.78 2132.31 3755.97 2126.95C3737.85 2119.37 3727.46 2115.69 3709.14 2108.62C3692.47 2102.19 3680.42 2103.39 3666.38 2092.34C3656.62 2084.65 3650.79 2079.37 3646.02 2067.9C3643.2 2061.13 3642.43 2056.89 3641.95 2049.58C3641.26 2039.14 3642.91 2029.17 3646.02 2025.14C3649.13 2021.12 3652.07 2017.94 3656.2 2014.96C3669.19 2005.61 3677.38 2000.71 3692.85 1996.64C3712.08 1991.58 3724.88 1990.4 3743.75 1996.64C3756.96 2001 3762.37 2007.81 3774.3 2014.96C3786.22 2022.12 3792.04 2027.84 3804.84 2033.29C3825.65 2042.15 3839.35 2041.16 3861.85 2043.47C3892.7 2046.63 3910.25 2043.47 3941.26 2043.47C3957.16 2043.47 3966.14 2044.85 3981.98 2043.47C4002.17 2041.71 4014.06 2040.82 4032.88 2033.29C4046.43 2027.86 4053.62 2023.5 4065.46 2014.96C4078.69 2005.42 4086.73 1999.89 4096 1986.46C4102.06 1977.68 4105.41 1972.32 4108.22 1962.02C4111.98 1948.22 4110.84 1939.45 4108.22 1925.37Z" fill="url(#paint3_linear_894_2655)"/>
<path d="M1988.63 2361.1C2016.96 2350.62 1956.03 2415.72 1941.8 2416.08H1982.52C1982.52 2416.08 2006.26 2421.5 2021.2 2424.22C2036.57 2427.02 2048.31 2419.84 2059.89 2430.33C2069.56 2439.08 2071.4 2447.83 2074.07 2460.52L2074.14 2460.87C2076.6 2472.54 2071.35 2479.82 2074.14 2491.41C2076.4 2500.75 2078.92 2505.87 2084.32 2513.81C2091.61 2524.51 2098.66 2528.11 2108.76 2536.21C2134.31 2556.68 2157.59 2555.17 2182.06 2576.93C2197.65 2590.8 2211.03 2597.56 2216.67 2617.65C2220.33 2630.66 2216.67 2652.26 2216.67 2652.26C2216.67 2652.26 2279.01 2774.23 2262.5 2786C2233.91 2806.37 2129.42 2707.72 2094.5 2711.31C2066.03 2714.24 2049.83 2711.31 2021.2 2711.31H1941.8C1915.56 2711.31 1900.66 2714.39 1874.6 2711.31C1829.66 2706 1812.07 2676.86 1770.76 2658.37C1752.91 2650.38 1741.02 2648.33 1721.9 2642.08C1691.77 2632.25 1656.89 2643.99 1634.34 2621.72C1615.32 2602.94 1604.94 2584.08 1618.05 2554.53C1624.51 2540 1627.55 2529.65 1626.2 2513.81C1618.46 2422.89 1593.87 2390.26 1516.25 2363.14C1499.03 2351.1 1486.51 2348.88 1469.42 2336.67C1446.46 2320.26 1435.65 2307.82 1417.39 2286.81L1416.48 2285.76C1393.61 2259.46 1380.46 2243.98 1365.58 2212.46C1360.09 2200.85 1355.53 2194.59 1353.36 2181.92C1351.62 2171.73 1350.55 2165.4 1353.36 2155.45C1360.91 2128.76 1392.46 2136.76 1416.48 2122.88C1445.31 2106.21 1463.82 2100.19 1491.82 2082.15C1515.55 2066.86 1528.28 2056.84 1548.83 2037.36C1580.46 2007.37 1590.87 1983.88 1618.05 1949.81C1644.16 1917.09 1653.56 1893.67 1685.25 1866.33C1697.29 1855.94 1704.9 1851.16 1717.82 1841.89C1728.04 1834.56 1732.58 1828.15 1744.29 1823.57C1762.8 1816.32 1775.97 1818.51 1795.2 1823.57C1810.67 1827.64 1815.95 1829.82 1829.81 1837.82C1833.83 1840.14 1836.06 1841.47 1839.99 1843.93C1850.66 1850.59 1858.05 1856.76 1868.5 1866.33C1879.7 1876.59 1886.49 1884.26 1894.97 1896.87C1901.91 1907.2 1904.49 1915.98 1907.18 1927.41C1909.55 1937.47 1909.16 1941.02 1909.22 1949.81C1909.32 1965.89 1905.22 1978.66 1903.11 1994.6C1901.32 2008.09 1901.08 2009.21 1899.04 2021.07C1895.56 2041.22 1894.6 2051.78 1886.82 2074.01C1882.82 2085.44 1879.38 2096.7 1874.6 2108.62L1874.6 2108.64C1866.65 2128.51 1862.39 2139.17 1854.24 2157.49C1847.29 2173.14 1837.95 2196.18 1837.95 2196.18C1837.95 2196.18 1833.45 2206.14 1835.92 2212.46C1837.77 2217.21 1839.49 2217.55 1842.03 2220.61C1852.47 2233.24 1862.49 2238.07 1874.6 2249.11C1889.98 2263.14 1899.51 2273.35 1911.25 2289.84C1917.66 2298.84 1920.46 2307.08 1923.47 2316.31C1926.68 2326.13 1925.51 2332.6 1923.47 2342.78C1922.52 2347.52 1924.87 2373.32 1947.9 2373.32C1951.98 2373.32 1960.29 2371.59 1988.63 2361.1Z" fill="#721903" fill-opacity="0.76"/>
<path d="M1424.08 1114.75C954.661 1110.36 12.6507 1101.57 0 1101.57V627.17C51.8328 619.849 134.238 620.142 210.845 813.417C210.845 813.417 291.318 937.992 412.906 821.324C510.204 697.861 602.937 880.307 615.323 906.19C616.301 908.233 617.172 910.158 618.338 912.1C627.656 927.63 678.685 995.902 807.362 891.606C878.192 834.196 945.225 955.222 1006.31 1018.41C1025.74 1038.5 1051.79 1049.8 1078.3 1058.64C1100.57 1066.07 1124.3 1067.66 1147.59 1064.8C1314.15 1044.33 1400.79 1088.4 1424.08 1114.75Z" fill="#F5FDE6"/>
<path d="M6343.3 870.01C5999.94 866.985 5310.9 860.935 5301.65 860.935V534.237C5339.56 529.195 5399.84 529.397 5455.87 662.496C5455.87 662.496 5514.74 748.285 5603.67 667.941C5673.6 584.398 5740.31 704.25 5751.21 725.357C5752.28 727.448 5753.26 729.486 5754.58 731.434C5762.88 743.686 5800.71 786.156 5892.2 716.341C5943.78 676.983 5992.6 759.406 6037.12 803.074C6051.76 817.437 6071.07 825.311 6090.64 831.453C6106.78 836.519 6123.86 837.613 6140.67 835.657C6262.75 821.449 6326.25 851.842 6343.3 870.01Z" fill="url(#paint4_linear_894_2655)"/>
<path d="M4260 870.01C4603.36 866.985 5292.4 860.935 5301.65 860.935V534.237C5263.74 529.195 5203.46 529.397 5147.43 662.496C5147.43 662.496 5088.57 748.285 4999.63 667.941C4929.7 584.398 4862.99 704.25 4852.1 725.357C4851.02 727.448 4850.04 729.486 4848.72 731.434C4840.42 743.686 4802.59 786.156 4711.1 716.341C4659.53 676.983 4610.7 759.406 4566.18 803.074C4551.54 817.437 4532.24 825.311 4512.67 831.453C4496.52 836.519 4479.44 837.613 4462.63 835.657C4340.55 821.449 4277.06 851.842 4260 870.01Z" fill="url(#paint5_linear_894_2655)"/>
<path d="M6990.98 625.268C6647.62 622.243 5958.58 616.193 5949.33 616.193V289.495C5987.24 284.453 6047.51 284.655 6103.55 417.754C6103.55 417.754 6162.41 503.543 6251.35 423.199C6321.28 339.656 6387.98 459.508 6398.88 480.615C6399.96 482.706 6400.93 484.744 6402.26 486.692C6410.56 498.944 6448.38 541.414 6539.87 471.599C6591.45 432.241 6640.27 514.664 6684.8 558.332C6699.44 572.695 6718.74 580.569 6738.31 586.711C6754.45 591.777 6771.54 592.871 6788.34 590.915C6910.43 576.707 6973.92 607.1 6990.98 625.268Z" fill="#F5FDE6"/>
<path d="M4907.67 625.268C5251.04 622.243 5940.07 616.193 5949.33 616.193V289.495C5911.41 284.453 5851.14 284.655 5795.1 417.754C5795.1 417.754 5736.24 503.543 5647.3 423.199C5577.37 339.656 5510.67 459.508 5499.77 480.615C5498.69 482.706 5497.72 484.744 5496.4 486.692C5488.09 498.944 5450.27 541.414 5358.78 471.599C5307.2 432.241 5258.38 514.664 5213.86 558.332C5199.21 572.695 5179.91 580.569 5160.34 586.711C5144.2 591.777 5127.12 592.871 5110.31 590.915C4988.23 576.707 4924.73 607.1 4907.67 625.268Z" fill="#F5FDE6"/>
<path d="M1970.5 2703.09C1480.22 2750.31 -421.608 2975.9 -444.5 2945V4260.9L9164 4362.57V2773.23C9164 2773.23 8944.53 2731.18 8804.8 2703.09C8555 2652.87 8430.14 2602.85 8169.79 2568.78C7957.87 2541.05 7831.95 2537.06 7615.31 2530.2L7608.54 2529.98C7419.8 2524 7313.39 2529.98 7124.27 2529.98C6931.39 2529.98 6820.62 2514.02 6630.37 2529.98C6516.48 2539.54 6426.18 2547.39 6344.94 2568.78C6263.69 2590.17 6027.43 2662.8 6027.43 2662.8C6027.43 2662.8 5821.99 2712.34 5666.65 2737.42C5373.69 2784.71 5302.03 2738.98 4883.52 2725.48C4697.71 2719.48 4428.79 2758.74 4247.48 2737.42C4063.02 2715.73 3973.69 2674.32 3785.65 2662.8L3784.83 2662.75C3664.73 2655.39 3593.49 2651.03 3474.56 2662.8C3383.23 2671.84 3332.59 2681.43 3250.06 2703.09C3141.58 2731.56 3113.54 2773.58 3003.11 2800.09C2813.93 2845.52 2676.99 2813.95 2467.52 2818C2179.67 2823.57 2256.89 2675.51 1970.5 2703.09Z" fill="#E08333"/>
<path d="M1976.5 2703C1464.98 2744.13 -463.908 2991.98 -465.5 2960L-784 4298.4L9164 4362.57V2773.23C9164 2773.23 8944.53 2731.18 8804.8 2703.09C8555 2652.87 8430.14 2602.85 8169.79 2568.78C7957.87 2541.05 7831.95 2537.06 7615.32 2530.2L7608.54 2529.98C7419.8 2524 7313.39 2529.98 7124.27 2529.98C6931.39 2529.98 6820.62 2514.02 6630.37 2529.98C6516.48 2539.54 6426.18 2547.39 6344.94 2568.78C6263.69 2590.17 6027.43 2662.8 6027.43 2662.8C6027.43 2662.8 5821.99 2712.34 5666.65 2737.42C5373.69 2784.71 5302.03 2738.98 4883.53 2725.48C4697.71 2719.48 4428.79 2758.74 4247.48 2737.42C4063.02 2715.73 3973.69 2674.32 3785.65 2662.8L3784.83 2662.75C3664.73 2655.39 3593.5 2651.03 3474.56 2662.8C3383.23 2671.84 3332.59 2681.43 3250.06 2703.09C3141.58 2731.56 3113.54 2773.58 3003.11 2800.09C2813.93 2845.52 2676.99 2813.95 2467.52 2818C2179.67 2823.57 2263.29 2679.94 1976.5 2703Z" fill="url(#paint6_linear_894_2655)"/>
<path d="M9215.26 3571.81C9300.64 3506.08 9485.04 3629.7 9485.04 3629.7L9527.5 4308.88L3590.75 4117C3590.75 4117 3558.07 4065.84 3536.19 4033.68C3520.45 4010.54 3514.64 3995.01 3495.14 3974.95C3473.19 3952.36 3451.86 3950.31 3429.42 3928.22C3407.19 3906.32 3389.34 3894.22 3382.03 3863.89C3365.4 3794.87 3459.72 3783.75 3518.03 3743.25C3640.08 3658.47 3731.59 3650.78 3874.56 3610.31C3959.84 3586.17 4007.81 3570.89 4095.65 3559.1C4294.07 3532.48 4407.84 3576.6 4606.62 3600.42C4746.21 3617.15 4823.81 3631.64 4962.78 3652.92C5095 3673.16 5168.12 3691.86 5301.07 3706.53C5409.78 3718.52 5471.59 3737.19 5580.43 3726.44C5666.34 3717.96 5712.48 3699.08 5795.56 3675.61C5901.41 3645.71 6070.68 3545.55 6177.5 3571.81C7315.52 3851.51 9137.87 3631.38 9215.26 3571.81Z" fill="url(#paint7_linear_894_2655)"/>
<path d="M2286.93 2850.83C2209.15 2803.87 1978.5 2763.5 1978.5 2763.5L1784.01 4177.52L10022.5 4210.35L9989.67 4031.27C9989.67 4031.27 9815.94 4032.49 9704.63 4031.27C9082.37 4024.46 5271.58 3912.98 4649.3 3916.36C4265.86 3918.44 3779.97 3982.32 3668.83 3968.59C3557.69 3954.86 3493.68 3958.8 3383.79 3937.25C3267.06 3914.36 3091.3 3852.19 3091.3 3852.19C3091.3 3852.19 2775.42 3772.84 2597.33 3670.13C2542.58 3638.55 2476.36 3643.52 2461.53 3582.08C2456.47 3561.12 2464.56 3548.21 2461.53 3526.86C2457.65 3499.49 2453.94 3483.06 2439.14 3459.71C2428.11 3442.29 2411.39 3439.89 2403.33 3420.91C2393.99 3398.91 2398.5 3383.12 2403.33 3359.72C2411.86 3318.4 2447.08 3308.33 2461.53 3268.69C2484.28 3206.27 2473.85 3163.85 2461.53 3098.56C2449.72 3036.02 2441.07 2997.58 2403.33 2946.34C2368.45 2899 2337.26 2881.23 2286.93 2850.83Z" fill="#390F05"/>
<path d="M1568.58 2850.83C1639.57 2785.84 1978.85 2743.36 1988.5 2769L2071.49 4177.52L-2701 4210.35L-2668.17 4031.27C-2668.17 4031.27 -2494.44 4032.49 -2383.13 4031.27C-1760.87 4024.46 -1446.29 3730.92 -824 3734.3C-440.567 3736.38 45.3262 3800.26 156.466 3786.53C267.605 3772.8 331.61 3776.74 441.502 3755.19C558.239 3732.3 734 3670.13 734 3670.13C734 3670.13 1080.08 3772.84 1258.17 3670.13C1312.92 3638.55 1379.14 3643.52 1393.97 3582.08C1399.03 3561.12 1390.95 3548.21 1393.97 3526.86C1397.85 3499.49 1401.56 3483.06 1416.36 3459.71C1427.4 3442.29 1444.12 3439.89 1452.17 3420.9C1461.51 3398.91 1457.01 3383.12 1452.17 3359.72C1443.64 3318.4 1408.42 3308.33 1393.97 3268.69C1371.22 3206.27 1381.65 3163.85 1393.97 3098.56C1405.78 3036.02 1414.43 2997.58 1452.17 2946.34C1487.05 2899 1525.2 2890.54 1568.58 2850.83Z" fill="#390F05"/>
<path d="M5048.27 3004.1C4901.65 2948.27 4836.87 2879.89 4695.26 2812.33C4647.59 2789.58 4621.74 2774.51 4572.16 2756.25C4517.77 2736.2 4486.7 2723.44 4429.15 2716.44C4382.83 2710.81 4356.33 2716.44 4309.67 2716.44H4146.75C4132.61 2716.44 4124.52 2718.58 4110.54 2716.44C4084.28 2712.43 4071.58 2701.46 4048.99 2687.5C4021.66 2670.61 4010.11 2655.83 3985.63 2635.03C3948.24 2603.25 3933.15 2577.75 3891.49 2551.81C3865.47 2535.6 3849.3 2528.99 3820.89 2517.43C3803.49 2510.36 3793.79 2505.99 3775.64 2501.15C3754.19 2495.44 3741.64 2493.97 3719.52 2492.11C3694.86 2490.02 3680.9 2492.11 3656.16 2492.11C3643.43 2492.11 3634.36 2495.77 3621.76 2497.53C3597.31 2500.96 3586.58 2507.32 3565.64 2517.43C3546.21 2526.82 3537.11 2535.33 3518.57 2546.38C3494.1 2560.97 3481.71 2572.07 3455.21 2582.56C3444.82 2586.68 3439.11 2589.93 3428.06 2591.61C3418.28 2593.1 3412.34 2593.93 3402.72 2591.61C3389.75 2588.48 3386.88 2575.88 3373.75 2573.52C3367.49 2572.39 3361.92 2570.65 3355.65 2571.71C3344.74 2573.56 3340.52 2579.42 3332.11 2586.18C3315.59 2599.47 3313.59 2613.74 3299.53 2629.6C3278.28 2653.59 3261.36 2661.96 3237.98 2683.88C3213.18 2707.12 3197.7 2718.89 3176.43 2745.39C3166.61 2757.63 3159.77 2763.85 3152.9 2777.96C3146.43 2791.22 3142.03 2804.49 3142.03 2814.14V2844.9C3142.03 2844.9 3143.11 2864.26 3147.46 2875.65L3147.77 2876.46C3149.85 2881.91 3151.24 2885.53 3154.71 2890.13C3160.42 2897.69 3163.86 2901.46 3172.81 2904.6C3185.64 2909.1 3194.93 2907.82 3209.02 2906.41C3221.3 2905.17 3227.86 2902.34 3239.79 2899.17C3283.69 2887.51 3305.64 2872.87 3348.41 2857.56C3362.51 2852.51 3370.31 2849.35 3384.61 2844.9C3394.44 2841.84 3399.91 2835.43 3409.96 2837.66C3412.14 2838.14 3414.15 2837.61 3415.39 2839.47C3417.14 2842.1 3411.77 2846.71 3411.77 2846.71C3355.23 2913.9 3330.04 2951.18 3299.53 3016.77C3297.12 3023.4 3294.1 3038.48 3294.1 3038.48C3294.1 3038.48 3298.32 3052.35 3299.53 3058.38C3300.74 3064.41 3311.35 3063.88 3319.44 3065.62C3331.88 3068.29 3343.2 3064.62 3355.65 3062C3373.93 3058.16 3380.87 3052.13 3395.47 3043.91C3421.79 3029.09 3458.84 3000.49 3458.84 3000.49C3458.84 3000.49 3489.21 2978.73 3509.52 2966.11C3530.23 2953.25 3543.92 2949.41 3563.83 2935.36C3574.11 2928.1 3579.91 2923.96 3589.18 2915.45C3610.73 2895.67 3614.58 2877.24 3634.43 2855.75C3642.57 2846.94 3646.7 2841.41 3656.16 2834.04C3664.67 2827.41 3669.31 2822.53 3679.69 2819.57C3686.18 2817.71 3695.37 2817.75 3697.51 2817.76L3697.79 2817.76C3699.24 2817.76 3711.05 2819.34 3719.52 2823.19C3729.08 2827.53 3741.24 2839.47 3741.24 2839.47C3741.24 2839.47 3775.19 2874.74 3791.93 2900.98C3804.33 2920.43 3809.86 2932.3 3819.08 2953.45C3826.32 2970.05 3830.02 2979.57 3835.38 2996.87C3841.81 3017.66 3844.07 3029.74 3848.05 3051.14C3851.7 3070.79 3854.19 3081.85 3855.29 3101.8C3855.99 3114.5 3855.29 3134.37 3855.29 3134.37L3852.03 3146.64C3852.03 3146.64 3833.29 3160.32 3821.31 3171.5C3807.64 3184.24 3790.1 3208.17 3790.1 3208.17C3790.1 3208.17 3783.33 3213.09 3778.09 3219.45C3772.67 3226.01 3752.28 3220.74 3729.51 3230.18C3722.21 3233.21 3705.39 3237.11 3697.79 3239.3C3689.61 3241.65 3684.49 3239.83 3676.07 3241.11C3666.75 3242.53 3661.76 3242.76 3652.54 3244.73C3645.48 3246.23 3634.43 3250.15 3634.43 3250.15C3632.02 3250.76 3627.52 3253.49 3623.57 3255.58C3616.89 3259.12 3613.14 3263.51 3609.69 3267.54L3609.09 3268.25C3605.47 3272.47 3590.99 3297.19 3590.99 3297.19C3590.99 3297.19 3579.52 3314.08 3578.31 3317.09C3577.11 3320.11 3575.15 3323.5 3574.69 3327.95C3574.18 3332.92 3576.5 3340.61 3576.5 3340.61C3576.5 3340.61 3578.92 3348.45 3580.12 3351.47C3581.33 3354.48 3574.34 3366.31 3572.58 3377.68C3571.66 3383.66 3572.67 3388.71 3572.58 3395.77C3572.52 3401.06 3574.09 3406.37 3574.39 3412.05C3574.62 3416.29 3576.5 3422.03 3576.5 3423.84L3598.23 3384.03C3597.63 3404.94 3597.79 3416.71 3603.66 3438.31C3604.5 3439.04 3606.5 3447.16 3608.35 3446.56L3618.14 3412.98C3625.15 3420.05 3641.42 3417.61 3652.41 3409.89C3662.92 3402.5 3667.02 3380.42 3667.02 3380.42C3667.02 3380.42 3667.86 3368.97 3670.64 3362.32C3673.83 3354.69 3677.23 3351.04 3683.01 3345.12C3690.33 3337.61 3695.75 3334.63 3705.03 3329.76C3716.91 3323.53 3737.62 3318.9 3737.62 3318.9C3744.26 3317.7 3753.15 3317.73 3762.56 3317.09C3773.92 3316.32 3783.46 3319.51 3790.1 3317.09H3802.95C3802.95 3317.09 3818.68 3314.2 3828.29 3310.78C3847.71 3303.88 3874.55 3287.02 3874.55 3287.02L3891.49 3277.29C3901.15 3271.26 3920.82 3259.2 3922.27 3259.2C3923.72 3259.2 3932.83 3252.85 3943.69 3252.85C3954.55 3252.85 3964.16 3253.88 3976.28 3256.47C3989.03 3259.18 3995.39 3262.05 4007.35 3266.44C4026.97 3273.62 4037.06 3279.86 4056.23 3288.15C4078.04 3297.58 4089.39 3305.54 4112.35 3311.67C4129.64 3316.28 4157.61 3318.9 4157.61 3318.9L4204.68 3324.33C4223.98 3326.14 4245.61 3325.77 4269.54 3328.83C4292.89 3331.82 4305.75 3334.86 4325.66 3339.69C4345.58 3344.51 4374.54 3375.87 4374.54 3375.87C4374.54 3375.87 4430.31 3424.16 4458.12 3461.83C4477.7 3488.35 4490.29 3500.1 4504.88 3529.65C4514.41 3548.95 4522.08 3562.16 4523.29 3584.85C4524.01 3598.33 4528.86 3609.34 4519.67 3619.23C4514.29 3625.02 4508.76 3625.01 4501.56 3628.27C4462.66 3645.89 4438.33 3643.18 4398.21 3657.82C4386 3662.28 4377.64 3662.43 4367.44 3670.48C4358.34 3677.66 4356.58 3684.96 4349.34 3694C4337.11 3709.26 4327.88 3712.95 4313.29 3725.97C4296.91 3740.59 4282.61 3742.11 4266.23 3756.73C4251.64 3769.74 4236.66 3786.28 4233.64 3794.72C4230.62 3803.16 4226.18 3811.93 4224.59 3823.67C4223.31 3833.11 4223.44 3838.61 4224.59 3848.07C4225.41 3854.89 4227 3863.47 4228.21 3865.28C4228.21 3865.28 4236.16 3839.69 4249.93 3834.52C4258.54 3831.29 4266.23 3829.81 4266.23 3829.81C4259.21 3852.78 4272.76 3864.64 4273.23 3886.99L4326.28 3829.81L4326.28 3829.8C4321.69 3855.89 4322.02 3870.85 4329.59 3886.99C4329.59 3886.99 4349.86 3849.1 4370.92 3834.52C4379.5 3828.58 4385.69 3828.41 4394.76 3823.67C4430.68 3804.87 4436.35 3777.23 4467.23 3752.2C4484.06 3738.57 4492.56 3728.91 4512.12 3719.62C4533.19 3709.61 4570.05 3705.14 4570.05 3705.14C4570.05 3705.14 4608 3701.83 4626.17 3696.1C4639.82 3691.79 4648.88 3689.18 4656.95 3680.74C4662.23 3675.21 4661.23 3671.04 4662.68 3664.46C4665.27 3652.73 4662.68 3645.71 4662.68 3633.7C4662.68 3625.22 4655.14 3612.87 4655.14 3612.87C4655.14 3612.87 4734.53 3648.26 4780.05 3678.01C4808.45 3696.57 4822.98 3708.32 4847.33 3731.4C4868.76 3751.71 4883.19 3764.48 4897.72 3790.17C4909.15 3810.41 4912.22 3821.09 4917.93 3842.64C4923.97 3865.44 4930.49 3881.4 4923.06 3904.15C4920.61 3911.66 4916.79 3917.63 4912.2 3924.05C4898.78 3942.82 4883.87 3939.3 4865.43 3948.5C4849.3 3956.54 4828.62 3964.78 4823.8 3968.4C4818.97 3972.02 4812.22 3976.21 4805.39 3981.95C4797.99 3988.17 4792.42 3994.93 4787.59 3999.16H4818.36C4811.93 4004.14 4808.43 4007.14 4805.69 4019.06L4847.33 4013.63C4834.78 4024.14 4829.88 4031 4827.42 4046.2C4827.42 4046.2 4867.99 4033.09 4895.91 4030.8C4919.86 4028.83 4934.75 4035.32 4959.57 4033.53C4970.94 4032.71 4978.35 4035.05 4988.53 4029.91C5000.17 4024.04 5002.99 4015.4 5010.26 4004.58C5025.7 3981.57 5019.67 3961.49 5033.79 3937.64C5037.68 3931.07 5038.25 3925.54 5044.65 3921.36C5056.15 3913.87 5079.05 3928.6 5079.05 3928.6C5079.05 3928.6 5072.49 3901.75 5066.37 3885.18C5059.37 3866.19 5054.59 3855.76 5044.65 3838.14C5030.48 3813.03 5016.24 3803.04 5001.2 3778.44C4994.44 3767.37 4990.66 3761.12 4984.91 3749.49C4978.46 3736.43 4974.6 3729.07 4970.43 3715.11C4964.7 3695.97 4971.69 3682.55 4963.19 3664.46C4957.6 3652.56 4952.4 3646.78 4943.27 3637.32C4926.53 3619.96 4907.79 3620.35 4888.66 3605.64C4867.67 3589.48 4858.09 3578.25 4841.9 3557.72C4828.3 3540.48 4819.3 3531.04 4811.12 3510.68C4805.95 3497.79 4802.07 3476.3 4802.07 3476.3C4802.07 3476.3 4817.62 3474.69 4827.41 3472.68C4869.23 3464.11 4879 3439.23 4915.82 3426.53C4935.94 3419.58 4968.62 3412.98 4968.62 3412.98C4968.62 3412.98 5006.04 3404.8 5030.17 3400.32C5066.05 3393.64 5086.5 3391.86 5122.49 3385.84C5162.16 3379.22 5184.34 3375.14 5223.87 3367.75C5319.68 3349.85 5332.46 3347.91 5468.26 3317.09C5604.06 3286.28 5671.01 3255.58 5812.21 3233.87C5865.43 3225.69 5883.34 3214.32 5937.18 3213.47C5954.15 3213.2 5963.75 3211.75 5980.63 3213.47C5997.87 3215.23 6017.44 3222.78 6033.07 3230.25C6056.07 3241.25 6065.44 3249.58 6080.45 3270.18C6094.23 3289.1 6105.44 3327.1 6107.29 3329.76C6109.07 3332.32 6111.47 3264.26 6100.05 3230.25C6088.63 3196.24 6085.51 3178.42 6059.92 3153.34C6041.59 3135.38 6032.28 3130.18 6005.92 3114.46C5983.91 3101.34 5971.02 3097.39 5946.18 3091.1C5925.51 3085.87 5913.12 3083.51 5891.87 3081.9C5825.6 3076.89 5721.7 3081.9 5721.7 3081.9H5392.23C5392.23 3081.9 5273.97 3071.67 5200.34 3052.95C5139.14 3037.4 5106.56 3026.3 5048.27 3004.1Z" fill="url(#paint8_linear_894_2655)"/>
</g>
<defs>
<linearGradient id="paint0_linear_894_2655" x1="3844.5" y1="0" x2="3844.5" y2="4136" gradientUnits="userSpaceOnUse">
<stop stop-color="#D1ECF5"/>
<stop offset="0.338523" stop-color="#DCFDE9"/>
</linearGradient>
<linearGradient id="paint1_linear_894_2655" x1="2746.06" y1="1402.1" x2="3568.65" y2="3776.2" gradientUnits="userSpaceOnUse">
<stop stop-color="#721903"/>
<stop offset="1" stop-color="#721903" stop-opacity="0"/>
</linearGradient>
<linearGradient id="paint2_linear_894_2655" x1="5378.75" y1="1919.27" x2="5378.75" y2="2815.16" gradientUnits="userSpaceOnUse">
<stop stop-color="#721A03"/>
<stop offset="1" stop-color="#721903" stop-opacity="0"/>
</linearGradient>
<linearGradient id="paint3_linear_894_2655" x1="4079.71" y1="1892.8" x2="4079.71" y2="3226.45" gradientUnits="userSpaceOnUse">
<stop stop-color="#721A03"/>
<stop offset="1" stop-color="#721A03" stop-opacity="0"/>
</linearGradient>
<linearGradient id="paint4_linear_894_2655" x1="5301.65" y1="532.742" x2="5301.65" y2="1517.68" gradientUnits="userSpaceOnUse">
<stop stop-color="#F5FDE6"/>
<stop offset="1" stop-color="#F5FDE6" stop-opacity="0"/>
</linearGradient>
<linearGradient id="paint5_linear_894_2655" x1="5301.65" y1="532.742" x2="5301.65" y2="1517.68" gradientUnits="userSpaceOnUse">
<stop stop-color="#F5FDE6"/>
<stop offset="1" stop-color="#F5FDE6" stop-opacity="0"/>
</linearGradient>
<linearGradient id="paint6_linear_894_2655" x1="4797.5" y1="2522.89" x2="4815.53" y2="3606.84" gradientUnits="userSpaceOnUse">
<stop stop-color="#721903" stop-opacity="0.38"/>
<stop offset="1" stop-color="#E08333"/>
</linearGradient>
<linearGradient id="paint7_linear_894_2655" x1="5233.84" y1="3940.06" x2="3026.96" y2="3559.19" gradientUnits="userSpaceOnUse">
<stop stop-color="#F19F58"/>
<stop offset="1" stop-color="#F19F58" stop-opacity="0"/>
</linearGradient>
<linearGradient id="paint8_linear_894_2655" x1="4625.42" y1="1291.03" x2="4659.31" y2="2852.02" gradientUnits="userSpaceOnUse">
<stop/>
<stop offset="1" stop-color="#390F05"/>
</linearGradient>
<clipPath id="clip0_894_2655">
<rect width="7689" height="4136" fill="white"/>
</clipPath>
</defs>
</svg>
