<svg width="7689" height="4136" viewBox="0 0 7689 4136" fill="none" xmlns="http://www.w3.org/2000/svg">
<g clip-path="url(#clip0_893_2489)">
<rect width="7689" height="4136" fill="url(#paint0_linear_893_2489)"/>
<path d="M7237.87 1357.48C6602.62 1351.54 5327.83 1339.65 5310.71 1339.65V697.656C5380.85 687.749 5492.37 688.145 5596.04 949.698C5596.04 949.698 5704.94 1118.28 5869.48 960.397C6001.15 793.319 6126.64 1040.22 6143.4 1075.24C6144.73 1078.01 6145.91 1080.61 6147.48 1083.24C6160.09 1104.26 6229.15 1196.65 6403.28 1055.51C6499.14 977.817 6589.85 1141.6 6672.52 1227.1C6698.81 1254.29 6734.06 1269.59 6769.94 1281.55C6800.07 1291.6 6832.18 1293.76 6863.7 1289.89C7089.1 1262.18 7206.35 1321.82 7237.87 1357.48Z" fill="#F5FDE6"/>
<path d="M2140.7 512.961C1676.04 508.867 743.59 500.68 731.067 500.68V58.5696C782.374 51.7469 863.943 52.0198 939.773 232.139C939.773 232.139 1019.43 348.234 1139.78 239.507C1234.42 126.451 1324.69 288.643 1339.43 317.207C1340.89 320.036 1342.22 322.794 1344 325.43C1355.24 342.011 1406.43 399.484 1530.24 305.005C1600.03 251.744 1666.1 363.283 1726.36 422.378C1746.17 441.815 1772.29 452.471 1798.77 460.782C1820.62 467.639 1843.74 469.119 1866.48 466.472C2031.69 447.244 2117.62 488.374 2140.7 512.961Z" fill="#F5FDE6"/>
<path d="M-662.408 512.961C-197.748 508.867 734.702 500.68 747.225 500.68V58.5696C695.918 51.7469 614.349 52.0198 538.519 232.139C538.519 232.139 458.863 348.234 338.509 239.507C243.875 126.451 153.603 288.643 138.858 317.207C137.397 320.036 136.077 322.794 134.29 325.43C123.053 342.011 71.8646 399.484 -51.9442 305.005C-121.741 251.744 -187.813 363.283 -248.063 422.378C-267.879 441.815 -293.999 452.471 -320.483 460.782C-342.33 467.639 -365.446 469.119 -388.191 466.472C-553.402 447.244 -639.325 488.374 -662.408 512.961Z" fill="#F5FDE6"/>
<path d="M2617.3 1395.59C3252.55 1389.65 5391.06 1339.65 5408.18 1339.65V697.656C5338.03 687.749 5226.52 688.145 5122.85 949.698C5122.85 949.698 5013.95 1118.28 4849.41 960.397C4717.73 793.319 4592.24 1040.22 4575.48 1075.24C4574.16 1078.01 4572.98 1080.61 4571.4 1083.24C4558.79 1104.26 4489.73 1196.65 4315.6 1055.51C4269.05 1017.78 4223.72 1037 4179.93 1076.54C4053.88 1190.36 3914.77 1270.09 3745.4 1282.64L3087.89 1331.36C3055.65 1333.75 3023.25 1331.89 2991.15 1327.96C2765.97 1300.35 2648.81 1359.94 2617.3 1395.59Z" fill="#F5FDE6"/>
<path d="M2673.86 694.719C2337.01 691.748 1661.05 685.807 1651.97 685.807V364.983C1689.17 360.032 1748.3 360.231 1803.27 490.936C1803.27 490.936 1861.02 575.182 1948.26 496.283C2015.67 415.67 2080.03 527.904 2092.39 551.498C2093.87 554.317 2095.21 557.138 2097.07 559.719C2106.59 572.929 2144.09 610.44 2231.31 543.813C2281.92 505.16 2329.82 586.115 2373.5 628.996C2387.85 643.091 2406.79 650.823 2425.98 656.853C2441.82 661.829 2458.58 662.904 2475.08 660.983C2594.84 647.032 2657.12 676.877 2673.86 694.719Z" fill="url(#paint1_linear_893_2489)"/>
<path d="M638.168 694.719C975.013 691.748 1650.97 685.807 1660.05 685.807V364.983C1622.86 360.032 1563.73 360.231 1508.75 490.936C1508.75 490.936 1451.01 575.182 1363.76 496.283C1296.35 415.67 1232 527.904 1219.64 551.498C1218.16 554.317 1216.82 557.138 1214.96 559.719C1205.44 572.929 1167.93 610.44 1080.71 543.813C1030.11 505.16 982.208 586.115 938.529 628.996C924.17 643.091 905.24 650.823 886.044 656.853C870.203 661.829 853.442 662.904 836.95 660.983C717.188 647.032 654.901 676.877 638.168 694.719Z" fill="url(#paint2_linear_893_2489)"/>
<path d="M2728.47 4064.91L2589.87 3935.82L2515.49 3996.06L2389.5 3950.62L2322.8 3892.79L2160.53 3776.6L1781.9 4052L1683.86 4017.58L1325.5 2525.08L1124.05 2376.62L1080.79 2433.93L886.603 2347.89L789.508 2357.28L734.201 2249.33L646.938 2222.73L508.055 2239.94L357.552 2114.28L242.754 1956.82L177.438 1936.66L125.976 1828.33L46.0559 1893.12L23.2617 1978.64L-159.095 2140.51L-223.879 2177.16L-322.256 2154.26L-479.058 1817.98L-515.073 1792.07L-558.918 1855.85L-634.08 1786.09L-649.739 1698.38L-701.413 1610.68L-751.521 1660.51L-881.489 1628.62L-969.178 1568.82L-1017.72 1517L-1065.81 1596.7L-1078.5 1663.08L-1216.62 1767.14L-1277.22 1871.19L-1394.2 2121.29L-1450.58 2069.26L-1504.64 2080.27L-1573.65 2140.55L-1641.3 2166.38L-1920.03 2450.57L-2086.25 2511.82L-2309.5 2322.37L-2374.11 2450.57L-2541 2709.01V4668.89H2682.51L2812 4313.5L2728.47 4064.91Z" fill="url(#paint3_linear_893_2489)"/>
<g filter="url(#filter0_f_893_2489)">
<circle cx="4894.18" cy="2523.87" r="571.411" fill="#FEFFC0"/>
</g>
<circle cx="4899.32" cy="2579.8" r="279.424" transform="rotate(44.4645 4899.32 2579.8)" fill="url(#paint4_linear_893_2489)" fill-opacity="0.65"/>
<path d="M6397.91 2321.36L6259.3 2192.26L6184.93 2252.51L6073.37 2149.23H5992.23L5829.96 2033.04L5451.33 2308.45L5353.3 2274.02L4902.3 2637.65L4700.84 2489.18L4657.59 2546.5L4463.4 2460.45L4366.3 2469.84L4310.99 2361.89L4223.73 2335.29L4084.85 2352.5L3934.35 2226.85L3819.55 2069.38L3754.23 2049.23L3702.77 1940.89L3622.85 2005.68L3600.06 2091.2L3417.7 2253.08L3352.91 2289.73L3254.54 2266.82L3097.74 1930.54L3061.72 1904.63L3017.88 1968.41L2942.71 1898.65L2927.05 1810.95L2875.38 1723.25L2825.27 1773.08L2695.3 1741.18L2607.62 1681.39L2559.07 1629.56L2510.98 1709.27L2498.3 1775.65L2360.18 1879.7L2299.57 1983.76L2182.59 2233.85L2126.21 2181.83L2072.15 2192.83L2003.15 2253.11L1935.5 2278.95L1656.77 2563.13L1490.54 2624.38L1267.3 2434.93L1202.68 2563.13L1035.79 2821.58V4781.45H6259.3L6481.44 2569.94L6397.91 2321.36Z" fill="url(#paint5_linear_893_2489)"/>
<path d="M5578.53 2257.8L5717.13 2128.7L5791.51 2188.94L5917.5 2143.5L5984.2 2085.67L6146.47 1969.48L6525.1 2244.89L6623.14 2210.46L7074.14 2574.08L7275.6 2425.62L7318.85 2482.93L7513.04 2396.89L7610.13 2406.28L7665.44 2298.33L7752.7 2271.73L7891.59 2288.94L8042.09 2163.28L8156.89 2005.82L8222.2 1985.66L8273.67 1877.33L8353.59 1942.12L8376.38 2027.64L8558.74 2189.51L8623.52 2226.16L8721.9 2203.26L8878.7 1866.98L8914.71 1841.07L8958.56 1904.85L9033.72 1835.09L9049.38 1747.38L9101.05 1659.68L9151.16 1709.51L9281.13 1677.62L9368.82 1617.82L9417.36 1566L9465.45 1645.7L9478.14 1712.08L9616.26 1816.14L9676.86 1920.19L9793.85 2170.29L9850.22 2118.26L9904.28 2129.27L9973.29 2189.55L10040.9 2215.38L10319.7 2499.57L10485.9 2560.82L10709.1 2371.37L10773.8 2499.57L10940.6 2758.01V4717.89H5717.13L5495 2506.38L5578.53 2257.8Z" fill="url(#paint6_linear_893_2489)"/>
<path d="M8732 4670.17V3311.5C8422.28 3287.84 6004.56 2927.65 5726.81 2910.99C4713.21 2833.43 1814.54 2855.31 -522.5 3197.2V4670.17H8732Z" fill="url(#paint7_linear_893_2489)"/>
<path d="M4785.34 2873.97H4645.67C4099.7 3310.32 3455.85 4154.89 2574.07 5424.46L3433.91 5357.34C3976.89 4162.7 4268.52 3552.68 4785.34 2873.97Z" fill="url(#paint8_linear_893_2489)"/>
<path d="M4720.04 5027.54C4789.86 4185.56 5073.77 2939.62 5120.93 2879.75L4981.26 2876.13C4528.7 3717.42 4411.21 4157.96 4193.98 5027.54H4720.04Z" fill="url(#paint9_linear_893_2489)"/>
<path d="M4166.77 2885.2L4364.49 2877.94C3486.47 3424.68 2996.6 3851.65 2084.29 4916.88H1258.92C2548.13 3798.05 3380.12 3215.75 4166.77 2885.2Z" fill="url(#paint10_linear_893_2489)"/>
<path d="M5209.82 5236.15C5195.66 4405.53 5339.53 3937.29 5298.71 2885.2L5414.8 2890.64C5586.09 3603.51 5582.56 4097.82 5657.88 5156.33L5209.82 5236.15Z" fill="url(#paint11_linear_893_2489)"/>
<path d="M5725 2912.4L5608.9 2903.33C5888.4 3691.7 5943.04 4107.1 5980.77 4964.04C5980.77 4964.04 6128.21 5033.16 6247.43 4964.04C6366.65 4894.92 6230.49 3711.37 5725 2912.4Z" fill="url(#paint12_linear_893_2489)"/>
<path d="M6060.59 2932.36L5951.75 2925.11C6365.79 3556.21 6518.64 3944.08 6711.82 4766.32L7012.94 4662.92C6680.86 3673.29 6423.97 3245.91 6060.59 2932.36Z" fill="url(#paint13_linear_893_2489)"/>
<path d="M6462 3003L6331 2986.08C6861.27 3523.24 7087.54 3873.39 7438.93 4641.45L7713.78 4480.75C7193.23 3575.95 6880.04 3238.81 6462 3003Z" fill="url(#paint14_linear_893_2489)"/>
<path d="M6980.5 3077.5L6759.5 3044.5C7339.32 3416.05 7840.23 3862.03 8032.5 4604L8469.5 4428C7859.5 3436.53 7276.36 3215 6980.5 3077.5Z" fill="url(#paint15_linear_893_2489)"/>
<path d="M3800.96 2879.67H3570.5C2605.96 3078.87 1693.63 3554.53 0 4392.63L105.212 5016.65C1328.76 4137.16 2138.31 3548.21 3800.96 2879.67Z" fill="url(#paint16_linear_893_2489)"/>
<path d="M2574.07 2432.47V3662.69H1715.46V2432.47H2574.07Z" fill="#8B2424"/>
<path d="M1604.67 2176.27H2384.81V1783.9H1604.67V2176.27Z" fill="#8B2424"/>
<path d="M2384.81 2176.27L2574.07 2432.47H1720.07L1606.98 2176.27H2384.81Z" fill="#564C4C"/>
<path d="M2274.02 1610.79L2384.84 1783.9H1606.98L1526.19 1610.79H2274.02Z" fill="#564C4C"/>
<path d="M1606.98 1783.9L1526.19 1610.79L1461.56 1783.9V2194.42L1362.32 2450.62V3684.83L1720.07 3662.7V2432.48L1606.98 2176.28V1783.9Z" fill="#3F0909"/>
<path d="M1525.58 1610.79L1460.27 1783.12V1795.82L1525.58 1625.3L1607.21 1794V1783.12L1525.58 1610.79Z" fill="#D9D9D9"/>
<path d="M1607.21 1794.01V1783.12H2387.23V1794.01H1607.21Z" fill="#D9D9D9"/>
<path d="M2574.07 2456.12L1719.68 2452.49L1607.21 2196.71V2176.76L1719.68 2432.53H2574.07V2456.12Z" fill="#D9D9D9"/>
<rect x="1910.15" y="1930.05" width="163.26" height="163.26" fill="#D9D9D9"/>
<rect x="1924.66" y="1944.57" width="134.236" height="134.236" fill="#240404"/>
<path d="M2058.89 1610.79V1482C2078.11 1471.04 2089.24 1470.46 2109.69 1482V1610.79H2058.89Z" fill="#564C4C"/>
<path d="M7574 4192.06C5836.42 3760.79 -205.001 3425 -290.285 3613.25C-375.568 3801.5 -205.001 4446.5 -205.001 4446.5L7574 4485.5V4192.06Z" fill="url(#paint17_linear_893_2489)"/>
<path d="M4021.65 3323.84L3495.67 3325.66C3337.19 3427.11 3334.66 3789.25 3495.67 3915.21L4023.46 3929.72C3850.03 3825.69 3844.29 3458.7 4021.65 3323.84Z" fill="url(#paint18_linear_893_2489)"/>
<ellipse cx="4019.83" cy="3626.78" rx="128.794" ry="302.939" fill="#EBC64D"/>
<path d="M4146.61 3626.78C4146.61 3695.2 4134.86 3757.05 4115.95 3801.72C4106.49 3824.06 4095.28 3842.01 4082.94 3854.34C4070.6 3866.67 4057.25 3873.28 4043.41 3873.28C4029.58 3873.28 4016.22 3866.67 4003.89 3854.34C3991.54 3842.01 3980.33 3824.06 3970.88 3801.72C3951.97 3757.05 3940.22 3695.2 3940.22 3626.78C3940.22 3558.36 3951.97 3496.51 3970.88 3451.84C3980.33 3429.5 3991.54 3411.55 4003.89 3399.22C4016.22 3386.9 4029.58 3380.28 4043.41 3380.28C4057.25 3380.28 4070.6 3386.9 4082.94 3399.22C4095.28 3411.55 4106.49 3429.5 4115.95 3451.84C4134.86 3496.51 4146.61 3558.36 4146.61 3626.78Z" stroke="#E09846" stroke-width="4.03906"/>
<path d="M4146.61 3628.6C4146.61 3686.5 4136.69 3738.83 4120.73 3776.6C4112.75 3795.49 4103.3 3810.65 4092.91 3821.06C4082.53 3831.45 4071.32 3837 4059.74 3837C4048.16 3837 4036.95 3831.45 4026.57 3821.06C4016.18 3810.65 4006.73 3795.49 3998.75 3776.6C3982.79 3738.83 3972.87 3686.5 3972.87 3628.6C3972.87 3570.69 3982.79 3518.36 3998.75 3480.59C4006.73 3461.7 4016.18 3446.54 4026.57 3436.13C4036.95 3425.74 4048.16 3420.19 4059.74 3420.19C4071.32 3420.19 4082.53 3425.74 4092.91 3436.13C4103.3 3446.54 4112.75 3461.7 4120.73 3480.59C4136.69 3518.36 4146.61 3570.69 4146.61 3628.6Z" stroke="#E09846" stroke-width="4.03906"/>
<path d="M4146.61 3632.22C4146.61 3678.11 4138.72 3719.55 4126.05 3749.44C4119.71 3764.4 4112.21 3776.37 4103.99 3784.57C4095.78 3792.76 4086.96 3797.09 4077.88 3797.09C4068.8 3797.09 4059.98 3792.76 4051.77 3784.57C4043.55 3776.37 4036.05 3764.4 4029.71 3749.44C4017.04 3719.55 4009.15 3678.11 4009.15 3632.22C4009.15 3586.34 4017.04 3544.9 4029.71 3515C4036.05 3500.05 4043.55 3488.08 4051.77 3479.88C4059.98 3471.69 4068.8 3467.36 4077.88 3467.36C4086.96 3467.36 4095.78 3471.69 4103.99 3479.88C4112.21 3488.08 4119.71 3500.05 4126.05 3515C4138.72 3544.9 4146.61 3586.34 4146.61 3632.22Z" stroke="#E09846" stroke-width="4.03906"/>
<path d="M4135.72 3632.22C4135.72 3667.08 4129.66 3698.55 4119.95 3721.22C4115.09 3732.56 4109.35 3741.61 4103.09 3747.79C4096.83 3753.96 4090.15 3757.19 4083.32 3757.19C4076.49 3757.19 4069.81 3753.96 4063.56 3747.79C4057.29 3741.61 4051.56 3732.56 4046.7 3721.22C4036.98 3698.55 4030.92 3667.08 4030.92 3632.22C4030.92 3597.37 4036.98 3565.9 4046.7 3543.23C4051.56 3531.89 4057.29 3522.84 4063.56 3516.66C4069.81 3510.49 4076.49 3507.26 4083.32 3507.26C4090.15 3507.26 4096.83 3510.49 4103.09 3516.66C4109.35 3522.84 4115.09 3531.89 4119.95 3543.23C4129.66 3565.9 4135.72 3597.37 4135.72 3632.22Z" stroke="#E09846" stroke-width="4.03906"/>
<path d="M4177.17 2819.55L4038.68 2820.03C3996.95 2846.76 3996.29 2942.17 4038.68 2975.36L4177.65 2979.18C4131.99 2951.77 4130.47 2855.08 4177.17 2819.55Z" fill="url(#paint19_linear_893_2489)"/>
<ellipse cx="4175.84" cy="2899.37" rx="34.4661" ry="79.8162" fill="#EBC64D"/>
<path d="M4208.79 2899.37C4208.79 2918.25 4205.56 2935.27 4200.41 2947.52C4197.83 2953.65 4194.79 2958.51 4191.5 2961.81C4188.22 2965.11 4184.76 2966.78 4181.28 2966.78C4177.79 2966.78 4174.34 2965.11 4171.05 2961.81C4167.76 2958.51 4164.73 2953.65 4162.15 2947.52C4156.99 2935.27 4153.77 2918.25 4153.77 2899.37C4153.77 2880.48 4156.99 2863.46 4162.15 2851.21C4164.73 2845.09 4167.76 2840.23 4171.05 2836.92C4174.34 2833.62 4177.79 2831.95 4181.28 2831.95C4184.76 2831.95 4188.22 2833.62 4191.5 2836.92C4194.79 2840.23 4197.83 2845.09 4200.41 2851.21C4205.56 2863.46 4208.79 2880.48 4208.79 2899.37Z" stroke="#E09846" stroke-width="3.0293"/>
<path d="M4208.79 2899.37C4208.79 2915.25 4206.17 2929.56 4201.99 2939.84C4199.9 2944.99 4197.45 2949.05 4194.81 2951.8C4192.17 2954.55 4189.43 2955.9 4186.72 2955.9C4184.01 2955.9 4181.27 2954.55 4178.63 2951.8C4175.99 2949.05 4173.54 2944.99 4171.45 2939.84C4167.27 2929.56 4164.65 2915.25 4164.65 2899.37C4164.65 2883.48 4167.27 2869.17 4171.45 2858.89C4173.54 2853.75 4175.99 2849.68 4178.63 2846.93C4181.27 2844.18 4184.01 2842.83 4186.72 2842.83C4189.43 2842.83 4192.17 2844.18 4194.81 2846.93C4197.45 2849.68 4199.9 2853.75 4201.99 2858.89C4206.17 2869.17 4208.79 2883.48 4208.79 2899.37Z" stroke="#E09846" stroke-width="3.0293"/>
<path d="M4208.79 2899.37C4208.79 2912.24 4206.58 2923.82 4203.06 2932.13C4201.3 2936.28 4199.25 2939.55 4197.04 2941.75C4194.85 2943.95 4192.58 2945.02 4190.35 2945.02C4188.11 2945.02 4185.85 2943.95 4183.65 2941.75C4181.45 2939.55 4179.39 2936.28 4177.63 2932.13C4174.12 2923.82 4171.91 2912.24 4171.91 2899.37C4171.91 2886.49 4174.12 2874.91 4177.63 2866.61C4179.39 2862.45 4181.45 2859.18 4183.65 2856.98C4185.85 2854.78 4188.11 2853.72 4190.35 2853.72C4192.58 2853.72 4194.85 2854.78 4197.04 2856.98C4199.25 2859.18 4201.3 2862.45 4203.06 2866.61C4206.58 2874.91 4208.79 2886.49 4208.79 2899.37Z" stroke="#E09846" stroke-width="3.0293"/>
<path d="M4205.16 2899.37C4205.16 2909.24 4203.56 2918.11 4201.02 2924.46C4199.75 2927.63 4198.27 2930.1 4196.71 2931.75C4195.15 2933.4 4193.61 2934.13 4192.16 2934.13C4190.71 2934.13 4189.17 2933.4 4187.61 2931.75C4186.05 2930.1 4184.58 2927.63 4183.31 2924.46C4180.77 2918.11 4179.16 2909.24 4179.16 2899.37C4179.16 2889.49 4180.77 2880.62 4183.31 2874.27C4184.58 2871.1 4186.05 2868.63 4187.61 2866.98C4189.17 2865.33 4190.71 2864.6 4192.16 2864.6C4193.61 2864.6 4195.15 2865.33 4196.71 2866.98C4198.27 2868.63 4199.75 2871.1 4201.02 2874.27C4203.56 2880.62 4205.16 2889.49 4205.16 2899.37Z" stroke="#E09846" stroke-width="3.0293"/>
<path d="M5977.46 2848.57L6068.8 2848.89C6096.33 2866.51 6096.77 2929.39 6068.8 2951.27L5977.14 2953.79C6007.26 2935.72 6008.26 2871.99 5977.46 2848.57Z" fill="url(#paint20_linear_893_2489)"/>
<ellipse rx="23.5821" ry="52.6061" transform="matrix(-1 0 0 1 5978.96 2901.18)" fill="#EBC64D"/>
<path d="M5022.31 2986.44L4830.78 2987.1C4766.43 3005 4751.47 3144.13 4814.37 3202.45L5021.16 3200.49C4985.9 3142.34 4983.35 3012.57 5022.31 2986.44Z" fill="url(#paint21_linear_893_2489)"/>
<path d="M5055.63 3097.09C5055.63 3158.21 5041.01 3200.49 5022.98 3200.49C5004.94 3200.49 4990.32 3158.21 4990.32 3097.09C4990.32 3035.98 5004.94 2986.44 5022.98 2986.44C5041.01 2986.44 5055.63 3035.98 5055.63 3097.09Z" fill="#EBC64D"/>
</g>
<defs>
<filter id="filter0_f_893_2489" x="3902.71" y="1532.39" width="1982.95" height="1982.95" filterUnits="userSpaceOnUse" color-interpolation-filters="sRGB">
<feFlood flood-opacity="0" result="BackgroundImageFix"/>
<feBlend mode="normal" in="SourceGraphic" in2="BackgroundImageFix" result="shape"/>
<feGaussianBlur stdDeviation="210.031" result="effect1_foregroundBlur_893_2489"/>
</filter>
<linearGradient id="paint0_linear_893_2489" x1="3844.5" y1="0" x2="3844.5" y2="4136" gradientUnits="userSpaceOnUse">
<stop stop-color="#D1F5E0"/>
<stop offset="0.338523" stop-color="#F5FDDC"/>
</linearGradient>
<linearGradient id="paint1_linear_893_2489" x1="2162.92" y1="363.516" x2="2162.92" y2="694.719" gradientUnits="userSpaceOnUse">
<stop stop-color="#F5FDE6" stop-opacity="0"/>
<stop offset="1" stop-color="#F5FDE6"/>
</linearGradient>
<linearGradient id="paint2_linear_893_2489" x1="1149.11" y1="363.516" x2="1149.11" y2="694.719" gradientUnits="userSpaceOnUse">
<stop stop-color="#F5FDE6" stop-opacity="0"/>
<stop offset="1" stop-color="#F5FDE6"/>
</linearGradient>
<linearGradient id="paint3_linear_893_2489" x1="199.801" y1="1950.91" x2="161.072" y2="3052.15" gradientUnits="userSpaceOnUse">
<stop stop-color="#B5EBCD"/>
<stop offset="1" stop-color="#EAFEEE"/>
</linearGradient>
<linearGradient id="paint4_linear_893_2489" x1="4899.32" y1="2300.37" x2="4899.32" y2="2859.22" gradientUnits="userSpaceOnUse">
<stop stop-color="#FFBF1A"/>
<stop offset="1" stop-color="#FFEA7C" stop-opacity="0"/>
</linearGradient>
<linearGradient id="paint5_linear_893_2489" x1="3776.6" y1="2063.47" x2="3737.87" y2="3164.71" gradientUnits="userSpaceOnUse">
<stop stop-color="#B5EBCD"/>
<stop offset="1" stop-color="#EAFEEE"/>
</linearGradient>
<linearGradient id="paint6_linear_893_2489" x1="8199.84" y1="1999.91" x2="8238.57" y2="3101.15" gradientUnits="userSpaceOnUse">
<stop stop-color="#B5EBCD"/>
<stop offset="1" stop-color="#EAFEEE"/>
</linearGradient>
<linearGradient id="paint7_linear_893_2489" x1="4076.07" y1="2614.57" x2="3987.18" y2="3608.64" gradientUnits="userSpaceOnUse">
<stop offset="0.0001" stop-color="#D5CB2E"/>
<stop offset="0.0002" stop-color="#D5CB2E"/>
<stop offset="1" stop-color="#8FC9A1"/>
</linearGradient>
<linearGradient id="paint8_linear_893_2489" x1="3679.71" y1="2873.97" x2="3679.71" y2="5424.46" gradientUnits="userSpaceOnUse">
<stop stop-color="#FFF496"/>
<stop offset="0.466667" stop-color="#ECD393"/>
</linearGradient>
<linearGradient id="paint9_linear_893_2489" x1="4657.46" y1="2876.13" x2="4657.46" y2="5027.54" gradientUnits="userSpaceOnUse">
<stop stop-color="#FFF496"/>
<stop offset="0.466667" stop-color="#ECD393"/>
</linearGradient>
<linearGradient id="paint10_linear_893_2489" x1="2811.71" y1="2877.94" x2="2811.71" y2="4916.88" gradientUnits="userSpaceOnUse">
<stop stop-color="#FFF496"/>
<stop offset="0.466667" stop-color="#ECD393"/>
</linearGradient>
<linearGradient id="paint11_linear_893_2489" x1="5433.36" y1="2885.2" x2="5433.36" y2="5236.15" gradientUnits="userSpaceOnUse">
<stop stop-color="#FFF496"/>
<stop offset="0.466667" stop-color="#ECD393"/>
</linearGradient>
<linearGradient id="paint12_linear_893_2489" x1="5948.36" y1="2903.33" x2="5948.36" y2="4994.76" gradientUnits="userSpaceOnUse">
<stop stop-color="#FFF496"/>
<stop offset="0.466667" stop-color="#ECD393"/>
</linearGradient>
<linearGradient id="paint13_linear_893_2489" x1="6482.34" y1="2925.11" x2="6482.34" y2="4766.32" gradientUnits="userSpaceOnUse">
<stop stop-color="#FFF496"/>
<stop offset="0.466667" stop-color="#ECD393"/>
</linearGradient>
<linearGradient id="paint14_linear_893_2489" x1="6851.2" y1="2881.54" x2="7213.96" y2="4686.66" gradientUnits="userSpaceOnUse">
<stop stop-color="#FFF496"/>
<stop offset="0.466667" stop-color="#ECD393"/>
</linearGradient>
<linearGradient id="paint15_linear_893_2489" x1="7287.2" y1="2943.54" x2="7649.96" y2="4748.66" gradientUnits="userSpaceOnUse">
<stop stop-color="#FFF496"/>
<stop offset="0.466667" stop-color="#ECD393"/>
</linearGradient>
<linearGradient id="paint16_linear_893_2489" x1="1881.12" y1="2901.52" x2="1881.12" y2="5016.65" gradientUnits="userSpaceOnUse">
<stop stop-color="#FFF496"/>
<stop offset="0.466667" stop-color="#ECD393"/>
</linearGradient>
<linearGradient id="paint17_linear_893_2489" x1="3666.01" y1="3590.6" x2="3598.99" y2="4444.9" gradientUnits="userSpaceOnUse">
<stop stop-color="#21948B"/>
<stop offset="1" stop-color="#19274B"/>
</linearGradient>
<linearGradient id="paint18_linear_893_2489" x1="3699.7" y1="3325.66" x2="3699.7" y2="3933.35" gradientUnits="userSpaceOnUse">
<stop stop-color="#EBC64D"/>
<stop offset="1" stop-color="#DF9445"/>
</linearGradient>
<linearGradient id="paint19_linear_893_2489" x1="4092.4" y1="2820.03" x2="4092.4" y2="2980.14" gradientUnits="userSpaceOnUse">
<stop stop-color="#EBC64D"/>
<stop offset="1" stop-color="#DF9445"/>
</linearGradient>
<linearGradient id="paint20_linear_893_2489" x1="6033.37" y1="2848.89" x2="6033.37" y2="2954.42" gradientUnits="userSpaceOnUse">
<stop stop-color="#EBC64D"/>
<stop offset="1" stop-color="#DF9445"/>
</linearGradient>
<linearGradient id="paint21_linear_893_2489" x1="4905.08" y1="2987.1" x2="4905.08" y2="3209.07" gradientUnits="userSpaceOnUse">
<stop stop-color="#EBC64D"/>
<stop offset="1" stop-color="#DF9445"/>
</linearGradient>
<clipPath id="clip0_893_2489">
<rect width="7689" height="4136" fill="white"/>
</clipPath>
</defs>
</svg>
