<svg width="7689" height="4136" viewBox="0 0 7689 4136" fill="none" xmlns="http://www.w3.org/2000/svg">
<g clip-path="url(#clip0_893_1574)">
<rect width="7689" height="4136" fill="url(#paint0_linear_893_1574)"/>
<path d="M2974.77 1243.08C2433.82 1238.02 1348.28 1227.89 1333.7 1227.89V681.204C1393.43 672.767 1488.39 673.105 1576.67 895.829C1576.67 895.829 1669.41 1039.39 1809.52 904.941C1921.64 762.666 2028.51 972.912 2042.78 1002.74C2043.91 1005.09 2044.91 1007.31 2046.25 1009.55C2056.99 1027.44 2115.8 1106.12 2264.08 985.931C2345.7 919.775 2422.95 1059.24 2493.35 1132.05C2515.73 1155.21 2545.75 1168.24 2576.3 1178.42C2601.96 1186.97 2629.31 1188.81 2656.15 1185.52C2848.08 1161.92 2947.93 1212.71 2974.77 1243.08Z" fill="#F5FDE6"/>
<path d="M-268 1243.08C272.95 1238.02 1358.5 1227.89 1373.07 1227.89V681.204C1313.34 672.767 1218.38 673.105 1130.1 895.829C1130.1 895.829 1037.37 1039.39 897.254 904.941C785.13 762.666 678.267 972.912 663.993 1002.74C662.866 1005.09 661.862 1007.31 660.519 1009.55C649.782 1027.44 590.977 1106.12 442.693 985.931C361.071 919.775 283.824 1059.24 213.427 1132.05C191.039 1155.21 161.026 1168.24 130.47 1178.42C104.811 1186.97 77.4677 1188.81 50.6233 1185.52C-141.31 1161.92 -241.156 1212.71 -268 1243.08Z" fill="#F5FDE6"/>
<path d="M1282.19 1818.6L1413.59 1696.21L1484.1 1753.32L1589.86 1655.41H1666.78L1820.61 1545.27L2179.56 1806.36L2272.51 1773.72L2700.07 2118.44L2891.05 1977.7L2932.06 2032.03L3116.16 1950.46L3208.21 1959.36L3260.64 1857.02L3343.37 1831.81L3475.03 1848.12L3617.71 1729L3726.54 1579.72L3788.47 1560.61L3837.25 1457.9L3913.02 1519.33L3934.63 1600.4L4107.51 1753.86L4168.92 1788.61L4262.19 1766.89L4410.84 1448.09L4444.98 1423.52L4486.55 1483.99L4557.81 1417.86L4572.65 1334.71L4621.64 1251.57L4669.14 1298.81L4792.36 1268.57L4875.49 1211.89L4921.51 1162.76L4967.1 1238.31L4979.13 1301.24L5110.07 1399.89L5167.52 1498.54L5278.42 1735.64L5331.87 1686.31L5383.12 1696.75L5448.54 1753.9L5512.68 1778.39L5776.92 2047.8L5934.51 2105.87L6146.15 1926.27L6207.4 2047.8L6365.62 2292.82V4150.83H1413.59L1203 2054.26L1282.19 1818.6Z" fill="url(#paint1_linear_893_1574)"/>
<path d="M1550.43 1818.6L1419.03 1696.21L1348.52 1753.32L1242.76 1655.41H1165.84L1012.01 1545.27L653.055 1806.36L560.113 1773.72L132.553 2118.44L-58.4352 1977.7L-99.4395 2032.03L-283.537 1950.46L-375.586 1959.36L-428.019 1857.02L-510.746 1831.81L-642.411 1848.12L-785.093 1729L-893.925 1579.72L-955.846 1560.61L-1004.63 1457.9L-1080.4 1519.33L-1102.01 1600.4L-1274.89 1753.86L-1336.31 1788.61L-1429.57 1766.89L-1578.22 1448.09L-1612.37 1423.52L-1653.93 1483.99L-1725.19 1417.86L-1740.03 1334.71L-1789.02 1251.57L-1836.52 1298.81L-1959.74 1268.57L-2042.87 1211.89L-2088.89 1162.75L-2134.48 1238.31L-2146.51 1301.24L-2277.45 1399.89L-2334.9 1498.54L-2445.81 1735.64L-2499.25 1686.31L-2550.5 1696.75L-2615.92 1753.9L-2680.06 1778.39L-2944.3 2047.8L-3101.89 2105.87L-3313.53 1926.26L-3374.79 2047.8L-3533 2292.82V4150.83H1419.03L1629.62 2054.26L1550.43 1818.6Z" fill="url(#paint2_linear_893_1574)"/>
<path d="M11212.4 1473.84L11081 1351.45L11010.5 1408.57L10904.8 1310.66H10827.8L10674 1200.51L10315.1 1461.6L10222.1 1428.97L9794.55 1773.69L9603.56 1632.94L9562.56 1687.28L9378.46 1605.71L9286.41 1614.6L9233.98 1512.27L9151.25 1487.05L9019.59 1503.37L8876.91 1384.24L8768.08 1234.96L8706.15 1215.85L8657.37 1113.15L8581.6 1174.57L8559.99 1255.64L8387.11 1409.11L8325.69 1443.85L8232.43 1422.14L8083.78 1103.33L8049.63 1078.77L8008.07 1139.24L7936.81 1073.1L7921.97 989.957L7872.98 906.813L7825.48 954.054L7702.26 923.819L7619.13 867.13L7573.11 818L7527.52 893.56L7515.49 956.49L7384.55 1055.14L7327.1 1153.78L7216.19 1390.88L7162.75 1341.56L7111.5 1351.99L7046.08 1409.14L6981.94 1433.63L6717.7 1703.05L6560.11 1761.11L6348.47 1581.51L6287.21 1703.05L6129 1948.06V3806.08H11081L11291.6 1709.51L11212.4 1473.84Z" fill="url(#paint3_linear_893_1574)"/>
<path d="M4001.23 2070.57C3998.62 2106.5 3986.87 2139.88 3981.32 2152.08H3985.24L3975.77 2171.62H3983.93L3969.9 2202.4H3978.06L3944.44 2249.39L3957.82 2247.31C3963.37 2245.78 3976.62 2244.06 3985.24 2249.39C3993.85 2254.71 4024.95 2254.65 4039.41 2253.96L4035.82 2244.81L4052.79 2249.39L4041.37 2242.73H4058.67C4046.92 2232.75 4032.67 2201.98 4027.01 2187.84H4032.89C4023.23 2175.86 4018.2 2155.13 4016.9 2146.26L4023.42 2152.08C4019.51 2145.09 4011.78 2122.83 4008.41 2112.57L4014.94 2117.56C4006.06 2103.92 4002.1 2080.55 4001.23 2070.57Z" fill="url(#paint4_linear_893_1574)"/>
<path d="M2272.77 2155.62C2268.97 2207.91 2251.87 2256.49 2243.8 2274.25H2249.5L2235.72 2302.69H2247.6L2227.17 2347.48H2239.05L2190.12 2415.88L2209.6 2412.85C2217.67 2410.63 2236.96 2408.13 2249.5 2415.88C2262.04 2423.62 2307.29 2423.54 2328.34 2422.53L2323.12 2409.22L2347.82 2415.88L2331.19 2406.19H2356.37C2339.27 2391.67 2318.53 2346.88 2310.3 2326.3H2318.85C2304.79 2308.87 2297.47 2278.69 2295.57 2265.77L2305.07 2274.25C2299.37 2264.08 2288.13 2231.68 2283.22 2216.75L2292.72 2224.01C2279.8 2204.16 2274.04 2170.15 2272.77 2155.62Z" fill="url(#paint5_linear_893_1574)"/>
<path d="M2390.96 2012.96C2385.59 2086.85 2361.43 2155.5 2350.02 2180.59H2358.07L2338.61 2220.78H2355.39L2326.53 2284.07H2343.31L2274.17 2380.71L2301.69 2376.44C2313.1 2373.3 2340.35 2369.77 2358.07 2380.71C2375.79 2391.66 2439.73 2391.55 2469.49 2390.12L2462.11 2371.31L2497.01 2380.71L2473.52 2367.03H2509.09C2484.93 2346.5 2455.62 2283.22 2443.98 2254.14H2456.07C2436.2 2229.51 2425.86 2186.86 2423.18 2168.61L2436.6 2180.59C2428.55 2166.22 2412.66 2120.43 2405.73 2099.34L2419.15 2109.6C2400.89 2081.55 2392.75 2033.48 2390.96 2012.96Z" fill="url(#paint6_linear_893_1574)"/>
<path d="M328.786 2224C323.417 2297.89 299.254 2366.54 287.844 2391.63H295.898L276.434 2431.82H293.214L264.353 2495.11H281.132L212 2591.75L239.519 2587.48C250.929 2584.34 278.179 2580.81 295.898 2591.75C313.618 2602.7 377.559 2602.59 407.315 2601.16L399.932 2582.35L434.834 2591.75L411.342 2578.07H446.915C422.752 2557.55 393.444 2494.26 381.81 2465.18H393.891C374.024 2440.55 363.688 2397.9 361.003 2379.65L374.427 2391.63C366.373 2377.26 350.488 2331.48 343.552 2310.38L356.976 2320.64C338.72 2292.59 330.576 2244.53 328.786 2224Z" fill="url(#paint7_linear_893_1574)"/>
<path d="M2517.17 2079.54C2512.83 2139.19 2493.33 2194.61 2484.11 2214.87H2490.62L2474.9 2247.32H2488.45L2465.15 2298.41H2478.7L2422.88 2376.44L2445.1 2372.99C2454.31 2370.45 2476.31 2367.6 2490.62 2376.44C2504.92 2385.28 2556.55 2385.18 2580.57 2384.03L2574.61 2368.84L2602.79 2376.44L2583.82 2365.39H2612.54C2593.03 2348.82 2569.37 2297.72 2559.98 2274.25H2569.73C2553.69 2254.36 2545.35 2219.93 2543.18 2205.2L2554.02 2214.87C2547.51 2203.27 2534.69 2166.3 2529.09 2149.27L2539.93 2157.56C2525.19 2134.91 2518.61 2096.11 2517.17 2079.54Z" fill="url(#paint8_linear_893_1574)"/>
<path d="M2650.79 2012.96C2646.46 2072.62 2626.95 2128.04 2617.74 2148.29H2624.24L2608.52 2180.74H2622.07L2598.77 2231.84H2612.32L2556.5 2309.86L2578.72 2306.41C2587.93 2303.88 2609.93 2301.02 2624.24 2309.86C2638.54 2318.7 2690.17 2318.61 2714.19 2317.46L2708.23 2302.27L2736.41 2309.86L2717.44 2298.81H2746.16C2726.65 2282.24 2702.99 2231.15 2693.6 2207.67H2703.35C2687.31 2187.79 2678.97 2153.36 2676.8 2138.62L2687.64 2148.29C2681.14 2136.69 2668.31 2099.73 2662.71 2082.7L2673.55 2090.98C2658.81 2068.33 2652.24 2029.53 2650.79 2012.96Z" fill="url(#paint9_linear_893_1574)"/>
<path d="M2797.34 2048.62C2793.01 2108.28 2773.5 2163.7 2764.29 2183.96H2770.79L2755.08 2216.41H2768.62L2745.32 2267.5H2758.87L2703.06 2345.53L2725.27 2342.07C2734.49 2339.54 2756.49 2336.69 2770.79 2345.53C2785.1 2354.36 2836.72 2354.27 2860.74 2353.12L2854.78 2337.93L2882.96 2345.53L2863.99 2334.48H2892.71C2873.21 2317.91 2849.54 2266.81 2840.15 2243.34H2849.9C2833.87 2223.45 2825.52 2189.02 2823.35 2174.29L2834.19 2183.96C2827.69 2172.36 2814.86 2135.39 2809.26 2118.36L2820.1 2126.65C2805.36 2104 2798.79 2065.19 2797.34 2048.62Z" fill="url(#paint10_linear_893_1574)"/>
<path d="M3018.07 1826.41C3012.31 1905.72 2986.37 1979.41 2974.12 2006.34H2982.77L2961.88 2049.48H2979.89L2948.91 2117.42H2966.92L2892.71 2221.15L2922.25 2216.56C2934.5 2213.2 2963.75 2209.4 2982.77 2221.15C3001.79 2232.9 3070.42 2232.78 3102.36 2231.25L3094.44 2211.05L3131.9 2221.15L3106.69 2206.46H3144.87C3118.93 2184.43 3087.47 2116.5 3074.99 2085.29H3087.95C3066.63 2058.85 3055.53 2013.07 3052.65 1993.48L3067.06 2006.34C3058.42 1990.91 3041.36 1941.77 3033.92 1919.13L3048.33 1930.14C3028.73 1900.03 3019.99 1848.44 3018.07 1826.41Z" fill="url(#paint11_linear_893_1574)"/>
<path d="M581.691 2156C575.223 2245.18 546.114 2328.03 532.369 2358.3H542.071L518.623 2406.82H538.837L504.069 2483.2H524.283L441 2599.83L474.151 2594.67C487.897 2590.89 520.725 2586.62 542.071 2599.83C563.418 2613.04 640.448 2612.9 676.294 2611.18L667.4 2588.48L709.446 2599.83L681.146 2583.32H724C694.891 2558.54 659.584 2482.16 645.569 2447.07H660.123C636.189 2417.34 623.737 2365.87 620.503 2343.85L636.674 2358.3C626.971 2340.96 607.835 2285.71 599.48 2260.25L615.651 2272.63C593.658 2238.78 583.848 2180.77 581.691 2156Z" fill="url(#paint12_linear_893_1574)"/>
<path d="M1256.36 2185C1250.59 2264.32 1224.66 2338 1212.41 2364.93H1221.06L1200.16 2408.08H1218.17L1187.19 2476.01H1205.21L1131 2579.75L1160.54 2575.16C1172.79 2571.79 1202.04 2568 1221.06 2579.75C1240.08 2591.5 1308.71 2591.37 1340.65 2589.84L1332.73 2569.65L1370.19 2579.75L1344.97 2565.06H1383.16C1357.22 2543.03 1325.76 2475.09 1313.27 2443.88H1326.24C1304.92 2417.44 1293.82 2371.66 1290.94 2352.08L1305.35 2364.93C1296.7 2349.51 1279.65 2300.36 1272.21 2277.72L1286.62 2288.74C1267.02 2258.62 1258.28 2207.03 1256.36 2185Z" fill="url(#paint13_linear_893_1574)"/>
<path d="M421.358 2238C415.594 2317.32 389.658 2391 377.411 2417.93H386.056L365.163 2461.08H383.174L352.195 2529.01H370.206L296 2632.75L325.538 2628.16C337.786 2624.79 367.036 2621 386.056 2632.75C405.076 2644.5 473.71 2644.37 505.65 2642.84L497.725 2622.65L535.189 2632.75L509.973 2618.06H548.157C522.22 2596.03 490.761 2528.09 478.273 2496.88H491.241C469.916 2470.44 458.821 2424.66 455.939 2405.08L470.348 2417.93C461.703 2402.51 444.652 2353.36 437.208 2330.72L451.617 2341.74C432.02 2311.62 423.279 2260.03 421.358 2238Z" fill="url(#paint14_linear_893_1574)"/>
<path d="M3270.23 1999.24C3264.46 2078.56 3238.53 2152.24 3226.28 2179.17H3234.93L3214.03 2222.32H3232.04L3201.07 2290.25H3219.08L3144.87 2393.99L3174.41 2389.4C3186.66 2386.03 3215.91 2382.24 3234.93 2393.99C3253.95 2405.74 3322.58 2405.62 3354.52 2404.09L3346.6 2383.89L3384.06 2393.99L3358.84 2379.3H3397.03C3371.09 2357.27 3339.63 2289.33 3327.14 2258.12H3340.11C3318.79 2231.68 3307.69 2185.91 3304.81 2166.32L3319.22 2179.17C3310.57 2163.75 3293.52 2114.61 3286.08 2091.96L3300.49 2102.98C3280.89 2072.87 3272.15 2021.27 3270.23 1999.24Z" fill="url(#paint15_linear_893_1574)"/>
<path d="M3416.78 2078.8C3411.02 2158.12 3385.08 2231.81 3372.83 2258.73H3381.48L3360.59 2301.88H3378.6L3347.62 2369.81H3365.63L3291.42 2473.55L3320.96 2468.96C3333.21 2465.59 3362.46 2461.8 3381.48 2473.55C3400.5 2485.3 3469.13 2485.18 3501.07 2483.65L3493.15 2463.45L3530.61 2473.55L3505.4 2458.86H3543.58C3517.64 2436.83 3486.18 2368.9 3473.7 2337.68H3486.66C3465.34 2311.24 3454.24 2265.47 3451.36 2245.88L3465.77 2258.73C3457.13 2243.31 3440.07 2194.17 3432.63 2171.52L3447.04 2182.54C3427.44 2152.43 3418.7 2100.84 3416.78 2078.8Z" fill="url(#paint16_linear_893_1574)"/>
<path d="M3543.05 2106.23C3538.81 2164.54 3519.75 2218.7 3510.75 2238.49H3517.1L3501.74 2270.21H3514.98L3492.21 2320.14H3505.45L3450.91 2396.39L3472.62 2393.02C3481.62 2390.54 3503.12 2387.75 3517.1 2396.39C3531.08 2405.03 3581.53 2404.94 3605.01 2403.81L3599.18 2388.97L3626.72 2396.39L3608.18 2385.59H3636.25C3617.19 2369.4 3594.06 2319.46 3584.88 2296.52H3594.42C3578.74 2277.09 3570.59 2243.44 3568.47 2229.04L3579.06 2238.49C3572.7 2227.15 3560.17 2191.03 3554.7 2174.39L3565.29 2182.48C3550.89 2160.35 3544.46 2122.43 3543.05 2106.23Z" fill="url(#paint17_linear_893_1574)"/>
<path d="M3198.22 1958.09C3193.98 2016.39 3174.92 2070.55 3165.92 2090.35H3172.27L3156.91 2122.06H3170.15L3147.38 2172H3160.62L3106.08 2248.25L3127.79 2244.87C3136.79 2242.4 3158.29 2239.61 3172.27 2248.25C3186.25 2256.88 3236.7 2256.79 3260.18 2255.67L3254.35 2240.82L3281.89 2248.25L3263.36 2237.45H3291.42C3272.36 2221.25 3249.23 2171.32 3240.06 2148.38H3249.59C3233.91 2128.94 3225.76 2095.3 3223.64 2080.9L3234.23 2090.35C3227.88 2079.01 3215.34 2042.89 3209.87 2026.24L3220.46 2034.34C3206.06 2012.21 3199.63 1974.28 3198.22 1958.09Z" fill="url(#paint18_linear_893_1574)"/>
<path d="M3675.48 2040.39C3670.3 2111.58 3647.03 2177.7 3636.04 2201.87H3643.8L3625.04 2240.59H3641.21L3613.41 2301.56H3629.57L3562.98 2394.65L3589.48 2390.53C3600.48 2387.51 3626.73 2384.11 3643.8 2394.65C3660.86 2405.2 3722.46 2405.09 3751.12 2403.72L3744.01 2385.59L3777.63 2394.65L3755 2381.47H3789.27C3765.99 2361.7 3737.76 2300.73 3726.55 2272.72H3738.19C3719.05 2249 3709.1 2207.91 3706.51 2190.34L3719.44 2201.87C3711.68 2188.03 3696.38 2143.93 3689.7 2123.6L3702.63 2133.49C3685.05 2106.47 3677.2 2060.17 3675.48 2040.39Z" fill="url(#paint19_linear_893_1574)"/>
<path d="M3605.72 2205C3602.87 2244.32 3590.01 2280.85 3583.94 2294.2H3588.22L3577.87 2315.59H3586.79L3571.44 2349.26H3580.37L3543.58 2400.69L3558.22 2398.41C3564.29 2396.74 3578.79 2394.86 3588.22 2400.69C3597.65 2406.51 3631.67 2406.45 3647.51 2405.69L3643.58 2395.68L3662.15 2400.69L3649.65 2393.41H3668.58C3655.72 2382.48 3640.13 2348.81 3633.94 2333.34H3640.37C3629.79 2320.23 3624.29 2297.54 3622.87 2287.83L3630.01 2294.2C3625.72 2286.55 3617.27 2262.19 3613.58 2250.96L3620.72 2256.43C3611.01 2241.5 3606.67 2215.92 3605.72 2205Z" fill="url(#paint20_linear_893_1574)"/>
<path d="M3789.91 2098.01C3786.41 2146.14 3770.67 2190.85 3763.24 2207.19H3768.49L3755.81 2233.38H3766.74L3747.94 2274.6H3758.87L3713.84 2337.55L3731.76 2334.77C3739.2 2332.72 3756.95 2330.42 3768.49 2337.55C3780.03 2344.68 3821.68 2344.61 3841.06 2343.68L3836.25 2331.42L3858.99 2337.55L3843.68 2328.64H3866.86C3851.12 2315.27 3832.03 2274.05 3824.45 2255.1H3832.32C3819.38 2239.06 3812.64 2211.28 3810.9 2199.4L3819.64 2207.19C3814.39 2197.84 3804.05 2168.01 3799.53 2154.27L3808.27 2160.96C3796.38 2142.68 3791.08 2111.38 3789.91 2098.01Z" fill="url(#paint21_linear_893_1574)"/>
<path d="M3888.93 2029.42C3884.44 2091.11 3864.27 2148.42 3854.75 2169.37H3861.47L3845.22 2202.93H3859.23L3835.13 2255.76H3849.14L3791.43 2336.45L3814.4 2332.88C3823.93 2330.26 3846.68 2327.31 3861.47 2336.45C3876.26 2345.59 3929.65 2345.49 3954.49 2344.3L3948.32 2328.59L3977.46 2336.45L3957.85 2325.02H3987.55C3967.38 2307.89 3942.91 2255.05 3933.19 2230.77H3943.28C3926.69 2210.21 3918.06 2174.6 3915.82 2159.37L3927.03 2169.37C3920.31 2157.37 3907.04 2119.15 3901.25 2101.54L3912.46 2110.1C3897.22 2086.69 3890.42 2046.56 3888.93 2029.42Z" fill="url(#paint22_linear_893_1574)"/>
<path d="M3967.88 2078.8C3965.71 2108.63 3955.96 2136.34 3951.35 2146.47H3954.6L3946.75 2162.7H3953.52L3941.87 2188.24H3948.64L3920.74 2227.25L3931.84 2225.53C3936.45 2224.26 3947.45 2222.84 3954.6 2227.25C3961.76 2231.67 3987.57 2231.63 3999.58 2231.05L3996.6 2223.46L4010.69 2227.25L4001.2 2221.73H4015.56C4005.81 2213.44 3993.98 2187.9 3989.28 2176.16H3994.16C3986.14 2166.22 3981.97 2149 3980.88 2141.64L3986.3 2146.47C3983.05 2140.67 3976.64 2122.19 3973.84 2113.67L3979.26 2117.81C3971.89 2106.49 3968.6 2087.09 3967.88 2078.8Z" fill="url(#paint23_linear_893_1574)"/>
<path d="M4032.53 2139.16C4030.37 2168.99 4020.61 2196.7 4016.01 2206.82H4019.26L4011.4 2223.05H4018.18L4006.52 2248.6H4013.3L3985.39 2287.61L3996.5 2285.88C4001.11 2284.62 4012.11 2283.19 4019.26 2287.61C4026.41 2292.03 4052.22 2291.98 4064.23 2291.41L4061.25 2283.81L4075.34 2287.61L4065.86 2282.09H4080.22C4070.47 2273.8 4058.63 2248.25 4053.94 2236.51H4058.82C4050.8 2226.57 4046.62 2209.36 4045.54 2201.99L4050.96 2206.82C4047.71 2201.02 4041.29 2182.54 4038.5 2174.03L4043.91 2178.17C4036.54 2166.85 4033.26 2147.44 4032.53 2139.16Z" fill="url(#paint24_linear_893_1574)"/>
<path d="M4078.82 2122.7C4076.2 2158.63 4064.46 2192.01 4058.91 2204.2H4062.82L4053.36 2223.75H4061.52L4047.49 2254.52H4055.64L4022.03 2301.51L4035.41 2299.43C4040.96 2297.91 4054.21 2296.19 4062.82 2301.51C4071.44 2306.84 4102.53 2306.78 4117 2306.09L4113.41 2296.94L4130.38 2301.51L4118.96 2294.86H4136.25C4124.51 2284.88 4110.25 2254.11 4104.6 2239.97H4110.47C4100.81 2227.99 4095.79 2207.25 4094.48 2198.38L4101.01 2204.2C4097.09 2197.22 4089.37 2174.96 4086 2164.7L4092.52 2169.69C4083.65 2156.05 4079.69 2132.68 4078.82 2122.7Z" fill="url(#paint25_linear_893_1574)"/>
<path d="M4206.83 2067.83C4202.5 2127.49 4182.99 2182.91 4173.78 2203.16H4180.28L4164.57 2235.61H4178.11L4154.81 2286.71H4168.36L4112.55 2364.73L4134.76 2361.28C4143.98 2358.75 4165.98 2355.9 4180.28 2364.73C4194.59 2373.57 4246.21 2373.48 4270.23 2372.33L4264.27 2357.14L4292.45 2364.73L4273.48 2353.69H4302.2C4282.7 2337.11 4259.03 2286.02 4249.64 2262.54H4259.4C4243.36 2242.66 4235.01 2208.23 4232.84 2193.5L4243.68 2203.16C4237.18 2191.56 4224.35 2154.6 4218.75 2137.57L4229.59 2145.85C4214.85 2123.21 4208.28 2084.4 4206.83 2067.83Z" fill="url(#paint26_linear_893_1574)"/>
<path d="M4325.5 2185.8C4322.25 2230.54 4307.62 2272.1 4300.71 2287.3H4305.59L4293.8 2311.63H4303.96L4286.49 2349.96H4296.65L4254.79 2408.47L4271.45 2405.88C4278.36 2403.99 4294.86 2401.84 4305.59 2408.47C4316.32 2415.1 4355.04 2415.03 4373.05 2414.17L4368.58 2402.78L4389.72 2408.47L4375.49 2400.19H4397.03C4382.4 2387.76 4364.65 2349.44 4357.61 2331.83H4364.92C4352.9 2316.92 4346.64 2291.09 4345.01 2280.05L4353.14 2287.3C4348.26 2278.6 4338.64 2250.87 4334.44 2238.1L4342.57 2244.31C4331.52 2227.33 4326.59 2198.22 4325.5 2185.8Z" fill="url(#paint27_linear_893_1574)"/>
<path d="M4400.01 2270.84C4397.99 2298.64 4388.9 2324.46 4384.61 2333.89H4387.64L4380.32 2349.01H4386.63L4375.78 2372.82H4382.09L4356.08 2409.17L4366.43 2407.56C4370.73 2406.38 4380.98 2405.05 4387.64 2409.17C4394.31 2413.29 4418.36 2413.25 4429.55 2412.71L4426.77 2405.63L4439.9 2409.17L4431.07 2404.02H4444.45C4435.36 2396.3 4424.33 2372.5 4419.96 2361.56H4424.5C4417.03 2352.3 4413.14 2336.25 4412.13 2329.39L4417.18 2333.89C4414.15 2328.49 4408.18 2311.27 4405.57 2303.33L4410.62 2307.19C4403.75 2296.64 4400.69 2278.56 4400.01 2270.84Z" fill="url(#paint28_linear_893_1574)"/>
<path d="M4481.79 2215.97C4478.78 2257.33 4465.26 2295.74 4458.87 2309.78H4463.38L4452.49 2332.28H4461.88L4445.73 2367.7H4455.12L4416.43 2421.78L4431.83 2419.39C4438.22 2417.63 4453.47 2415.66 4463.38 2421.78C4473.3 2427.91 4509.08 2427.84 4525.73 2427.05L4521.6 2416.52L4541.13 2421.78L4527.99 2414.12H4547.9C4534.37 2402.64 4517.97 2367.22 4511.46 2350.95H4518.22C4507.1 2337.16 4501.32 2313.29 4499.82 2303.08L4507.33 2309.78C4502.82 2301.74 4493.93 2276.12 4490.05 2264.32L4497.56 2270.06C4487.35 2254.36 4482.79 2227.46 4481.79 2215.97Z" fill="url(#paint29_linear_893_1574)"/>
<path d="M4566.98 2292.79C4564.52 2326.69 4553.44 2358.18 4548.2 2369.68H4551.9L4542.97 2388.12H4550.67L4537.43 2417.15H4545.12L4513.41 2461.49L4526.03 2459.52C4531.27 2458.09 4543.77 2456.46 4551.9 2461.49C4560.03 2466.51 4589.36 2466.46 4603.01 2465.8L4599.62 2457.17L4615.63 2461.49L4604.85 2455.21H4621.17C4610.09 2445.79 4596.64 2416.76 4591.31 2403.42H4596.85C4587.73 2392.13 4582.99 2372.56 4581.76 2364.19L4587.92 2369.68C4584.22 2363.09 4576.94 2342.09 4573.76 2332.42L4579.91 2337.12C4571.54 2324.26 4567.8 2302.21 4566.98 2292.79Z" fill="url(#paint30_linear_893_1574)"/>
<path d="M4658.25 2185.8C4653.18 2255.62 4630.35 2320.49 4619.56 2344.2H4627.18L4608.78 2382.18H4624.64L4597.37 2441.98H4613.22L4547.9 2533.31L4573.9 2529.27C4584.68 2526.3 4610.43 2522.96 4627.18 2533.31C4643.92 2543.65 4704.34 2543.54 4732.46 2542.2L4725.48 2524.42L4758.46 2533.31L4736.26 2520.38H4769.88C4747.05 2500.98 4719.35 2441.18 4708.36 2413.7H4719.77C4701 2390.42 4691.23 2350.12 4688.7 2332.88L4701.38 2344.2C4693.77 2330.62 4678.76 2287.36 4672.21 2267.42L4684.89 2277.12C4667.64 2250.61 4659.94 2205.19 4658.25 2185.8Z" fill="url(#paint31_linear_893_1574)"/>
<path d="M4787.71 2270.84C4783.82 2324.4 4766.31 2374.15 4758.04 2392.33H4763.87L4749.77 2421.47H4761.93L4741.01 2467.34H4753.17L4703.07 2537.38L4723.01 2534.28C4731.28 2532.01 4751.03 2529.45 4763.87 2537.38C4776.72 2545.31 4823.06 2545.23 4844.63 2544.2L4839.27 2530.56L4864.57 2537.38L4847.54 2527.46H4873.33C4855.81 2512.59 4834.57 2466.72 4826.14 2445.64H4834.9C4820.5 2427.79 4813.01 2396.88 4811.06 2383.66L4820.79 2392.33C4814.95 2381.92 4803.44 2348.74 4798.41 2333.45L4808.14 2340.89C4794.91 2320.55 4789.01 2285.72 4787.71 2270.84Z" fill="url(#paint32_linear_893_1574)"/>
<path d="M4951.26 2155.62C4945.4 2236.29 4919.02 2311.24 4906.56 2338.63H4915.35L4894.1 2382.51H4912.42L4880.91 2451.61H4899.23L4823.76 2557.11L4853.8 2552.45C4866.26 2549.02 4896.01 2545.16 4915.35 2557.11C4934.7 2569.07 5004.51 2568.94 5036.99 2567.38L5028.93 2546.84L5067.04 2557.11L5041.39 2542.17H5080.23C5053.85 2519.77 5021.85 2450.67 5009.15 2418.93H5022.34C5000.65 2392.03 4989.36 2345.47 4986.43 2325.55L5001.09 2338.63C4992.29 2322.94 4974.95 2272.96 4967.38 2249.92L4982.04 2261.13C4962.1 2230.5 4953.21 2178.03 4951.26 2155.62Z" fill="url(#paint33_linear_893_1574)"/>
<path d="M5087.26 2279.07C5083.17 2335.34 5064.77 2387.61 5056.08 2406.72H5062.21L5047.39 2437.33H5060.17L5038.19 2485.52H5050.97L4998.33 2559.11L5019.28 2555.85C5027.97 2553.46 5048.72 2550.77 5062.21 2559.11C5075.71 2567.44 5124.4 2567.36 5147.05 2566.27L5141.43 2551.94L5168.01 2559.11L5150.12 2548.69H5177.21C5158.81 2533.06 5136.49 2484.87 5127.63 2462.72H5136.83C5121.7 2443.97 5113.83 2411.49 5111.79 2397.6L5122.01 2406.72C5115.88 2395.78 5103.78 2360.91 5098.5 2344.85L5108.72 2352.66C5094.82 2331.3 5088.62 2294.7 5087.26 2279.07Z" fill="url(#paint34_linear_893_1574)"/>
<path d="M5257.12 2045.88C5249.88 2145.53 5217.3 2238.11 5201.91 2271.95H5212.77L5186.52 2326.16H5209.15L5170.23 2411.51H5192.86L5099.62 2541.84L5136.73 2536.08C5152.12 2531.85 5188.87 2527.08 5212.77 2541.84C5236.67 2556.61 5322.9 2556.45 5363.03 2554.53L5353.07 2529.16L5400.14 2541.84L5368.46 2523.39H5416.43C5383.85 2495.71 5344.32 2410.36 5328.63 2371.14H5344.93C5318.13 2337.92 5304.19 2280.41 5300.57 2255.8L5318.68 2271.95C5307.81 2252.57 5286.39 2190.82 5277.04 2162.37L5295.14 2176.21C5270.52 2138.38 5259.54 2073.56 5257.12 2045.88Z" fill="url(#paint35_linear_893_1574)"/>
<path d="M6808.5 1949C6801.26 2048.65 6768.67 2141.23 6753.29 2175.07H6764.15L6737.9 2229.28H6760.53L6721.6 2314.63H6744.23L6651 2444.96L6688.11 2439.2C6703.5 2434.97 6740.25 2430.2 6764.15 2444.96C6788.04 2459.73 6874.28 2459.57 6914.41 2457.65L6904.45 2432.28L6951.52 2444.96L6919.84 2426.51H6967.81C6935.23 2398.83 6895.7 2313.48 6880.01 2274.26H6896.3C6869.51 2241.04 6855.57 2183.53 6851.95 2158.92L6870.05 2175.07C6859.19 2155.69 6837.77 2093.94 6828.41 2065.49L6846.52 2079.33C6821.9 2041.5 6810.91 1976.68 6808.5 1949Z" fill="url(#paint36_linear_893_1574)"/>
<path d="M7035.5 1949C7028.26 2048.65 6995.67 2141.23 6980.29 2175.07H6991.15L6964.9 2229.28H6987.53L6948.6 2314.63H6971.23L6878 2444.96L6915.11 2439.2C6930.5 2434.97 6967.25 2430.2 6991.15 2444.96C7015.04 2459.73 7101.28 2459.57 7141.41 2457.65L7131.45 2432.28L7178.52 2444.96L7146.84 2426.51H7194.81C7162.23 2398.83 7122.7 2313.48 7107.01 2274.26H7123.3C7096.51 2241.04 7082.57 2183.53 7078.95 2158.92L7097.05 2175.07C7086.19 2155.69 7064.77 2093.94 7055.41 2065.49L7073.52 2079.33C7048.9 2041.5 7037.91 1976.68 7035.5 1949Z" fill="url(#paint37_linear_893_1574)"/>
<path d="M5401.77 2174.82C5396.5 2247.36 5372.78 2314.75 5361.58 2339.37H5369.48L5350.37 2378.83H5366.85L5338.51 2440.96H5354.99L5287.12 2535.83L5314.14 2531.63C5325.34 2528.55 5352.09 2525.08 5369.48 2535.83C5386.88 2546.58 5449.64 2546.46 5478.85 2545.06L5471.61 2526.59L5505.87 2535.83L5482.81 2522.4H5517.73C5494.01 2502.25 5465.24 2440.12 5453.82 2411.58H5465.68C5446.17 2387.4 5436.03 2345.53 5433.39 2327.62L5446.57 2339.37C5438.66 2325.27 5423.07 2280.33 5416.26 2259.62L5429.44 2269.69C5411.52 2242.15 5403.52 2194.97 5401.77 2174.82Z" fill="url(#paint38_linear_893_1574)"/>
<path d="M5536.64 2108C5531.37 2180.54 5507.65 2247.93 5496.45 2272.55H5504.36L5485.25 2312.01H5501.72L5473.39 2374.14H5489.86L5422 2469.01L5449.01 2464.81C5460.21 2461.73 5486.96 2458.26 5504.36 2469.01C5521.75 2479.75 5584.52 2479.64 5613.73 2478.24L5606.48 2459.77L5640.75 2469.01L5617.68 2455.57H5652.6C5628.89 2435.43 5600.11 2373.3 5588.69 2344.75H5600.55C5581.05 2320.57 5570.9 2278.71 5568.27 2260.8L5581.45 2272.55C5573.54 2258.45 5557.95 2213.5 5551.14 2192.79L5564.32 2202.87C5546.39 2175.33 5538.4 2128.15 5536.64 2108Z" fill="url(#paint39_linear_893_1574)"/>
<path d="M6692.64 2088C6687.37 2160.54 6663.65 2227.93 6652.45 2252.55H6660.36L6641.25 2292.01H6657.72L6629.39 2354.14H6645.86L6578 2449.01L6605.01 2444.81C6616.21 2441.73 6642.96 2438.26 6660.36 2449.01C6677.75 2459.75 6740.52 2459.64 6769.73 2458.24L6762.48 2439.77L6796.75 2449.01L6773.68 2435.57H6808.6C6784.89 2415.43 6756.11 2353.3 6744.69 2324.75H6756.55C6737.05 2300.57 6726.9 2258.71 6724.27 2240.8L6737.45 2252.55C6729.54 2238.45 6713.95 2193.5 6707.14 2172.79L6720.32 2182.87C6702.39 2155.33 6694.4 2108.15 6692.64 2088Z" fill="url(#paint40_linear_893_1574)"/>
<path d="M5678.87 2164.55C5673.6 2237.09 5649.88 2304.47 5638.68 2329.1H5646.59L5627.48 2368.56H5643.95L5615.62 2430.69H5632.09L5564.23 2525.56L5591.24 2521.36C5602.44 2518.28 5629.19 2514.81 5646.59 2525.56C5663.98 2536.3 5726.75 2536.19 5755.96 2534.79L5748.71 2516.32L5782.97 2525.56L5759.91 2512.12H5794.83C5771.11 2491.97 5742.34 2429.85 5730.92 2401.3H5742.78C5723.28 2377.12 5713.13 2335.26 5710.5 2317.35L5723.67 2329.1C5715.77 2315 5700.17 2270.05 5693.37 2249.34L5706.54 2259.42C5688.62 2231.88 5680.63 2184.7 5678.87 2164.55Z" fill="url(#paint41_linear_893_1574)"/>
<path d="M5799.17 1872.19C5793.9 1983.18 5770.2 2086.29 5759.01 2123.97H5766.91L5747.81 2184.34H5764.27L5735.96 2279.4H5752.42L5684.61 2424.56L5711.6 2418.13C5722.8 2413.42 5749.53 2408.12 5766.91 2424.56C5784.29 2441 5847.02 2440.83 5876.2 2438.69L5868.96 2410.43L5903.2 2424.56L5880.16 2404H5915.05C5891.35 2373.18 5862.6 2278.12 5851.19 2234.44H5863.04C5843.55 2197.45 5833.41 2133.39 5830.77 2105.98L5843.94 2123.97C5836.04 2102.39 5820.46 2033.62 5813.66 2001.93L5826.82 2017.35C5808.92 1975.22 5800.93 1903.02 5799.17 1872.19Z" fill="url(#paint42_linear_893_1574)"/>
<path d="M961.563 2034C956.296 2144.99 932.593 2248.09 921.4 2285.78H929.301L910.207 2346.15H926.668L898.356 2441.21H914.816L847 2586.36L873.995 2579.94C885.188 2575.23 911.919 2569.92 929.301 2586.36C946.683 2602.81 1009.41 2602.64 1038.6 2600.49L1031.35 2572.23L1065.59 2586.36L1042.55 2565.81H1077.44C1053.74 2534.98 1024.99 2439.92 1013.58 2396.25H1025.43C1005.94 2359.25 995.801 2295.2 993.167 2267.79L1006.34 2285.78C998.434 2264.19 982.852 2195.43 976.048 2163.74L989.216 2179.16C971.308 2137.02 963.319 2064.83 961.563 2034Z" fill="url(#paint43_linear_893_1574)"/>
<path d="M809.563 2089C804.296 2199.99 780.593 2303.09 769.4 2340.78H777.301L758.207 2401.15H774.668L746.356 2496.21H762.816L695 2641.36L721.995 2634.94C733.188 2630.23 759.919 2624.92 777.301 2641.36C794.683 2657.81 857.408 2657.64 886.597 2655.49L879.355 2627.23L913.592 2641.36L890.548 2620.81H925.443C901.741 2589.98 872.99 2494.92 861.578 2451.25H873.429C853.94 2414.25 843.801 2350.2 841.167 2322.79L854.335 2340.78C846.434 2319.19 830.852 2250.43 824.048 2218.74L837.216 2234.16C819.308 2192.02 811.319 2119.83 809.563 2089Z" fill="url(#paint44_linear_893_1574)"/>
<path d="M6358.56 1820C6353.3 1930.99 6329.59 2034.09 6318.4 2071.78H6326.3L6307.21 2132.15H6323.67L6295.36 2227.21H6311.82L6244 2372.36L6270.99 2365.94C6282.19 2361.23 6308.92 2355.92 6326.3 2372.36C6343.68 2388.81 6406.41 2388.64 6435.6 2386.49L6428.35 2358.23L6462.59 2372.36L6439.55 2351.81H6474.44C6450.74 2320.98 6421.99 2225.92 6410.58 2182.25H6422.43C6402.94 2145.25 6392.8 2081.2 6390.17 2053.79L6403.34 2071.78C6395.43 2050.19 6379.85 1981.43 6373.05 1949.74L6386.22 1965.16C6368.31 1923.02 6360.32 1850.83 6358.56 1820Z" fill="url(#paint45_linear_893_1574)"/>
<path d="M6474.56 1891C6469.3 2001.99 6445.59 2105.09 6434.4 2142.78H6442.3L6423.21 2203.15H6439.67L6411.36 2298.21H6427.82L6360 2443.36L6386.99 2436.94C6398.19 2432.23 6424.92 2426.92 6442.3 2443.36C6459.68 2459.81 6522.41 2459.64 6551.6 2457.49L6544.35 2429.23L6578.59 2443.36L6555.55 2422.81H6590.44C6566.74 2391.98 6537.99 2296.92 6526.58 2253.25H6538.43C6518.94 2216.25 6508.8 2152.2 6506.17 2124.79L6519.34 2142.78C6511.43 2121.19 6495.85 2052.43 6489.05 2020.74L6502.22 2036.16C6484.31 1994.02 6476.32 1921.83 6474.56 1891Z" fill="url(#paint46_linear_893_1574)"/>
<path d="M5953.95 2092.32C5948.68 2154.87 5924.98 2212.99 5913.78 2234.23H5921.68L5902.59 2268.26H5919.05L5890.74 2321.84H5907.2L5839.38 2403.65L5866.38 2400.03C5877.57 2397.38 5904.3 2394.38 5921.68 2403.65C5939.07 2412.92 6001.79 2412.82 6030.98 2411.62L6023.74 2395.69L6057.97 2403.65L6034.93 2392.07H6069.83C6046.12 2374.69 6017.37 2321.11 6005.96 2296.49H6017.81C5998.32 2275.64 5988.18 2239.54 5985.55 2224.09L5998.72 2234.23C5990.82 2222.06 5975.23 2183.3 5968.43 2165.45L5981.6 2174.13C5963.69 2150.39 5955.7 2109.7 5953.95 2092.32Z" fill="url(#paint47_linear_893_1574)"/>
<path d="M6083.56 2046C6078.3 2108.56 6054.59 2166.67 6043.4 2187.91H6051.3L6032.21 2221.94H6048.67L6020.36 2275.52H6036.82L5969 2357.33L5995.99 2353.71C6007.19 2351.06 6033.92 2348.07 6051.3 2357.33C6068.68 2366.6 6131.41 2366.5 6160.6 2365.3L6153.35 2349.37L6187.59 2357.33L6164.55 2345.75H6199.44C6175.74 2328.37 6146.99 2274.79 6135.58 2250.18H6147.43C6127.94 2229.32 6117.8 2193.22 6115.17 2177.77L6128.34 2187.91C6120.43 2175.75 6104.85 2136.99 6098.05 2119.13L6111.22 2127.82C6093.31 2104.07 6085.32 2063.38 6083.56 2046Z" fill="url(#paint48_linear_893_1574)"/>
<path d="M7353.56 2108C7348.3 2170.56 7324.59 2228.67 7313.4 2249.91H7321.3L7302.21 2283.94H7318.67L7290.36 2337.52H7306.82L7239 2419.33L7265.99 2415.71C7277.19 2413.06 7303.92 2410.07 7321.3 2419.33C7338.68 2428.6 7401.41 2428.5 7430.6 2427.3L7423.35 2411.37L7457.59 2419.33L7434.55 2407.75H7469.44C7445.74 2390.37 7416.99 2336.79 7405.58 2312.18H7417.43C7397.94 2291.32 7387.8 2255.22 7385.17 2239.77L7398.34 2249.91C7390.43 2237.75 7374.85 2198.99 7368.05 2181.13L7381.22 2189.82C7363.31 2166.07 7355.32 2125.38 7353.56 2108Z" fill="url(#paint49_linear_893_1574)"/>
<path d="M7502.62 1982C7495.61 2065.31 7464.03 2142.71 7449.12 2170.99H7459.64L7434.21 2216.31H7456.13L7418.42 2287.67H7440.35L7350 2396.63L7385.96 2391.81C7400.87 2388.27 7436.49 2384.29 7459.64 2396.63C7482.8 2408.97 7566.36 2408.85 7605.25 2407.24L7595.6 2386.02L7641.21 2396.63L7610.51 2381.2H7657C7625.42 2358.06 7587.12 2286.71 7571.92 2253.92H7587.71C7561.74 2226.15 7548.23 2178.07 7544.73 2157.5L7562.27 2170.99C7551.74 2154.8 7530.98 2103.18 7521.92 2079.39L7539.46 2090.96C7515.6 2059.33 7504.96 2005.14 7502.62 1982Z" fill="url(#paint50_linear_893_1574)"/>
<path d="M6230.56 2068C6225.3 2130.56 6201.59 2188.67 6190.4 2209.91H6198.3L6179.21 2243.94H6195.67L6167.36 2297.52H6183.82L6116 2379.33L6142.99 2375.71C6154.19 2373.06 6180.92 2370.07 6198.3 2379.33C6215.68 2388.6 6278.41 2388.5 6307.6 2387.3L6300.35 2371.37L6334.59 2379.33L6311.55 2367.75H6346.44C6322.74 2350.37 6293.99 2296.79 6282.58 2272.18H6294.43C6274.94 2251.32 6264.8 2215.22 6262.17 2199.77L6275.34 2209.91C6267.43 2197.75 6251.85 2158.99 6245.05 2141.13L6258.22 2149.82C6240.31 2126.07 6232.32 2085.38 6230.56 2068Z" fill="url(#paint51_linear_893_1574)"/>
<path d="M1551.45 2133.59C1546.18 2227.09 1522.48 2313.95 1511.28 2345.69H1519.18L1500.09 2396.55H1516.55L1488.24 2476.63H1504.7L1436.88 2598.92L1463.88 2593.51C1475.07 2589.54 1501.8 2585.07 1519.18 2598.92C1536.57 2612.77 1599.29 2612.62 1628.48 2610.82L1621.24 2587.01L1655.47 2598.92L1632.43 2581.6H1667.33C1643.62 2555.63 1614.87 2475.55 1603.46 2438.76H1615.31C1595.82 2407.59 1585.68 2353.63 1583.05 2330.54L1596.22 2345.69C1588.32 2327.51 1572.73 2269.58 1565.93 2242.89L1579.1 2255.87C1561.19 2220.38 1553.2 2159.56 1551.45 2133.59Z" fill="url(#paint52_linear_893_1574)"/>
<path d="M1726.86 2088.88C1721.59 2182.38 1697.89 2269.24 1686.7 2300.98H1694.6L1675.5 2351.84H1691.96L1663.65 2431.92H1680.11L1612.29 2554.2L1639.29 2548.79C1650.48 2544.83 1677.21 2540.35 1694.6 2554.2C1711.98 2568.06 1774.7 2567.91 1803.89 2566.11L1796.65 2542.3L1830.89 2554.2L1807.84 2536.89H1842.74C1819.04 2510.92 1790.29 2430.84 1778.87 2394.05H1790.72C1771.24 2362.88 1761.1 2308.92 1758.46 2285.83L1771.63 2300.98C1763.73 2282.8 1748.15 2224.87 1741.34 2198.18L1754.51 2211.16C1736.6 2175.67 1728.61 2114.85 1726.86 2088.88Z" fill="url(#paint53_linear_893_1574)"/>
<path d="M1874.79 2284.93C1869.84 2336.05 1847.55 2383.54 1837.03 2400.9H1844.46L1826.5 2428.71H1841.98L1815.36 2472.49H1830.84L1767.07 2539.35L1792.45 2536.39C1802.98 2534.22 1828.11 2531.78 1844.46 2539.35C1860.8 2546.92 1919.78 2546.84 1947.23 2545.86L1940.42 2532.84L1972.61 2539.35L1950.94 2529.88H1983.76C1961.47 2515.68 1934.43 2471.9 1923.7 2451.78H1934.85C1916.52 2434.74 1906.99 2405.24 1904.51 2392.61L1916.89 2400.9C1909.46 2390.96 1894.81 2359.28 1888.41 2344.69L1900.8 2351.79C1883.96 2332.38 1876.44 2299.13 1874.79 2284.93Z" fill="url(#paint54_linear_893_1574)"/>
<path d="M1657.72 2257C1652.77 2308.12 1630.48 2355.61 1619.96 2372.97H1627.39L1609.43 2400.78H1624.91L1598.29 2444.56H1613.77L1550 2511.42L1575.38 2508.46C1585.91 2506.29 1611.04 2503.85 1627.39 2511.42C1643.73 2519 1702.71 2518.92 1730.16 2517.93L1723.35 2504.91L1755.54 2511.42L1733.87 2501.96H1766.69C1744.4 2487.76 1717.36 2443.97 1706.63 2423.85H1717.78C1699.45 2406.81 1689.92 2377.31 1687.44 2364.69L1699.82 2372.97C1692.39 2363.03 1677.74 2331.35 1671.34 2316.76L1683.73 2323.86C1666.89 2304.45 1659.37 2271.2 1657.72 2257Z" fill="url(#paint55_linear_893_1574)"/>
<path d="M1950.46 2329.64C1945.51 2380.76 1923.22 2428.25 1912.7 2445.61H1920.13L1902.17 2473.42H1917.65L1891.03 2517.2H1906.51L1842.74 2584.06L1868.12 2581.11C1878.65 2578.94 1903.78 2576.49 1920.13 2584.06C1936.47 2591.64 1995.45 2591.56 2022.9 2590.57L2016.09 2577.56L2048.28 2584.06L2026.61 2574.6H2059.42C2037.14 2560.4 2010.1 2516.61 1999.37 2496.5H2010.51C1992.19 2479.45 1982.66 2449.95 1980.18 2437.33L1992.56 2445.61C1985.13 2435.67 1970.48 2404 1964.08 2389.4L1976.46 2396.5C1959.62 2377.09 1952.11 2343.84 1950.46 2329.64Z" fill="url(#paint56_linear_893_1574)"/>
<path d="M2167.15 2254C2162.19 2305.12 2139.91 2352.61 2129.38 2369.97H2136.81L2118.86 2397.78H2134.34L2107.71 2441.56H2123.19L2059.42 2508.42L2084.81 2505.46C2095.33 2503.29 2120.47 2500.85 2136.81 2508.42C2153.16 2516 2212.14 2515.92 2239.58 2514.93L2232.77 2501.91L2264.97 2508.42L2243.3 2498.96H2276.11C2253.82 2484.76 2226.79 2440.97 2216.06 2420.85H2227.2C2208.87 2403.81 2199.34 2374.31 2196.86 2361.69L2209.25 2369.97C2201.82 2360.03 2187.17 2328.35 2180.77 2313.76L2193.15 2320.86C2176.31 2301.45 2168.8 2268.2 2167.15 2254Z" fill="url(#paint57_linear_893_1574)"/>
<path d="M2060.52 2306C2055.57 2357.12 2033.28 2404.61 2022.76 2421.97H2030.19L2012.23 2449.78H2027.71L2001.09 2493.56H2016.57L1952.8 2560.42L1978.18 2557.46C1988.71 2555.29 2013.84 2552.85 2030.19 2560.42C2046.53 2568 2105.51 2567.92 2132.96 2566.93L2126.15 2553.91L2158.34 2560.42L2136.67 2550.96H2169.49C2147.2 2536.76 2120.16 2492.97 2109.43 2472.85H2120.58C2102.25 2455.81 2092.72 2426.31 2090.24 2413.69L2102.62 2421.97C2095.19 2412.03 2080.54 2380.35 2074.14 2365.76L2086.53 2372.86C2069.69 2353.45 2062.18 2320.2 2060.52 2306Z" fill="url(#paint58_linear_893_1574)"/>
<path d="M57.7237 2334C52.7709 2385.12 30.4832 2432.61 19.9585 2449.97H27.3877L9.43375 2477.78H24.9113L-1.71008 2521.56H13.7675L-50 2588.42L-24.6168 2585.46C-14.0921 2583.29 11.0434 2580.85 27.3877 2588.42C43.732 2596 102.712 2595.92 130.159 2594.93L123.348 2581.91L155.542 2588.42L133.873 2578.96H166.686C144.398 2564.76 117.364 2520.97 106.633 2500.85H117.777C99.4511 2483.81 89.917 2454.31 87.4406 2441.69L99.8226 2449.97C92.3934 2440.03 77.7413 2408.35 71.3439 2393.76L83.7259 2400.86C66.8864 2381.45 59.3746 2348.2 57.7237 2334Z" fill="url(#paint59_linear_893_1574)"/>
<path d="M-95.18 2908.82C-212.599 2798.95 -159.781 2610.14 0.332825 2595.21C613.995 2538 1345.38 2621.31 1568.74 2466.85C1681.31 2389 1750.54 2395.4 1793.01 2429.44C1859.86 2483.03 1938.21 2554.72 2019.94 2528.99L2030.49 2525.67C2039.96 2522.69 2049.92 2521.59 2059.81 2522.43C2080.53 2524.19 2101.06 2517.41 2116.65 2503.67L2247.02 2388.78C2266.26 2371.82 2291.55 2363.37 2317.13 2365.36L2328.86 2366.28C2345.37 2367.57 2361.74 2362.52 2374.66 2352.17C2389.02 2340.65 2407.59 2335.76 2425.76 2338.68L2464.34 2344.9C2501.51 2350.89 2539.58 2342.98 2571.29 2322.69L2793.36 2180.56C2801.02 2175.65 2807.99 2169.72 2814.06 2162.94L2823.72 2152.14C2850.37 2122.35 2894.47 2115.8 2928.63 2136.55C2935.66 2140.82 2943.28 2144.02 2951.24 2146.05L2963.31 2149.12C2978.64 2153.02 2992.8 2160.55 3004.61 2171.07C3023.5 2187.91 3048.15 2196.84 3073.45 2196.02L3087.39 2195.57C3096.08 2195.29 3104.68 2193.75 3112.93 2191.01C3144.95 2180.38 3180.24 2188.48 3204.42 2212.02L3243.97 2250.51C3269.52 2275.39 3304.94 2287.39 3340.35 2283.16C3362.47 2280.52 3384.88 2284.19 3405 2293.74L3541.2 2358.39C3597.8 2385.25 3663.63 2384.47 3719.57 2356.26L3905.85 2262.35C3912.53 2258.98 3918.66 2254.61 3924.03 2249.4L3949.3 2224.9C3969.8 2205.02 4003.38 2208.92 4018.78 2232.97C4024.26 2241.54 4032.47 2248 4042.08 2251.32L4089.82 2267.8C4111.89 2275.42 4131.75 2288.35 4147.65 2305.45C4163.93 2322.95 4184.36 2336.08 4207.04 2343.62L4313.39 2378.97C4320.85 2381.45 4327.91 2384.98 4334.38 2389.45C4352.99 2402.32 4376.06 2407.02 4398.22 2402.44L4461.05 2389.46C4481.28 2385.28 4502.2 2392.14 4516.03 2407.48C4523 2415.21 4531.92 2420.94 4541.86 2424.05L4569.57 2432.72C4575.31 2434.52 4581.31 2435.33 4587.32 2435.12C4601.02 2434.63 4614.38 2439.46 4624.61 2448.6L4630.33 2453.72C4642.06 2464.2 4656.89 2470.57 4672.57 2471.85L4715.82 2475.4C4739.3 2477.33 4762.25 2483.35 4783.65 2493.2L4826.24 2512.82C4839.69 2519.01 4853.89 2523.39 4868.49 2525.84L4903.18 2531.68C4921.7 2534.8 4940.73 2530.95 4956.58 2520.86C4974.31 2509.58 4995.92 2506.14 5016.28 2511.37L5062.89 2523.35C5096.41 2531.97 5131.66 2531.11 5164.72 2520.87L5187.3 2513.88C5200.07 2509.93 5213.2 2507.25 5226.49 2505.87L5280.47 2500.3C5292.68 2499.04 5304.99 2499.29 5317.13 2501.03C5351.48 2505.97 5386.48 2498.82 5416.14 2480.8L5462.18 2452.83C5489.41 2436.28 5520.16 2426.38 5551.93 2423.93L5553.61 2423.8L5641.49 2416.08L5723.96 2408.59C5739.64 2407.16 5755.61 2403.69 5770.6 2398.89C6488.25 2168.72 6616.31 2608.46 7719.13 2320.78C7848.72 2286.98 7980.52 2378.23 7986.12 2512.04L8042.88 3868.47C8047.62 3981.72 7958.67 4076.89 7845.35 4079.81L1418.56 4245.34C1365.28 4246.72 1313.6 4227.07 1274.69 4190.66L-95.18 2908.82Z" fill="url(#paint60_linear_893_1574)"/>
<path d="M4462.75 3163.39C4482.07 3124.22 4542.17 3061.01 4585.73 3064.16L4798.83 3079.56C4815.19 3080.74 4831.43 3076.04 4844.63 3066.31L4868.93 3048.41C4920.6 3010.33 4991.67 3057.44 4976.72 3119.87L4955.14 3209.92C4952.93 3219.14 4953.81 3228.83 4957.63 3237.51C4969.63 3264.71 4951.32 3295.63 4921.71 3298.19L4709.84 3316.48C4703.75 3317.01 4697.62 3316.72 4691.6 3315.63L4573.72 3294.19C4569.27 3293.38 4564.93 3292.16 4560.79 3290.33C4533.95 3278.44 4430.96 3227.85 4462.75 3163.39Z" fill="#8FC9A1"/>
<path d="M4950.92 2643.95C4942.3 2762.52 4903.5 2872.68 4885.18 2912.93H4898.11L4866.86 2977.43H4893.8L4847.47 3078.99H4874.41L4763.42 3234.07L4807.6 3227.2C4825.92 3222.17 4869.67 3216.5 4898.11 3234.07C4926.56 3251.63 5029.22 3251.45 5076.99 3249.16L5065.14 3218.97L5121.18 3234.07L5083.46 3212.11H5140.57C5101.78 3179.17 5054.72 3077.62 5036.05 3030.96H5055.44C5023.55 2991.43 5006.95 2923 5002.64 2893.72L5024.19 2912.93C5011.26 2889.88 4985.76 2816.41 4974.62 2782.56L4996.17 2799.03C4966.86 2754.01 4953.79 2676.89 4950.92 2643.95Z" fill="url(#paint61_linear_893_1574)"/>
<path d="M3001.55 3085.63C2100.89 2987.68 476.669 2500.99 -49 2715.5L-81 4154.26L8249 4301.5L8366 2534.5C6768.96 2595.64 6060.82 2730.82 5152.42 3162.45C5152.42 3162.45 4435.61 3587.13 4111.47 3113.07C3787.33 2639 3530.29 2706.12 3442.28 2798.94C3207.37 3043.11 3117.79 3098.27 3001.55 3085.63Z" fill="url(#paint62_linear_893_1574)"/>
<path d="M2765.91 2800.32C2760.15 2879.64 2734.22 2953.32 2721.97 2980.25H2730.61L2709.72 3023.4H2727.73L2696.75 3091.33H2714.76L2640.56 3195.07L2670.1 3190.48C2682.34 3187.11 2711.59 3183.32 2730.61 3195.07C2749.63 3206.82 2818.27 3206.7 2850.21 3205.17L2842.28 3184.97L2879.75 3195.07L2854.53 3180.38H2892.71C2866.78 3158.35 2835.32 3090.41 2822.83 3059.2H2835.8C2814.47 3032.76 2803.38 2986.98 2800.5 2967.4L2814.91 2980.25C2806.26 2964.83 2789.21 2915.69 2781.76 2893.04L2796.17 2904.06C2776.58 2873.95 2767.84 2822.35 2765.91 2800.32Z" fill="url(#paint63_linear_893_1574)"/>
<path d="M2766.35 2646.89C2786.01 2653.87 2807.84 2653.54 2826.48 2644.17L2959.99 2577L2997.63 2555.52C3047.03 2527.34 3107.37 2567.82 3100.01 2624.22L3089.17 2707.31C3088.11 2715.45 3089.3 2723.71 3092.61 2731.21C3105.02 2759.34 3086.08 2791.34 3055.44 2793.98L2845.65 2812.09C2839.56 2812.62 2833.43 2812.33 2827.42 2811.24L2709.53 2789.8C2705.08 2788.99 2700.75 2787.77 2696.61 2785.94C2669.76 2774.05 2566.78 2723.46 2598.57 2659C2625.01 2605.38 2717.55 2629.57 2766.35 2646.89Z" fill="#8FC9A1"/>
<path d="M3453.21 2484.83C3445.77 2587.19 3412.3 2682.29 3396.49 2717.04H3407.65L3380.68 2772.73H3403.93L3363.95 2860.4H3387.19L3291.42 2994.29L3329.55 2988.36C3345.35 2984.02 3383.1 2979.12 3407.65 2994.29C3432.2 3009.45 3520.78 3009.29 3562 3007.32L3551.77 2981.25L3600.12 2994.29L3567.58 2975.33H3616.86C3583.38 2946.89 3542.78 2859.22 3526.66 2818.94H3543.4C3515.88 2784.81 3501.56 2725.73 3497.84 2700.46L3516.44 2717.04C3505.28 2697.14 3483.27 2633.71 3473.67 2604.49L3492.26 2618.71C3466.97 2579.85 3455.69 2513.26 3453.21 2484.83Z" fill="url(#paint64_linear_893_1574)"/>
<path d="M3671.19 2468.37C3666.22 2536.84 3643.83 2600.45 3633.25 2623.69H3640.72L3622.68 2660.94H3638.23L3611.49 2719.58H3627.03L3562.98 2809.13L3588.47 2805.17C3599.05 2802.26 3624.3 2798.99 3640.72 2809.13C3657.14 2819.28 3716.38 2819.17 3743.96 2817.85L3737.12 2800.41L3769.46 2809.13L3747.69 2796.45H3780.65C3758.26 2777.43 3731.1 2718.79 3720.32 2691.85H3731.52C3713.11 2669.02 3703.53 2629.5 3701.04 2612.6L3713.48 2623.69C3706.02 2610.38 3691.3 2567.96 3684.87 2548.41L3697.31 2557.92C3680.4 2531.92 3672.85 2487.39 3671.19 2468.37Z" fill="url(#paint65_linear_893_1574)"/>
<path d="M2902.59 2215.97C2895.4 2314.95 2863.03 2406.9 2847.75 2440.5H2858.54L2832.47 2494.34H2854.94L2816.29 2579.11H2838.76L2746.16 2708.56L2783.02 2702.83C2798.3 2698.63 2834.8 2693.9 2858.54 2708.56C2882.27 2723.22 2967.92 2723.07 3007.78 2721.16L2997.89 2695.96L3044.64 2708.56L3013.17 2690.23H3060.82C3028.45 2662.74 2989.2 2577.97 2973.61 2539.02H2989.8C2963.18 2506.03 2949.34 2448.9 2945.74 2424.46L2963.72 2440.5C2952.94 2421.25 2931.66 2359.93 2922.37 2331.67L2940.35 2345.42C2915.9 2307.84 2904.99 2243.46 2902.59 2215.97Z" fill="url(#paint66_linear_893_1574)"/>
<path d="M5946 2611.68C5927.18 2870.64 5842.5 3111.22 5802.51 3199.14H5830.74L5762.53 3340.01H5821.33L5720.19 3561.81H5778.99L5536.71 3900.51L5633.15 3885.52C5673.14 3874.53 5768.64 3862.14 5830.74 3900.51C5892.84 3938.87 6116.93 3938.47 6221.21 3933.48L6195.34 3867.54L6317.65 3900.51L6235.32 3852.55H6359.99C6275.31 3780.61 6172.6 3558.82 6131.83 3456.91H6174.17C6104.54 3370.59 6068.32 3221.12 6058.91 3157.18L6105.95 3199.14C6077.73 3148.79 6022.06 2988.33 5997.75 2914.4L6044.79 2950.37C5980.81 2852.06 5952.27 2683.61 5946 2611.68Z" fill="#19274B"/>
<path d="M6324.29 2423C6305.47 2681.96 6220.79 2922.55 6180.8 3010.47H6209.03L6140.81 3151.34H6199.62L6098.47 3373.14H6157.28L5915 3711.83L6011.44 3696.84C6051.43 3685.85 6146.93 3673.46 6209.03 3711.83C6271.13 3750.19 6495.22 3749.79 6599.5 3744.8L6573.62 3678.86L6695.94 3711.83L6613.61 3663.87H6738.28C6653.6 3591.94 6550.89 3370.14 6510.11 3268.23H6552.45C6482.83 3181.91 6446.6 3032.45 6437.19 2968.5L6484.24 3010.47C6456.01 2960.11 6400.34 2799.66 6376.04 2725.73L6423.08 2761.69C6359.1 2663.38 6330.56 2494.93 6324.29 2423Z" fill="#19274B"/>
<path d="M7453.98 2007C7429.85 2339.07 7321.23 2647.58 7269.94 2760.32H7306.14L7218.65 2940.96H7294.07L7164.34 3225.37H7239.77L6929 3659.68L7052.7 3640.47C7103.99 3626.37 7226.49 3610.49 7306.14 3659.68C7385.8 3708.88 7673.23 3708.37 7806.99 3701.96L7773.8 3617.41L7930.69 3659.68L7825.09 3598.19H7985C7876.38 3505.95 7744.63 3221.53 7692.34 3090.85H7746.65C7657.34 2980.16 7610.87 2788.5 7598.81 2706.51L7659.15 2760.32C7622.94 2695.75 7551.54 2489.99 7520.36 2395.19L7580.7 2441.31C7498.64 2315.24 7462.03 2099.24 7453.98 2007Z" fill="#19274B"/>
<path d="M4097.92 2906.27C4116.45 2868.7 4174.1 2808.07 4215.89 2811.09L4420.29 2825.86C4435.98 2826.99 4451.56 2822.49 4464.22 2813.15L4555.26 2746.06C4592.67 2718.5 4646.09 2737.16 4658.2 2782.02L4687.87 2892.06C4688.62 2894.82 4689.57 2897.51 4690.72 2900.13C4704.96 2932.39 4686.36 2969.66 4652.02 2977.69L4339.48 3050.76C4330.67 3052.81 4321.54 3053.04 4312.64 3051.42L4204.36 3031.74C4200.1 3030.96 4195.93 3029.78 4191.97 3028.03C4166.22 3016.63 4067.43 2968.1 4097.92 2906.27Z" fill="#DBE1BC"/>
<path d="M4304.58 2942.78L4335.4 2593.12L4465.91 2903.28L4304.58 2942.78Z" fill="#F7E7BA"/>
<path d="M4180.27 2919.4L4336.01 2591.2L4305.83 2941.53L4180.27 2919.4Z" fill="#DFA286"/>
<path d="M4334.92 2594.49L4350.25 2542.89M4334.92 2594.97L4329.2 2580.94L4323.49 2566.91" stroke="#D0977E" stroke-width="2.49151"/>
<path d="M4309.57 2896.06L4320.55 2716.72L4271.63 2728.59L4309.57 2896.06Z" fill="#B0861A"/>
<path d="M4274.9 2770.99L4216.12 2840.76L4274.9 2720.49V2770.99Z" fill="#931F2E"/>
<path d="M4270.47 2729.75L4322.03 2716.67L4335.73 2591.47L4270.47 2729.75Z" fill="#931F2E"/>
<path d="M4375.64 2846.95L4397.26 2784.13L4322.02 2710.44L4309.57 2896.06L4375.64 2846.95Z" fill="#FFBF1A"/>
<path d="M4396.72 2783.38L4405.49 2758.4L4335.73 2593.34L4320.78 2716.67L4396.72 2783.38Z" fill="#C5283D"/>
<path d="M4576.43 2926.98L4594.79 2718.68L4672.54 2903.45L4576.43 2926.98Z" fill="#F7E7BA"/>
<path d="M4502.37 2913.06L4595.16 2717.53L4577.18 2926.24L4502.37 2913.06Z" fill="#DFA286"/>
<path d="M4594.51 2719.49L4603.64 2688.75M4594.51 2719.78L4591.1 2711.42L4587.7 2703.06" stroke="#D0977E" stroke-width="1.4843"/>
<path d="M4579.4 2899.15L4585.94 2792.31L4556.8 2799.38L4579.4 2899.15Z" fill="#B0861A"/>
<path d="M4558.75 2824.64L4523.73 2866.21L4558.75 2794.56V2824.64Z" fill="#931F2E"/>
<path d="M4556.11 2800.07L4586.82 2792.28L4594.99 2717.69L4556.11 2800.07Z" fill="#931F2E"/>
<path d="M4618.76 2869.89L4631.65 2832.47L4586.82 2788.57L4579.4 2899.15L4618.76 2869.89Z" fill="#FFBF1A"/>
<path d="M4631.32 2832.02L4636.55 2817.14L4594.99 2718.81L4586.08 2792.28L4631.32 2832.02Z" fill="#C5283D"/>
<path d="M2419.09 3261.68L1354.34 3301.33V4173.19H7719V3539.83C6843.19 3625.8 6306.24 3507.54 5401.43 3529.44C5259.88 3532.86 5190.57 3546.61 5039 3539.83C4918.12 3534.43 4720.83 3466.51 4720.83 3466.51L4716.01 3451.02L4693.95 3461.38L4692.9 3442.93L4643.85 3463.89L4655 3434.65L4635.56 3439.32L4609.32 3462.85L4600.21 3441.09L4567.91 3462.15L4563.65 3439.22L4532.34 3460.23C4535.9 3453.57 4543.18 3439.51 4543.8 3436.52C4544.42 3433.53 4524.04 3441.21 4513.77 3445.43L4466.53 3463.52L4469.36 3443.95L4363.4 3468.69L4402.72 3432.48L4323.59 3461.43L4360.22 3429.99L4314.95 3447.99L4348.53 3414.84L4291.38 3449.17L4321.03 3416.22L4273.38 3444.52L4261.11 3419.22L4224.47 3433.09L4209.51 3412.55L4197.95 3434.42L4186.61 3408.15C4180.46 3415.55 4167.74 3429.82 4166.05 3427.69C4163.92 3425.02 4157.25 3411.47 4157.14 3409.63C4157.06 3408.15 4138.82 3422.27 4129.7 3429.51C4125.77 3423.85 4117.66 3411.61 4116.66 3407.95C4115.67 3404.3 4109.74 3419.1 4106.9 3426.95L4097.69 3403.35L4078.88 3419.1L4054.87 3395.32L4028.26 3412.38L4027.06 3391.16L3996.2 3402.89L3984.46 3386.82L3963.53 3399.9L3953.54 3380.04L3928.47 3389.62L3922.25 3366.8L3906.25 3397.22L3891.29 3376.68L3885.26 3391.79C3880.6 3384.93 3871.26 3370.84 3871.18 3369.36C3871.09 3367.88 3865.81 3378.88 3863.17 3384.57L3843.16 3379.09L3842.12 3360.64C3841.91 3356.95 3837.49 3371.67 3835.31 3379.49L3811.58 3377.9L3808.35 3378.06C3811.43 3373.55 3814.29 3369.34 3816.79 3365.61L3774.14 3362.43L3773.1 3359.47L3770.23 3362.13L3748.4 3360.51L3744.14 3352.59L3740.71 3360.84L3732.4 3364.22L3725.99 3345.17L3716.36 3369.85L3715.99 3368.65C3716.65 3362.15 3717.53 3352.17 3717.31 3348.38C3717.15 3345.59 3709.69 3352.1 3701.87 3359.8L3689.72 3365.5L3688.67 3347.04L3639.63 3368.01L3650.77 3338.76L3631.34 3343.44L3622.81 3351.08L3614.11 3335.05L3599.61 3353.89L3595.98 3345.21L3595.82 3345.31L3596.43 3335.93L3562.29 3358.76L3559.43 3343.34L3545.57 3352.63L3544.13 3351.51L3531.04 3358.78C3534.68 3351.79 3539.1 3342.94 3539.57 3340.64C3540.18 3337.67 3520.17 3345.19 3509.82 3349.43L3505.3 3344.2L3494.78 3355.2L3489.58 3357.19L3483.27 3337.9L3464.06 3355.48L3465.14 3348.07L3460.27 3349.2L3459.44 3334.47L3448.7 3351.91L3444.83 3352.81L3438.6 3331.81L3423.32 3357.57L3371.76 3361.22L3398.49 3336.6L3321.47 3364.78L3320.15 3364.88L3355.99 3334.1L3310.72 3352.11L3344.3 3318.96L3287.15 3353.29L3316.8 3320.34L3269.15 3348.64L3256.88 3323.34L3220.24 3337.21L3205.28 3316.67L3193.72 3338.54L3182.38 3312.27C3176.23 3319.67 3163.52 3333.94 3161.82 3331.81C3159.7 3329.14 3153.02 3315.59 3152.91 3313.74C3152.83 3312.27 3134.59 3326.38 3125.48 3333.63C3121.54 3327.96 3113.43 3315.72 3112.43 3312.07C3111.44 3308.42 3105.51 3323.21 3102.68 3331.07L3093.46 3307.47L3074.65 3323.22L3050.65 3299.44L3024.04 3316.5L3022.83 3295.28L2991.98 3307L2980.23 3290.94L2959.3 3304.01L2949.31 3284.16L2924.24 3293.74L2918.02 3270.92L2902.02 3301.33L2887.06 3280.8L2881.03 3295.91C2876.37 3289.05 2867.03 3274.95 2866.95 3273.48C2866.86 3272 2861.58 3283 2858.95 3288.69L2838.93 3283.21L2837.89 3264.76C2837.68 3261.06 2833.26 3275.78 2831.08 3283.6L2807.35 3282.02L2775.92 3283.59L2768.87 3263.59L2752.03 3279.24L2739.92 3256.71L2731.25 3277.5L2721.77 3249.29L2711.45 3275.72C2712.1 3269.83 2713.33 3256.93 2713.08 3252.5C2712.83 3248.07 2694.21 3267.02 2684.93 3277.05C2681.15 3274.15 2673.76 3267.8 2674.42 3265.54C2675.08 3263.29 2646.34 3274.05 2631.89 3279.71L2609.89 3239.17L2590.62 3264.19L2592.21 3240.05L2553.3 3266.06L2539.9 3255.63L2517.94 3267.84L2501.07 3248.32L2486.19 3263.87L2479.04 3242.02L2456.57 3262.58L2455.21 3238.59L2441.68 3260.55L2434.37 3235.93L2419.09 3261.68Z" fill="#19274B"/>
<path d="M6835.91 3390.75L7900.66 3430.4V4302.26H1536V3668.9C2411.81 3754.87 2948.76 3636.61 3853.57 3658.5C3995.12 3661.93 4064.43 3675.67 4216 3668.9C4336.88 3663.5 4534.17 3595.58 4534.17 3595.58L4538.99 3580.09L4561.05 3590.45L4562.1 3571.99L4611.15 3592.96L4600 3563.71L4619.44 3568.39L4645.68 3591.91L4654.79 3570.16L4687.09 3591.21L4691.35 3568.29L4722.66 3589.29C4719.1 3582.64 4711.82 3568.58 4711.2 3565.58C4710.58 3562.59 4730.96 3570.28 4741.23 3574.49L4788.47 3592.59L4785.64 3573.02L4891.6 3597.76L4852.28 3561.55L4931.41 3590.5L4894.78 3559.05L4940.05 3577.05L4906.47 3543.91L4963.62 3578.24L4933.97 3545.29L4981.62 3573.58L4993.89 3548.29L5030.53 3562.16L5045.49 3541.62L5057.05 3563.48L5068.39 3537.22C5074.54 3544.62 5087.26 3558.89 5088.95 3556.75C5091.08 3554.08 5097.75 3540.54 5097.86 3538.69C5097.94 3537.22 5116.18 3551.33 5125.3 3558.58C5129.23 3552.91 5137.34 3540.67 5138.34 3537.02C5139.33 3533.37 5145.26 3548.16 5148.1 3556.02L5157.31 3532.42L5176.12 3548.17L5200.13 3524.39L5226.74 3541.45L5227.94 3520.23L5258.8 3531.95L5270.54 3515.88L5291.47 3528.96L5301.46 3509.11L5326.53 3518.69L5332.75 3495.87L5348.75 3526.28L5363.71 3505.75L5369.74 3520.86C5374.4 3514 5383.74 3499.9 5383.82 3498.43C5383.91 3496.95 5389.19 3507.95 5391.83 3513.63L5411.84 3508.16L5412.88 3489.7C5413.09 3486.01 5417.51 3500.73 5419.69 3508.55L5443.42 3506.97L5446.65 3507.13C5443.57 3502.62 5440.71 3498.41 5438.21 3494.68L5480.86 3491.49L5481.9 3488.54L5484.77 3491.2L5506.6 3489.57L5510.86 3481.66L5514.29 3489.91L5522.6 3493.28L5529.01 3474.24L5538.64 3498.91L5539.01 3497.71C5538.35 3491.22 5537.47 3481.24 5537.69 3477.45C5537.85 3474.66 5545.31 3481.16 5553.13 3488.86L5565.28 3494.57L5566.33 3476.11L5615.37 3497.08L5604.23 3467.83L5623.66 3472.51L5632.19 3480.15L5640.89 3464.12L5655.39 3482.96L5659.02 3474.28L5659.18 3474.38L5658.57 3465L5692.71 3487.83L5695.57 3472.41L5709.43 3481.7L5710.87 3480.58L5723.96 3487.85C5720.32 3480.86 5715.9 3472 5715.43 3469.7C5714.82 3466.74 5734.83 3474.26 5745.18 3478.5L5749.7 3473.27L5760.22 3484.27L5765.42 3486.26L5771.73 3466.97L5790.94 3484.55L5789.86 3477.13L5794.73 3478.27L5795.56 3463.54L5806.3 3480.97L5810.17 3481.88L5816.4 3460.88L5831.68 3486.63L5883.24 3490.29L5856.51 3465.67L5933.53 3493.85L5934.85 3493.94L5899.01 3463.17L5944.28 3481.17L5910.7 3448.03L5967.85 3482.35L5938.2 3449.4L5985.85 3477.7L5998.12 3452.41L6034.76 3466.27L6049.72 3445.74L6061.28 3467.6L6072.62 3441.33C6078.77 3448.74 6091.48 3463.01 6093.18 3460.87C6095.3 3458.2 6101.98 3444.66 6102.09 3442.81C6102.17 3441.34 6120.41 3455.45 6129.52 3462.69C6133.46 3457.03 6141.57 3444.79 6142.57 3441.14C6143.56 3437.49 6149.49 3452.28 6152.32 3460.14L6161.54 3436.54L6180.35 3452.29L6204.35 3428.5L6230.96 3445.57L6232.17 3424.35L6263.02 3436.07L6274.77 3420L6295.7 3433.08L6305.69 3413.22L6330.76 3422.81L6336.98 3399.99L6352.98 3430.4L6367.94 3409.87L6373.97 3424.97C6378.63 3418.11 6387.97 3404.02 6388.05 3402.55C6388.14 3401.07 6393.42 3412.07 6396.05 3417.75L6416.07 3412.28L6417.11 3393.82C6417.32 3390.13 6421.74 3404.85 6423.92 3412.67L6447.65 3411.08L6479.08 3412.66L6486.13 3392.65L6502.97 3408.3L6515.08 3385.78L6523.75 3406.57L6533.23 3378.36L6543.55 3404.79C6542.9 3398.89 6541.67 3386 6541.92 3381.57C6542.17 3377.14 6560.79 3396.09 6570.07 3406.12C6573.85 3403.22 6581.24 3396.87 6580.58 3394.61C6579.92 3392.36 6608.66 3403.11 6623.11 3408.77L6645.11 3368.23L6664.38 3393.26L6662.79 3369.12L6701.7 3395.13L6715.1 3384.7L6737.06 3396.9L6753.93 3377.39L6768.81 3392.94L6775.96 3371.09L6798.43 3391.65L6799.79 3367.66L6813.32 3389.62L6820.63 3365L6835.91 3390.75Z" fill="#19274B"/>
<path d="M2827.1 2919.03C2815.39 2917.52 2802.38 2902.67 2797.34 2895.44C2793.56 2907.08 2794.23 2934.5 2827.1 2951.11C2863 2965.45 2866.94 2937.27 2864.42 2921.39C2862.22 2911.72 2860.97 2904.12 2860.44 2898.23C2863.52 2903.37 2871.8 2908.88 2878.59 2912.42C2866.12 2931.67 2873.39 2960.08 2878.59 2971.87V2986.84H2878.49V3045.69C2873.42 3088.96 2891.34 3113.51 2900.93 3120.38C2907.46 3158.76 2934.47 3202.69 2947.16 3203.22C2956.05 3239.25 2946.94 3297.6 2941.27 3322.27L2964.16 3330.42C2962.35 3277 2974.74 3253.39 2981.16 3248.26V3341.51H3011.53C3002.1 3276.87 3023.31 3246.22 3035.1 3238.98C3105.75 3287.99 3166.35 3267.93 3188.11 3260.73C3190.57 3259.91 3192.54 3259.26 3193.96 3258.9C3205.21 3256 3248.36 3309.29 3268.53 3336.3L3265.13 3431.14H3295.5L3303.2 3387.68L3320.2 3437.02H3344.67L3338.1 3423.44C3332.66 3410.77 3326.92 3348.3 3324.73 3318.65C3274.15 3285.51 3279.33 3242.22 3288.24 3224.72C3369.65 3131.29 3271.55 3073.38 3212.32 3056.1C3189.05 3056.78 3135.68 3053.02 3108.3 3032.56C3085.63 3015.62 3050.83 2999.99 3028.68 2991.3C3022.88 2972.28 3004.65 2960.37 2996.2 2956.77C2990.15 2943.19 2979.83 2935.38 2975.42 2933.18C2975.42 2933.09 2975.42 2932.95 2975.43 2932.76C2975.5 2930.03 2975.85 2917.45 2968.33 2908.18C2995.86 2906.93 2993.56 2893.17 2992.64 2887.7C2992.52 2886.97 2992.42 2886.39 2992.42 2886C2992.42 2883.36 2983.6 2881.76 2979.2 2881.29C3006.4 2871.09 3011.94 2892.77 3011.31 2904.88C2988.26 2886.38 2991.95 2931.3 3003.76 2944.03C3038.71 2978.48 3065.63 2935.54 3059.02 2890.72C3035.4 2788.34 2940.94 2816.65 2913.54 2867.13C2896.06 2807.21 2790.26 2803.44 2827.1 2919.03Z" fill="#19274B"/>
<path d="M2750.73 2835.49C2762.14 2834.1 2714.41 2831.35 2752.08 2831.35C2755.76 2842.06 2782.74 2849.74 2750.73 2865.02C2715.79 2878.22 2711.95 2852.28 2714.41 2837.66C2716.54 2828.76 2713.89 2840.91 2714.41 2835.49C2711.41 2840.22 2721.01 2832.23 2714.41 2835.49C2726.55 2853.21 2705.67 2873.27 2700.61 2884.13V2897.9H2700.7L2673.93 2966.54C2678.87 3006.36 2688.2 3014.49 2678.86 3020.8C2672.51 3056.13 2646.21 3096.56 2633.85 3097.05C2625.2 3130.21 2650.62 3282.03 2656.14 3304.73L2633.85 3312.23C2635.62 3263.07 2607.01 3143.22 2600.76 3138.5L2617.31 3322.44H2587.74C2596.92 3262.94 2559.72 3136.63 2548.25 3129.96C2479.47 3175.06 2420.48 3156.61 2399.29 3149.98C2396.89 3149.23 2394.98 3148.63 2393.59 3148.29C2382.65 3145.62 2340.64 3194.67 2321 3219.53L2324.31 3306.81H2294.75L2287.25 3266.82L2270.7 3312.23H2246.87L2253.27 3299.73C2258.57 3288.07 2264.16 3230.57 2266.29 3203.28C2315.53 3172.79 2310.49 3132.94 2301.81 3116.84C2222.56 3030.85 2318.06 2977.55 2375.72 2961.64C2398.37 2962.27 2450.34 2958.81 2476.99 2939.98C2499.06 2924.39 2532.94 2910 2554.5 2902.01C2560.14 2884.5 2577.89 2873.54 2586.11 2870.23C2592 2857.72 2602.06 2850.55 2606.35 2848.52C2606.35 2848.44 2606.34 2848.31 2606.34 2848.13C2589.79 2848.13 2593.44 2839.88 2600.76 2831.35C2573.96 2830.2 2588.69 2811.7 2589.58 2806.66C2589.7 2805.99 2589.79 2805.45 2589.79 2805.1C2589.79 2802.67 2598.38 2801.19 2602.67 2800.76C2576.18 2791.38 2570.79 2811.32 2571.4 2822.47C2593.84 2805.45 2590.25 2846.78 2578.76 2858.51C2544.73 2890.2 2518.52 2850.69 2524.96 2809.44C2547.95 2715.21 2639.91 2741.27 2666.58 2787.73C2683.6 2732.58 2786.6 2729.11 2750.73 2835.49Z" fill="#19274B"/>
<path d="M1591.26 2712C1630.01 2621.32 1712.06 2373.18 1730.3 2106.08C1736.38 2180.27 1764.03 2354.01 1826.03 2455.41L1780.44 2418.31C1804 2494.57 1857.94 2660.06 1885.29 2712L1839.71 2668.72C1848.82 2734.67 1883.92 2888.83 1951.39 2977.86H1910.36C1949.87 3082.97 2049.4 3311.74 2131.46 3385.93H2010.65L2090.43 3435.39L1971.91 3401.39L1996.98 3469.4C1943.81 3472.11 1858.5 3473.51 1780.83 3468.46V3605.68H1681.08V3456.65C1654.25 3451.37 1632.34 3444.42 1618.61 3435.39C1558.44 3395.82 1465.9 3408.6 1427.15 3419.94L1333.7 3435.39L1568.47 3086.06H1511.49L1609.5 2857.29H1552.51L1618.61 2712H1591.26Z" fill="#19274B"/>
<path d="M830.5 3373C1029.89 3314.96 1149.86 3304.98 1357.5 3302C1382.49 3301.64 1421.5 3302 1421.5 3302L1490 4156.5L-202 4243.5L-121 3671.5C-121 3671.5 218.798 3617.28 426.5 3547C589.219 3491.94 665.564 3421.01 830.5 3373Z" fill="#19274B"/>
<path opacity="0.75" d="M8383.77 921.374C7842.82 916.312 6757.28 906.189 6742.7 906.189V359.501C6802.43 351.065 6897.39 351.402 6985.67 574.127C6985.67 574.127 7078.41 717.683 7218.52 583.238C7330.64 440.963 7437.51 651.209 7451.78 681.035C7452.91 683.389 7453.91 685.608 7455.25 687.846C7465.99 705.742 7524.8 784.417 7673.08 664.229C7754.7 598.072 7831.95 737.538 7902.35 810.349C7924.73 833.504 7954.75 846.533 7985.3 856.718C8010.96 865.271 8038.31 867.112 8065.15 863.813C8257.08 840.222 8356.93 891.004 8383.77 921.374Z" fill="#F5FDE6"/>
<path opacity="0.75" d="M5141 921.374C5681.95 916.312 6767.5 906.189 6782.07 906.189V359.501C6722.34 351.065 6627.38 351.402 6539.1 574.127C6539.1 574.127 6446.37 717.683 6306.25 583.238C6194.13 440.963 6087.27 651.209 6072.99 681.035C6071.87 683.389 6070.86 685.608 6069.52 687.846C6058.78 705.742 5999.98 784.417 5851.69 664.229C5770.07 598.072 5692.82 737.538 5622.43 810.349C5600.04 833.504 5570.03 846.533 5539.47 856.718C5513.81 865.271 5486.47 867.112 5459.62 863.813C5267.69 840.222 5167.84 891.004 5141 921.374Z" fill="#F5FDE6"/>
</g>
<defs>
<linearGradient id="paint0_linear_893_1574" x1="3844.5" y1="0" x2="3844.5" y2="4136" gradientUnits="userSpaceOnUse">
<stop stop-color="#D1F5E0"/>
<stop offset="0.338523" stop-color="#F5FDDC"/>
</linearGradient>
<linearGradient id="paint1_linear_893_1574" x1="3767.26" y1="1574.11" x2="3803.98" y2="2618.12" gradientUnits="userSpaceOnUse">
<stop stop-color="#B5EBCD"/>
<stop offset="1" stop-color="#EAFEEE"/>
</linearGradient>
<linearGradient id="paint2_linear_893_1574" x1="-934.645" y1="1574.11" x2="-971.361" y2="2618.12" gradientUnits="userSpaceOnUse">
<stop stop-color="#B5EBCD"/>
<stop offset="1" stop-color="#EAFEEE"/>
</linearGradient>
<linearGradient id="paint3_linear_893_1574" x1="8727.36" y1="1229.36" x2="8692.65" y2="3805.53" gradientUnits="userSpaceOnUse">
<stop stop-color="#B5EBCD"/>
<stop offset="1" stop-color="#EAFEEE"/>
</linearGradient>
<linearGradient id="paint4_linear_893_1574" x1="4001.56" y1="2070.57" x2="4001.56" y2="2254.29" gradientUnits="userSpaceOnUse">
<stop stop-color="#69DBB2"/>
<stop offset="1" stop-color="#21948B"/>
</linearGradient>
<linearGradient id="paint5_linear_893_1574" x1="2273.25" y1="2155.62" x2="2273.25" y2="2423.01" gradientUnits="userSpaceOnUse">
<stop stop-color="#69DBB2"/>
<stop offset="1" stop-color="#21948B"/>
</linearGradient>
<linearGradient id="paint6_linear_893_1574" x1="2391.63" y1="2012.96" x2="2391.63" y2="2390.8" gradientUnits="userSpaceOnUse">
<stop stop-color="#69DBB2"/>
<stop offset="1" stop-color="#21948B"/>
</linearGradient>
<linearGradient id="paint7_linear_893_1574" x1="329.458" y1="2224" x2="329.458" y2="2601.84" gradientUnits="userSpaceOnUse">
<stop stop-color="#69DBB2"/>
<stop offset="1" stop-color="#21948B"/>
</linearGradient>
<linearGradient id="paint8_linear_893_1574" x1="2517.71" y1="2079.54" x2="2517.71" y2="2384.58" gradientUnits="userSpaceOnUse">
<stop stop-color="#69DBB2"/>
<stop offset="1" stop-color="#21948B"/>
</linearGradient>
<linearGradient id="paint9_linear_893_1574" x1="2651.33" y1="2012.96" x2="2651.33" y2="2318" gradientUnits="userSpaceOnUse">
<stop stop-color="#69DBB2"/>
<stop offset="1" stop-color="#21948B"/>
</linearGradient>
<linearGradient id="paint10_linear_893_1574" x1="2797.88" y1="2048.62" x2="2797.88" y2="2353.67" gradientUnits="userSpaceOnUse">
<stop stop-color="#69DBB2"/>
<stop offset="1" stop-color="#21948B"/>
</linearGradient>
<linearGradient id="paint11_linear_893_1574" x1="3018.79" y1="1826.41" x2="3018.79" y2="2231.98" gradientUnits="userSpaceOnUse">
<stop stop-color="#69DBB2"/>
<stop offset="1" stop-color="#21948B"/>
</linearGradient>
<linearGradient id="paint12_linear_893_1574" x1="582.5" y1="2156" x2="582.5" y2="2612" gradientUnits="userSpaceOnUse">
<stop stop-color="#69DBB2"/>
<stop offset="1" stop-color="#21948B"/>
</linearGradient>
<linearGradient id="paint13_linear_893_1574" x1="1257.08" y1="2185" x2="1257.08" y2="2590.57" gradientUnits="userSpaceOnUse">
<stop stop-color="#69DBB2"/>
<stop offset="1" stop-color="#21948B"/>
</linearGradient>
<linearGradient id="paint14_linear_893_1574" x1="422.078" y1="2238" x2="422.078" y2="2643.57" gradientUnits="userSpaceOnUse">
<stop stop-color="#69DBB2"/>
<stop offset="1" stop-color="#21948B"/>
</linearGradient>
<linearGradient id="paint15_linear_893_1574" x1="3270.95" y1="1999.24" x2="3270.95" y2="2404.81" gradientUnits="userSpaceOnUse">
<stop stop-color="#69DBB2"/>
<stop offset="1" stop-color="#21948B"/>
</linearGradient>
<linearGradient id="paint16_linear_893_1574" x1="3417.5" y1="2078.8" x2="3417.5" y2="2484.37" gradientUnits="userSpaceOnUse">
<stop stop-color="#69DBB2"/>
<stop offset="0.590327" stop-color="#21948B"/>
</linearGradient>
<linearGradient id="paint17_linear_893_1574" x1="3543.58" y1="2106.23" x2="3543.58" y2="2404.35" gradientUnits="userSpaceOnUse">
<stop stop-color="#69DBB2"/>
<stop offset="1" stop-color="#21948B"/>
</linearGradient>
<linearGradient id="paint18_linear_893_1574" x1="3198.75" y1="1958.09" x2="3198.75" y2="2256.2" gradientUnits="userSpaceOnUse">
<stop stop-color="#69DBB2"/>
<stop offset="1" stop-color="#21948B"/>
</linearGradient>
<linearGradient id="paint19_linear_893_1574" x1="3676.12" y1="2040.39" x2="3676.12" y2="2404.37" gradientUnits="userSpaceOnUse">
<stop stop-color="#69DBB2"/>
<stop offset="1" stop-color="#21948B"/>
</linearGradient>
<linearGradient id="paint20_linear_893_1574" x1="3606.08" y1="2205" x2="3606.08" y2="2406.05" gradientUnits="userSpaceOnUse">
<stop stop-color="#69DBB2"/>
<stop offset="1" stop-color="#21948B"/>
</linearGradient>
<linearGradient id="paint21_linear_893_1574" x1="3790.35" y1="2098.01" x2="3790.35" y2="2344.12" gradientUnits="userSpaceOnUse">
<stop stop-color="#69DBB2"/>
<stop offset="1" stop-color="#21948B"/>
</linearGradient>
<linearGradient id="paint22_linear_893_1574" x1="3889.49" y1="2029.42" x2="3889.49" y2="2344.86" gradientUnits="userSpaceOnUse">
<stop stop-color="#69DBB2"/>
<stop offset="1" stop-color="#21948B"/>
</linearGradient>
<linearGradient id="paint23_linear_893_1574" x1="3968.15" y1="2078.8" x2="3968.15" y2="2231.32" gradientUnits="userSpaceOnUse">
<stop stop-color="#69DBB2"/>
<stop offset="1" stop-color="#21948B"/>
</linearGradient>
<linearGradient id="paint24_linear_893_1574" x1="4032.81" y1="2139.16" x2="4032.81" y2="2291.68" gradientUnits="userSpaceOnUse">
<stop stop-color="#69DBB2"/>
<stop offset="1" stop-color="#21948B"/>
</linearGradient>
<linearGradient id="paint25_linear_893_1574" x1="4079.14" y1="2122.7" x2="4079.14" y2="2306.42" gradientUnits="userSpaceOnUse">
<stop stop-color="#69DBB2"/>
<stop offset="1" stop-color="#21948B"/>
</linearGradient>
<linearGradient id="paint26_linear_893_1574" x1="4207.38" y1="2067.83" x2="4207.38" y2="2372.87" gradientUnits="userSpaceOnUse">
<stop stop-color="#69DBB2"/>
<stop offset="1" stop-color="#21948B"/>
</linearGradient>
<linearGradient id="paint27_linear_893_1574" x1="4325.91" y1="2185.8" x2="4325.91" y2="2414.58" gradientUnits="userSpaceOnUse">
<stop stop-color="#69DBB2"/>
<stop offset="1" stop-color="#21948B"/>
</linearGradient>
<linearGradient id="paint28_linear_893_1574" x1="4400.26" y1="2270.84" x2="4400.26" y2="2412.96" gradientUnits="userSpaceOnUse">
<stop stop-color="#69DBB2"/>
<stop offset="1" stop-color="#21948B"/>
</linearGradient>
<linearGradient id="paint29_linear_893_1574" x1="4482.16" y1="2215.97" x2="4482.16" y2="2427.42" gradientUnits="userSpaceOnUse">
<stop stop-color="#69DBB2"/>
<stop offset="1" stop-color="#21948B"/>
</linearGradient>
<linearGradient id="paint30_linear_893_1574" x1="4567.29" y1="2292.79" x2="4567.29" y2="2466.11" gradientUnits="userSpaceOnUse">
<stop stop-color="#69DBB2"/>
<stop offset="1" stop-color="#21948B"/>
</linearGradient>
<linearGradient id="paint31_linear_893_1574" x1="4658.89" y1="2185.8" x2="4658.89" y2="2542.84" gradientUnits="userSpaceOnUse">
<stop stop-color="#69DBB2"/>
<stop offset="1" stop-color="#21948B"/>
</linearGradient>
<linearGradient id="paint32_linear_893_1574" x1="4788.2" y1="2270.84" x2="4788.2" y2="2544.69" gradientUnits="userSpaceOnUse">
<stop stop-color="#69DBB2"/>
<stop offset="1" stop-color="#21948B"/>
</linearGradient>
<linearGradient id="paint33_linear_893_1574" x1="4951.99" y1="2155.62" x2="4951.99" y2="2568.12" gradientUnits="userSpaceOnUse">
<stop stop-color="#69DBB2"/>
<stop offset="1" stop-color="#21948B"/>
</linearGradient>
<linearGradient id="paint34_linear_893_1574" x1="5087.77" y1="2279.07" x2="5087.77" y2="2566.79" gradientUnits="userSpaceOnUse">
<stop stop-color="#69DBB2"/>
<stop offset="1" stop-color="#21948B"/>
</linearGradient>
<linearGradient id="paint35_linear_893_1574" x1="5258.03" y1="2045.88" x2="5258.03" y2="2555.44" gradientUnits="userSpaceOnUse">
<stop stop-color="#69DBB2"/>
<stop offset="1" stop-color="#21948B"/>
</linearGradient>
<linearGradient id="paint36_linear_893_1574" x1="6809.41" y1="1949" x2="6809.41" y2="2458.56" gradientUnits="userSpaceOnUse">
<stop stop-color="#69DBB2"/>
<stop offset="1" stop-color="#21948B"/>
</linearGradient>
<linearGradient id="paint37_linear_893_1574" x1="7036.41" y1="1949" x2="7036.41" y2="2458.56" gradientUnits="userSpaceOnUse">
<stop stop-color="#69DBB2"/>
<stop offset="1" stop-color="#21948B"/>
</linearGradient>
<linearGradient id="paint38_linear_893_1574" x1="5402.43" y1="2174.82" x2="5402.43" y2="2545.73" gradientUnits="userSpaceOnUse">
<stop stop-color="#69DBB2"/>
<stop offset="1" stop-color="#21948B"/>
</linearGradient>
<linearGradient id="paint39_linear_893_1574" x1="5537.3" y1="2108" x2="5537.3" y2="2478.91" gradientUnits="userSpaceOnUse">
<stop stop-color="#69DBB2"/>
<stop offset="1" stop-color="#21948B"/>
</linearGradient>
<linearGradient id="paint40_linear_893_1574" x1="6693.3" y1="2088" x2="6693.3" y2="2458.91" gradientUnits="userSpaceOnUse">
<stop stop-color="#69DBB2"/>
<stop offset="1" stop-color="#21948B"/>
</linearGradient>
<linearGradient id="paint41_linear_893_1574" x1="5679.53" y1="2164.55" x2="5679.53" y2="2535.45" gradientUnits="userSpaceOnUse">
<stop stop-color="#69DBB2"/>
<stop offset="1" stop-color="#21948B"/>
</linearGradient>
<linearGradient id="paint42_linear_893_1574" x1="5799.83" y1="1872.19" x2="5799.83" y2="2439.7" gradientUnits="userSpaceOnUse">
<stop stop-color="#69DBB2"/>
<stop offset="1" stop-color="#21948B"/>
</linearGradient>
<linearGradient id="paint43_linear_893_1574" x1="962.222" y1="2034" x2="962.222" y2="2601.51" gradientUnits="userSpaceOnUse">
<stop stop-color="#69DBB2"/>
<stop offset="1" stop-color="#21948B"/>
</linearGradient>
<linearGradient id="paint44_linear_893_1574" x1="810.222" y1="2089" x2="810.222" y2="2656.51" gradientUnits="userSpaceOnUse">
<stop stop-color="#69DBB2"/>
<stop offset="1" stop-color="#21948B"/>
</linearGradient>
<linearGradient id="paint45_linear_893_1574" x1="6359.22" y1="1820" x2="6359.22" y2="2387.51" gradientUnits="userSpaceOnUse">
<stop stop-color="#69DBB2"/>
<stop offset="1" stop-color="#21948B"/>
</linearGradient>
<linearGradient id="paint46_linear_893_1574" x1="6475.22" y1="1891" x2="6475.22" y2="2458.51" gradientUnits="userSpaceOnUse">
<stop stop-color="#69DBB2"/>
<stop offset="1" stop-color="#21948B"/>
</linearGradient>
<linearGradient id="paint47_linear_893_1574" x1="5954.6" y1="2092.32" x2="5954.6" y2="2412.19" gradientUnits="userSpaceOnUse">
<stop stop-color="#69DBB2"/>
<stop offset="1" stop-color="#21948B"/>
</linearGradient>
<linearGradient id="paint48_linear_893_1574" x1="6084.22" y1="2046" x2="6084.22" y2="2365.87" gradientUnits="userSpaceOnUse">
<stop stop-color="#69DBB2"/>
<stop offset="1" stop-color="#21948B"/>
</linearGradient>
<linearGradient id="paint49_linear_893_1574" x1="7354.22" y1="2108" x2="7354.22" y2="2427.87" gradientUnits="userSpaceOnUse">
<stop stop-color="#69DBB2"/>
<stop offset="1" stop-color="#21948B"/>
</linearGradient>
<linearGradient id="paint50_linear_893_1574" x1="7503.5" y1="1982" x2="7503.5" y2="2408" gradientUnits="userSpaceOnUse">
<stop stop-color="#69DBB2"/>
<stop offset="1" stop-color="#21948B"/>
</linearGradient>
<linearGradient id="paint51_linear_893_1574" x1="6231.22" y1="2068" x2="6231.22" y2="2387.87" gradientUnits="userSpaceOnUse">
<stop stop-color="#69DBB2"/>
<stop offset="1" stop-color="#21948B"/>
</linearGradient>
<linearGradient id="paint52_linear_893_1574" x1="1552.1" y1="2133.59" x2="1552.1" y2="2611.68" gradientUnits="userSpaceOnUse">
<stop stop-color="#69DBB2"/>
<stop offset="1" stop-color="#21948B"/>
</linearGradient>
<linearGradient id="paint53_linear_893_1574" x1="1727.52" y1="2088.88" x2="1727.52" y2="2566.96" gradientUnits="userSpaceOnUse">
<stop stop-color="#69DBB2"/>
<stop offset="1" stop-color="#21948B"/>
</linearGradient>
<linearGradient id="paint54_linear_893_1574" x1="1875.41" y1="2284.93" x2="1875.41" y2="2546.33" gradientUnits="userSpaceOnUse">
<stop stop-color="#69DBB2"/>
<stop offset="1" stop-color="#21948B"/>
</linearGradient>
<linearGradient id="paint55_linear_893_1574" x1="1658.34" y1="2257" x2="1658.34" y2="2518.4" gradientUnits="userSpaceOnUse">
<stop stop-color="#69DBB2"/>
<stop offset="1" stop-color="#21948B"/>
</linearGradient>
<linearGradient id="paint56_linear_893_1574" x1="1951.08" y1="2329.64" x2="1951.08" y2="2591.04" gradientUnits="userSpaceOnUse">
<stop stop-color="#69DBB2"/>
<stop offset="1" stop-color="#21948B"/>
</linearGradient>
<linearGradient id="paint57_linear_893_1574" x1="2167.77" y1="2254" x2="2167.77" y2="2515.4" gradientUnits="userSpaceOnUse">
<stop stop-color="#69DBB2"/>
<stop offset="1" stop-color="#21948B"/>
</linearGradient>
<linearGradient id="paint58_linear_893_1574" x1="2061.14" y1="2306" x2="2061.14" y2="2567.4" gradientUnits="userSpaceOnUse">
<stop stop-color="#69DBB2"/>
<stop offset="1" stop-color="#21948B"/>
</linearGradient>
<linearGradient id="paint59_linear_893_1574" x1="58.3428" y1="2334" x2="58.3428" y2="2595.4" gradientUnits="userSpaceOnUse">
<stop stop-color="#69DBB2"/>
<stop offset="1" stop-color="#21948B"/>
</linearGradient>
<linearGradient id="paint60_linear_893_1574" x1="3154.57" y1="2172.08" x2="3357.41" y2="3157.86" gradientUnits="userSpaceOnUse">
<stop stop-color="#D0E6AA"/>
<stop offset="1" stop-color="#7FD3A9"/>
</linearGradient>
<linearGradient id="paint61_linear_893_1574" x1="4951.99" y1="2643.95" x2="4951.99" y2="3250.25" gradientUnits="userSpaceOnUse">
<stop stop-color="#69DBB2"/>
<stop offset="1" stop-color="#21948B"/>
</linearGradient>
<linearGradient id="paint62_linear_893_1574" x1="3437.97" y1="2819.53" x2="6510.24" y2="4704.54" gradientUnits="userSpaceOnUse">
<stop stop-color="#85D4A6"/>
<stop offset="1" stop-color="#D3D58D"/>
</linearGradient>
<linearGradient id="paint63_linear_893_1574" x1="2766.64" y1="2800.32" x2="2766.64" y2="3205.89" gradientUnits="userSpaceOnUse">
<stop stop-color="#69DBB2"/>
<stop offset="1" stop-color="#21948B"/>
</linearGradient>
<linearGradient id="paint64_linear_893_1574" x1="3454.14" y1="2484.83" x2="3454.14" y2="3008.25" gradientUnits="userSpaceOnUse">
<stop stop-color="#69DBB2"/>
<stop offset="1" stop-color="#21948B"/>
</linearGradient>
<linearGradient id="paint65_linear_893_1574" x1="3671.81" y1="2468.37" x2="3671.81" y2="2818.48" gradientUnits="userSpaceOnUse">
<stop stop-color="#69DBB2"/>
<stop offset="1" stop-color="#21948B"/>
</linearGradient>
<linearGradient id="paint66_linear_893_1574" x1="2903.49" y1="2215.97" x2="2903.49" y2="2722.07" gradientUnits="userSpaceOnUse">
<stop stop-color="#69DBB2"/>
<stop offset="1" stop-color="#21948B"/>
</linearGradient>
<clipPath id="clip0_893_1574">
<rect width="7689" height="4136" fill="white"/>
</clipPath>
</defs>
</svg>
