<svg width="1440" height="1024" viewBox="0 0 1440 1024" fill="none" xmlns="http://www.w3.org/2000/svg">
<g clip-path="url(#clip0_234_397)">
<rect width="1440" height="1024" fill="url(#paint0_linear_234_397)"/>
<path d="M460.132 178.088C302.854 176.617 -12.7614 173.673 -17 173.673V14.7272C0.366323 12.2743 27.9758 12.3725 53.6427 77.1282C53.6427 77.1282 80.6046 118.866 121.342 79.7773C153.941 38.4117 185.011 99.5394 189.161 108.211C189.489 108.896 189.78 109.541 190.171 110.192C193.293 115.395 210.39 138.269 253.503 103.325C277.234 84.0902 299.693 124.639 320.16 145.808C326.669 152.541 335.396 156.329 344.28 159.29C351.74 161.777 359.69 162.312 367.495 161.353C423.298 154.494 452.328 169.258 460.132 178.088Z" fill="#F5FDE6"/>
<path d="M693.656 222.059C620.138 222.059 573.016 273.006 560.423 343.134C544.883 415.093 504 592.477 504 592.477H532.098L588.456 343.134C599.209 292.353 635.503 247.557 693.539 247.557L1444 247.557V222L693.656 222.059Z" fill="#C5283D"/>
<path d="M151.329 54.6346C223.284 54.6346 281.73 112.973 281.73 184.938L281.73 676.079L254.229 676.079L254.292 184.938C254.292 128.129 208.245 82.0755 151.443 82.0755C151.405 82.0755 151.367 82.0755 151.329 82.0755L151.329 54.6346Z" fill="#19274B"/>
<path d="M281.73 185.053C281.73 185.015 281.73 184.976 281.73 184.938C281.73 112.973 223.284 54.6346 151.329 54.6346L-55 54.5708L-55 82.0755L151.443 82.0755C208.245 82.0755 254.292 128.129 254.292 184.938C254.292 184.938 254.292 185.015 254.292 185.053L281.73 185.053Z" fill="#19274B"/>
<path d="M-31.9764 345.417L6.22779 309.834L26.7276 326.439L57.4773 297.972H79.8407L124.567 265.947L228.93 341.858L255.952 332.37L380.263 432.596L435.791 391.675L447.713 407.473L501.239 383.755L528.001 386.343L543.246 356.589L567.298 349.258L605.579 354.001L647.063 319.366L678.705 275.964L696.708 270.408L710.893 240.547L732.921 258.406L739.204 281.978L789.468 326.596L807.325 336.698L834.44 330.384L877.66 237.694L887.587 230.552L899.672 248.133L920.39 228.904L924.706 204.73L938.949 180.557L952.76 194.292L988.584 185.501L1012.75 169.019L1026.13 154.735L1039.39 176.703L1042.89 195L1080.96 223.681L1097.66 252.362L1129.9 321.297L1145.44 306.957L1160.34 309.991L1179.36 326.606L1198.01 333.727L1274.84 412.057L1320.66 428.939L1382.19 376.721L1400 412.057L1446 483.293V1023.5H6.22779L-55 413.935L-31.9764 345.417Z" fill="url(#paint1_linear_234_397)"/>
<path d="M1347.28 95.7375C1249.46 95.7375 1170 175.047 1170 272.88L1170 617.5L1207.39 617.5L1207.3 272.88C1207.3 195.65 1269.9 133.042 1347.12 133.042C1347.17 133.042 1347.22 133.042 1347.28 133.042L1347.28 95.7375Z" fill="#FFBF1A"/>
<path d="M1170 273.036C1170 272.984 1170 272.932 1170 272.88C1170 175.047 1249.46 95.7375 1347.28 95.7375L1497.15 95.6505L1497.15 133.042L1347.12 133.042C1269.9 133.042 1207.3 195.65 1207.3 272.88C1207.3 272.88 1207.3 272.984 1207.3 273.036L1170 273.036Z" fill="#FFBF1A"/>
<path d="M758.568 418.677C757.809 429.123 754.393 438.828 752.78 442.374H753.919L751.167 448.057H753.539L749.459 457.004H751.831L742.058 470.667L745.948 470.062C747.562 469.619 751.414 469.119 753.919 470.667C756.424 472.214 765.463 472.198 769.67 471.996L768.626 469.337L773.56 470.667L770.239 468.732H775.268C771.852 465.83 767.709 456.883 766.064 452.772H767.772C764.964 449.29 763.502 443.261 763.123 440.682L765.021 442.374C763.882 440.343 761.636 433.871 760.656 430.888L762.554 432.339C759.973 428.373 758.821 421.578 758.568 418.677Z" fill="url(#paint2_linear_234_397)"/>
<path d="M256.029 443.403C254.925 458.607 249.953 472.732 247.605 477.894H249.263L245.258 486.164H248.71L242.772 499.186H246.224L232 519.071L237.662 518.191C240.01 517.546 245.617 516.819 249.263 519.071C252.908 521.323 266.065 521.3 272.187 521.007L270.668 517.135L277.849 519.071L273.016 516.255H280.335C275.363 512.032 269.333 499.01 266.939 493.027H269.425C265.337 487.959 263.211 479.184 262.658 475.43L265.42 477.894C263.763 474.937 260.495 465.517 259.068 461.177L261.83 463.288C258.073 457.516 256.398 447.627 256.029 443.403Z" fill="url(#paint3_linear_234_397)"/>
<path d="M290.392 401.926C288.831 423.41 281.806 443.369 278.489 450.663H280.83L275.171 462.35H280.05L271.659 480.751H276.537L256.438 508.849L264.438 507.606C267.756 506.694 275.679 505.666 280.83 508.849C285.982 512.032 304.573 511.998 313.224 511.584L311.078 506.114L321.225 508.849L314.395 504.87H324.738C317.712 498.903 309.191 480.502 305.809 472.048H309.321C303.545 464.886 300.54 452.487 299.759 447.182L303.662 450.663C301.32 446.486 296.702 433.174 294.686 427.041L298.588 430.025C293.281 421.869 290.913 407.894 290.392 401.926Z" fill="url(#paint4_linear_234_397)"/>
<path d="M327.086 421.283C325.826 438.627 320.154 454.741 317.476 460.63H319.367L314.798 470.065H318.737L311.962 484.92H315.901L299.673 507.605L306.133 506.602C308.811 505.865 315.207 505.036 319.367 507.605C323.526 510.175 338.535 510.148 345.519 509.814L343.786 505.397L351.979 507.605L346.465 504.393H354.815C349.143 499.575 342.263 484.72 339.533 477.894H342.369C337.705 472.113 335.279 462.102 334.649 457.819L337.8 460.63C335.909 457.257 332.181 446.51 330.553 441.558L333.703 443.967C329.418 437.383 327.507 426.101 327.086 421.283Z" fill="url(#paint5_linear_234_397)"/>
<path d="M365.936 401.926C364.676 419.271 359.004 435.385 356.326 441.273H358.216L353.647 450.709H357.586L350.812 465.564H354.75L338.523 488.249L344.982 487.245C347.661 486.509 354.057 485.679 358.216 488.249C362.376 490.819 377.385 490.792 384.369 490.457L382.636 486.041L390.829 488.249L385.314 485.037H393.664C387.993 480.219 381.113 465.364 378.382 458.538H381.218C376.555 452.756 374.129 442.746 373.498 438.463L376.649 441.273C374.759 437.901 371.03 427.154 369.402 422.202L372.553 424.611C368.268 418.027 366.356 406.744 365.936 401.926Z" fill="url(#paint6_linear_234_397)"/>
<path d="M408.545 412.296C407.285 429.64 401.613 445.754 398.935 451.643H400.826L396.257 461.078H400.195L393.421 475.933H397.36L381.132 498.618L387.592 497.614C390.27 496.878 396.666 496.049 400.826 498.618C404.985 501.188 419.994 501.161 426.978 500.826L425.245 496.41L433.438 498.618L427.924 495.406H436.274C430.602 490.588 423.722 475.733 420.992 468.907H423.828C419.164 463.126 416.738 453.115 416.108 448.832L419.259 451.643C417.368 448.27 413.639 437.523 412.012 432.571L415.162 434.98C410.877 428.396 408.966 417.114 408.545 412.296Z" fill="url(#paint7_linear_234_397)"/>
<path d="M472.72 347.687C471.045 370.748 463.504 392.172 459.943 400.001H462.457L456.382 412.545H461.619L452.612 432.297H457.848L436.273 462.457L444.862 461.123C448.422 460.144 456.927 459.041 462.457 462.457C467.987 465.873 487.942 465.838 497.228 465.393L494.924 459.521L505.816 462.457L498.485 458.187H509.586C502.046 451.781 492.899 432.03 489.268 422.955H493.039C486.838 415.268 483.613 401.958 482.775 396.264L486.964 400.001C484.451 395.517 479.493 381.228 477.329 374.645L481.518 377.848C475.821 369.093 473.279 354.093 472.72 347.687Z" fill="url(#paint8_linear_234_397)"/>
<path d="M546.034 397.938C544.358 420.999 536.817 442.423 533.257 450.252H535.77L529.696 462.797H534.932L525.925 482.548H531.162L509.587 512.708L518.175 511.374C521.736 510.395 530.24 509.292 535.77 512.708C541.3 516.125 561.255 516.089 570.541 515.644L568.237 509.772L579.13 512.708L571.798 508.438H582.9C575.359 502.032 566.212 482.281 562.582 473.206H566.352C560.152 465.519 556.926 452.209 556.088 446.515L560.278 450.252C557.764 445.768 552.807 431.479 550.642 424.896L554.832 428.099C549.134 419.344 546.593 404.344 546.034 397.938Z" fill="url(#paint9_linear_234_397)"/>
<path d="M588.643 421.07C586.968 444.13 579.427 465.554 575.866 473.383H578.38L572.305 485.928H577.542L568.535 505.679H573.771L552.196 535.84L560.784 534.505C564.345 533.526 572.85 532.423 578.38 535.84C583.909 539.256 603.865 539.22 613.151 538.775L610.847 532.904L621.739 535.84L614.408 531.569H625.509C617.969 525.163 608.822 505.412 605.191 496.337H608.962C602.761 488.65 599.536 475.341 598.698 469.647L602.887 473.383C600.373 468.899 595.416 454.611 593.252 448.027L597.441 451.23C591.743 442.475 589.202 427.475 588.643 421.07Z" fill="url(#paint10_linear_234_397)"/>
<path d="M625.355 429.046C624.123 445.997 618.58 461.744 615.963 467.499H617.81L613.345 476.72H617.194L610.574 491.238H614.423L598.564 513.407L604.877 512.426C607.494 511.706 613.746 510.896 617.81 513.407C621.875 515.918 636.543 515.892 643.369 515.565L641.675 511.249L649.681 513.407L644.292 510.268H652.453C646.91 505.559 640.187 491.041 637.518 484.371H640.289C635.732 478.721 633.361 468.937 632.745 464.752L635.824 467.499C633.977 464.203 630.333 453.7 628.742 448.861L631.821 451.215C627.633 444.78 625.765 433.754 625.355 429.046Z" fill="url(#paint11_linear_234_397)"/>
<path d="M525.098 385.974C523.867 402.924 518.324 418.672 515.706 424.426H517.554L513.089 433.647H516.938L510.317 448.165H514.167L498.308 470.334L504.621 469.354C507.238 468.634 513.489 467.823 517.554 470.334C521.619 472.846 536.286 472.819 543.112 472.493L541.419 468.176L549.425 470.334L544.036 467.195H552.196C546.654 462.487 539.93 447.969 537.262 441.299H540.033C535.476 435.648 533.104 425.865 532.489 421.68L535.568 424.426C533.72 421.13 530.076 410.628 528.485 405.789L531.565 408.143C527.377 401.708 525.509 390.682 525.098 385.974Z" fill="url(#paint12_linear_234_397)"/>
<path d="M663.857 409.903C662.353 430.598 655.586 449.825 652.39 456.851H654.646L649.195 468.109H653.894L645.811 485.834H650.511L631.148 512.901L638.856 511.704C642.051 510.825 649.683 509.835 654.646 512.901C659.609 515.967 677.517 515.935 685.851 515.536L683.783 510.267L693.558 512.901L686.979 509.069H696.942C690.175 503.32 681.966 485.595 678.708 477.451H682.092C676.527 470.552 673.632 458.608 672.88 453.497L676.64 456.851C674.384 452.827 669.935 440.004 667.993 434.095L671.753 436.97C666.639 429.113 664.359 415.651 663.857 409.903Z" fill="url(#paint13_linear_234_397)"/>
<path d="M643.577 457.761C642.746 469.193 639.008 479.813 637.242 483.694H638.489L635.477 489.913H638.073L633.608 499.704H636.204L625.509 514.655L629.766 513.994C631.531 513.509 635.747 512.962 638.489 514.655C641.23 516.349 651.122 516.331 655.726 516.111L654.583 513.2L659.983 514.655L656.349 512.538H661.852C658.114 509.363 653.58 499.572 651.78 495.073H653.649C650.575 491.262 648.976 484.664 648.561 481.842L650.638 483.694C649.391 481.471 646.934 474.388 645.861 471.124L647.938 472.712C645.113 468.372 643.853 460.936 643.577 457.761Z" fill="url(#paint14_linear_234_397)"/>
<path d="M697.128 426.653C696.111 440.647 691.535 453.648 689.374 458.399H690.9L687.213 466.012H690.391L684.925 477.997H688.103L675.011 496.3L680.222 495.49C682.383 494.896 687.544 494.227 690.9 496.3C694.255 498.373 706.365 498.351 712 498.082L710.602 494.518L717.212 496.3L712.763 493.708H719.5C714.924 489.821 709.373 477.835 707.17 472.328H709.458C705.695 467.664 703.738 459.587 703.23 456.131L705.772 458.399C704.246 455.678 701.238 447.007 699.925 443.012L702.467 444.956C699.009 439.643 697.467 430.54 697.128 426.653Z" fill="url(#paint15_linear_234_397)"/>
<path d="M725.917 406.712C724.613 424.648 718.748 441.311 715.979 447.401H717.934L713.209 457.158H717.282L710.276 472.519H714.349L697.569 495.978L704.248 494.94C707.018 494.179 713.633 493.32 717.934 495.978C722.235 498.635 737.755 498.607 744.978 498.261L743.186 493.694L751.658 495.978L745.955 492.656H754.59C748.725 487.674 741.611 472.312 738.787 465.254H741.72C736.897 459.275 734.388 448.923 733.737 444.494L736.995 447.401C735.04 443.913 731.184 432.8 729.501 427.679L732.759 430.17C728.328 423.361 726.351 411.694 725.917 406.712Z" fill="url(#paint16_linear_234_397)"/>
<path d="M748.872 421.07C748.241 429.742 745.406 437.799 744.066 440.743H745.012L742.727 445.461H744.697L741.309 452.888H743.279L735.165 464.231L738.395 463.729C739.734 463.361 742.932 462.946 745.012 464.231C747.091 465.516 754.596 465.502 758.088 465.335L757.222 463.127L761.318 464.231L758.561 462.625H762.736C759.9 460.216 756.46 452.788 755.095 449.375H756.513C754.181 446.485 752.968 441.479 752.653 439.338L754.228 440.743C753.283 439.057 751.419 433.683 750.605 431.207L752.18 432.412C750.037 429.12 749.082 423.479 748.872 421.07Z" fill="url(#paint17_linear_234_397)"/>
<path d="M767.67 438.617C767.04 447.29 764.204 455.347 762.865 458.291H763.81L761.526 463.009H763.495L760.108 470.436H762.077L753.963 481.779L757.193 481.277C758.532 480.909 761.73 480.494 763.81 481.779C765.89 483.064 773.394 483.05 776.886 482.883L776.02 480.675L780.116 481.779L777.359 480.173H781.534C778.698 477.764 775.258 470.336 773.893 466.923H775.311C772.979 464.032 771.766 459.027 771.451 456.886L773.027 458.291C772.081 456.605 770.217 451.231 769.403 448.755L770.978 449.96C768.836 446.668 767.88 441.026 767.67 438.617Z" fill="url(#paint18_linear_234_397)"/>
<path d="M781.125 433.832C780.366 444.278 776.95 453.983 775.337 457.529H776.476L773.724 463.212H776.096L772.016 472.159H774.389L764.615 485.822L768.506 485.217C770.119 484.774 773.971 484.274 776.476 485.822C778.981 487.369 788.021 487.353 792.227 487.151L791.183 484.492L796.117 485.822L792.796 483.887H797.825C794.41 480.985 790.266 472.038 788.621 467.927H790.329C787.521 464.445 786.06 458.416 785.68 455.837L787.578 457.529C786.439 455.498 784.193 449.026 783.213 446.043L785.111 447.494C782.53 443.528 781.378 436.733 781.125 433.832Z" fill="url(#paint19_linear_234_397)"/>
<path d="M818.346 417.879C817.086 435.224 811.414 451.338 808.736 457.226H810.626L806.058 466.661H809.996L803.222 481.517H807.16L790.933 504.202L797.393 503.198C800.071 502.462 806.467 501.632 810.626 504.202C814.786 506.771 829.795 506.745 836.779 506.41L835.046 501.994L843.239 504.202L837.725 500.99H846.075C840.403 496.172 833.523 481.316 830.792 474.491H833.628C828.965 468.709 826.539 458.698 825.909 454.416L829.059 457.226C827.169 453.854 823.44 443.107 821.812 438.155L824.963 440.564C820.678 433.979 818.766 422.697 818.346 417.879Z" fill="url(#paint20_linear_234_397)"/>
<path d="M852.849 452.177C851.904 465.186 847.65 477.271 845.641 481.688H847.059L843.632 488.764H846.586L841.506 499.906H844.46L832.289 516.919L837.134 516.167C839.142 515.615 843.94 514.992 847.059 516.919C850.179 518.847 861.435 518.827 866.674 518.576L865.374 515.263L871.518 516.919L867.383 514.51H873.645C869.391 510.897 864.232 499.755 862.184 494.636H864.31C860.813 490.3 858.993 482.792 858.521 479.58L860.884 481.688C859.466 479.158 856.669 471.098 855.448 467.384L857.812 469.191C854.598 464.253 853.164 455.791 852.849 452.177Z" fill="url(#paint21_linear_234_397)"/>
<path d="M874.512 476.904C873.925 484.985 871.282 492.493 870.034 495.236H870.915L868.786 499.632H870.621L867.465 506.554H869.3L861.74 517.123L864.749 516.655C865.997 516.312 868.977 515.926 870.915 517.123C872.853 518.32 879.846 518.307 883.1 518.152L882.292 516.094L886.109 517.123L883.54 515.626H887.431C884.788 513.381 881.583 506.46 880.311 503.28H881.632C879.459 500.586 878.329 495.922 878.035 493.927L879.503 495.236C878.622 493.665 876.885 488.658 876.127 486.351L877.595 487.473C875.598 484.405 874.707 479.149 874.512 476.904Z" fill="url(#paint22_linear_234_397)"/>
<path d="M898.287 460.951C897.413 472.975 893.482 484.144 891.625 488.226H892.936L889.769 494.766H892.499L887.803 505.064H890.533L879.285 520.789L883.762 520.093C885.619 519.583 890.053 519.008 892.936 520.789C895.819 522.57 906.223 522.551 911.064 522.319L909.863 519.258L915.542 520.789L911.72 518.562H917.508C913.576 515.223 908.807 504.925 906.914 500.194H908.88C905.648 496.186 903.966 489.247 903.529 486.278L905.713 488.226C904.403 485.888 901.818 478.439 900.69 475.006L902.874 476.676C899.903 472.112 898.578 464.291 898.287 460.951Z" fill="url(#paint23_linear_234_397)"/>
<path d="M923.058 483.285C922.341 493.14 919.119 502.296 917.597 505.642H918.671L916.075 511.002H918.313L914.464 519.443H916.702L907.482 532.332L911.152 531.762C912.674 531.344 916.308 530.872 918.671 532.332C921.035 533.792 929.562 533.777 933.531 533.587L932.546 531.078L937.201 532.332L934.068 530.507H938.812C935.59 527.77 931.681 519.329 930.129 515.451H931.741C929.091 512.166 927.712 506.478 927.354 504.045L929.145 505.642C928.07 503.725 925.952 497.619 925.027 494.806L926.817 496.174C924.382 492.433 923.296 486.023 923.058 483.285Z" fill="url(#paint24_linear_234_397)"/>
<path d="M949.594 452.177C948.118 472.479 941.48 491.339 938.345 498.231H940.558L935.21 509.275H939.82L931.891 526.663H936.501L917.508 553.214L925.068 552.039C928.203 551.178 935.69 550.207 940.558 553.214C945.426 556.222 962.994 556.191 971.169 555.799L969.14 550.63L978.729 553.214L972.275 549.455H982.048C975.41 543.816 967.358 526.428 964.161 518.439H967.481C962.022 511.672 959.183 499.955 958.445 494.942L962.133 498.231C959.92 494.284 955.556 481.705 953.651 475.909L957.339 478.729C952.323 471.022 950.085 457.817 949.594 452.177Z" fill="url(#paint25_linear_234_397)"/>
<path d="M987.233 476.904C986.101 492.475 981.009 506.941 978.605 512.227H980.302L976.201 520.697H979.737L973.655 534.034H977.191L962.623 554.398L968.422 553.497C970.826 552.837 976.568 552.092 980.302 554.398C984.036 556.705 997.51 556.681 1003.78 556.381L1002.22 552.416L1009.58 554.398L1004.63 551.515H1012.12C1007.03 547.19 1000.86 533.853 998.406 527.726H1000.95C996.765 522.536 994.587 513.549 994.021 509.704L996.85 512.227C995.153 509.199 991.806 499.552 990.344 495.106L993.173 497.269C989.326 491.358 987.61 481.229 987.233 476.904Z" fill="url(#paint26_linear_234_397)"/>
<path d="M1034.78 443.403C1033.08 466.858 1025.41 488.648 1021.79 496.611H1024.34L1018.17 509.371H1023.49L1014.33 529.459H1019.66L997.713 560.135L1006.45 558.778C1010.07 557.783 1018.72 556.661 1024.34 560.135C1029.97 563.61 1050.26 563.574 1059.71 563.121L1057.37 557.149L1068.44 560.135L1060.99 555.792H1072.28C1064.61 549.277 1055.31 529.188 1051.61 519.958H1055.45C1049.14 512.14 1045.86 498.602 1045.01 492.811L1049.27 496.611C1046.71 492.051 1041.67 477.518 1039.47 470.822L1043.73 474.079C1037.94 465.175 1035.35 449.919 1034.78 443.403Z" fill="url(#paint27_linear_234_397)"/>
<path d="M1074.32 479.297C1073.14 495.656 1067.79 510.854 1065.26 516.408H1067.04L1062.73 525.308H1066.45L1060.06 539.319H1063.77L1048.47 560.715L1054.56 559.768C1057.09 559.074 1063.12 558.291 1067.04 560.715C1070.97 563.139 1085.12 563.113 1091.71 562.798L1090.07 558.632L1097.8 560.715L1092.6 557.686H1100.48C1095.13 553.141 1088.64 539.13 1086.06 532.692H1088.74C1084.34 527.239 1082.05 517.797 1081.46 513.758L1084.43 516.408C1082.65 513.227 1079.13 503.091 1077.59 498.421L1080.56 500.693C1076.52 494.482 1074.72 483.841 1074.32 479.297Z" fill="url(#paint28_linear_234_397)"/>
<path d="M1123.71 411.498C1121.61 440.472 1112.13 467.389 1107.66 477.225H1110.82L1103.18 492.987H1109.76L1098.45 517.802H1105.03L1077.92 555.696L1088.71 554.019C1093.18 552.79 1103.87 551.404 1110.82 555.696C1117.76 559.989 1142.84 559.944 1154.5 559.385L1151.61 552.007L1165.29 555.696L1156.08 550.331H1170.03C1160.56 542.282 1149.06 517.467 1144.5 506.065H1149.24C1141.45 496.407 1137.4 479.685 1136.34 472.531L1141.61 477.225C1138.45 471.592 1132.22 453.64 1129.5 445.368L1134.76 449.392C1127.61 438.393 1124.41 419.546 1123.71 411.498Z" fill="url(#paint29_linear_234_397)"/>
<path d="M1165.77 448.987C1164.23 470.077 1157.34 489.669 1154.08 496.829H1156.38L1150.82 508.302H1155.61L1147.38 526.365H1152.16L1132.43 553.948L1140.29 552.727C1143.54 551.832 1151.32 550.823 1156.38 553.948C1161.44 557.072 1179.69 557.039 1188.18 556.633L1186.07 551.262L1196.03 553.948L1189.33 550.042H1199.48C1192.58 544.184 1184.22 526.121 1180.9 517.822H1184.35C1178.68 510.792 1175.73 498.619 1174.96 493.412L1178.79 496.829C1176.49 492.729 1171.96 479.661 1169.98 473.64L1173.81 476.569C1168.6 468.563 1166.28 454.845 1165.77 448.987Z" fill="url(#paint30_linear_234_397)"/>
<path d="M1205.33 423C1203.8 444.09 1196.9 463.682 1193.65 470.843H1195.95L1190.39 482.315H1195.18L1186.94 500.378H1191.73L1172 527.961L1179.85 526.74C1183.11 525.845 1190.89 524.836 1195.95 527.961C1201 531.085 1219.25 531.053 1227.74 530.646L1225.64 525.276L1235.6 527.961L1228.89 524.055H1239.05C1232.15 518.197 1223.79 500.134 1220.47 491.835H1223.91C1218.24 484.805 1215.29 472.633 1214.53 467.425L1218.36 470.843C1216.06 466.742 1211.53 453.675 1209.55 447.654L1213.38 450.583C1208.17 442.576 1205.84 428.858 1205.33 423Z" fill="url(#paint31_linear_234_397)"/>
<path d="M1246.33 446C1244.8 467.09 1237.9 486.682 1234.65 493.843H1236.95L1231.39 505.315H1236.18L1227.94 523.378H1232.73L1213 550.961L1220.85 549.74C1224.11 548.845 1231.89 547.836 1236.95 550.961C1242 554.085 1260.25 554.053 1268.74 553.646L1266.64 548.276L1276.6 550.961L1269.89 547.055H1280.05C1273.15 541.197 1264.79 523.134 1261.47 514.835H1264.91C1259.24 507.805 1256.29 495.633 1255.53 490.425L1259.36 493.843C1257.06 489.742 1252.53 476.675 1250.55 470.654L1254.38 473.583C1249.17 465.576 1246.84 451.858 1246.33 446Z" fill="url(#paint32_linear_234_397)"/>
<path d="M1281.31 361C1279.78 393.269 1272.89 423.247 1269.63 434.202H1271.93L1266.38 451.756H1271.16L1262.93 479.393H1267.72L1248 521.597L1255.85 519.729C1259.1 518.36 1266.87 516.816 1271.93 521.597C1276.98 526.377 1295.22 526.327 1303.71 525.705L1301.6 517.488L1311.55 521.597L1304.85 515.621H1315C1308.11 506.657 1299.75 479.02 1296.43 466.321H1299.88C1294.21 455.565 1291.26 436.941 1290.5 428.973L1294.33 434.202C1292.03 427.928 1287.5 407.934 1285.52 398.722L1289.35 403.203C1284.14 390.953 1281.82 369.964 1281.31 361Z" fill="url(#paint33_linear_234_397)"/>
<path d="M1326.31 425C1324.78 443.188 1317.89 460.085 1314.63 466.259H1316.93L1311.38 476.153H1316.16L1307.93 491.731H1312.72L1293 515.518L1300.85 514.466C1304.1 513.694 1311.87 512.824 1316.93 515.518C1321.98 518.213 1340.22 518.184 1348.71 517.834L1346.6 513.202L1356.55 515.518L1349.85 512.15H1360C1353.11 507.098 1344.75 491.52 1341.43 484.363H1344.88C1339.21 478.3 1336.26 467.803 1335.5 463.312L1339.33 466.259C1337.03 462.723 1332.5 451.454 1330.52 446.261L1334.35 448.787C1329.14 441.883 1326.82 430.052 1326.31 425Z" fill="url(#paint34_linear_234_397)"/>
<path d="M1367.31 396C1365.78 414.188 1358.89 431.085 1355.63 437.259H1357.93L1352.38 447.153H1357.16L1348.93 462.731H1353.72L1334 486.518L1341.85 485.466C1345.1 484.694 1352.87 483.824 1357.93 486.518C1362.98 489.213 1381.22 489.184 1389.71 488.834L1387.6 484.202L1397.55 486.518L1390.85 483.15H1401C1394.11 478.098 1385.75 462.52 1382.43 455.363H1385.88C1380.21 449.3 1377.26 438.803 1376.5 434.312L1380.33 437.259C1378.03 433.723 1373.5 422.454 1371.52 417.261L1375.35 419.787C1370.14 412.883 1367.82 401.052 1367.31 396Z" fill="url(#paint35_linear_234_397)"/>
<path d="M46.3086 437C44.7771 464.184 37.8857 489.438 34.6314 498.667H36.9286L31.3771 513.455H36.1629L27.9314 536.737H32.7171L13 572.29L20.8486 570.717C24.1029 569.564 31.8749 568.263 36.9286 572.29C41.9823 576.318 60.219 576.276 68.7057 575.751L66.6 568.83L76.5543 572.29L69.8543 567.256H80C73.1086 559.705 64.7495 536.423 61.4314 525.725H64.8771C59.2109 516.664 56.2629 500.975 55.4971 494.262L59.3257 498.667C57.0286 493.382 52.4981 476.538 50.52 468.778L54.3486 472.553C49.1417 462.233 46.819 444.551 46.3086 437Z" fill="url(#paint36_linear_234_397)"/>
<path d="M97.3086 424C95.7771 451.184 88.8857 476.438 85.6314 485.667H87.9286L82.3771 500.455H87.1629L78.9314 523.737H83.7171L64 559.29L71.8486 557.717C75.1029 556.564 82.8749 555.263 87.9286 559.29C92.9823 563.318 111.219 563.276 119.706 562.751L117.6 555.83L127.554 559.29L120.854 554.256H131C124.109 546.705 115.75 523.423 112.431 512.725H115.877C110.211 503.664 107.263 487.975 106.497 481.262L110.326 485.667C108.029 480.382 103.498 463.538 101.52 455.778L105.349 459.553C100.142 449.233 97.819 431.551 97.3086 424Z" fill="url(#paint37_linear_234_397)"/>
<path d="M140.32 481C138.88 495.863 132.4 509.671 129.34 514.717H131.5L126.28 522.803H130.78L123.04 535.533H127.54L109 554.972L116.38 554.112C119.44 553.481 126.748 552.77 131.5 554.972C136.252 557.174 153.4 557.151 161.38 556.864L159.4 553.079L168.76 554.972L162.46 552.219H172C165.52 548.091 157.66 535.361 154.54 529.512H157.78C152.452 524.557 149.68 515.979 148.96 512.309L152.56 514.717C150.4 511.827 146.14 502.618 144.28 498.375L147.88 500.439C142.984 494.797 140.8 485.129 140.32 481Z" fill="url(#paint38_linear_234_397)"/>
<path d="M162.32 494C160.88 508.863 154.4 522.671 151.34 527.717H153.5L148.28 535.803H152.78L145.04 548.533H149.54L131 567.972L138.38 567.112C141.44 566.481 148.748 565.77 153.5 567.972C158.252 570.174 175.4 570.151 183.38 569.864L181.4 566.079L190.76 567.972L184.46 565.219H194C187.52 561.091 179.66 548.361 176.54 542.512H179.78C174.452 537.557 171.68 528.979 170.96 525.309L174.56 527.717C172.4 524.827 168.14 515.618 166.28 511.375L169.88 513.439C164.984 507.797 162.8 498.129 162.32 494Z" fill="url(#paint39_linear_234_397)"/>
<path d="M225.32 463C223.88 477.863 217.4 491.671 214.34 496.717H216.5L211.28 504.803H215.78L208.04 517.533H212.54L194 536.972L201.38 536.112C204.44 535.481 211.748 534.77 216.5 536.972C221.252 539.174 238.4 539.151 246.38 538.864L244.4 535.079L253.76 536.972L247.46 534.219H257C250.52 530.091 242.66 517.361 239.54 511.512H242.78C237.452 506.557 234.68 497.979 233.96 494.309L237.56 496.717C235.4 493.827 231.14 484.618 229.28 480.375L232.88 482.439C227.984 476.797 225.8 467.129 225.32 463Z" fill="url(#paint40_linear_234_397)"/>
<path d="M194.32 479C192.88 493.863 186.4 507.671 183.34 512.717H185.5L180.28 520.803H184.78L177.04 533.533H181.54L163 552.972L170.38 552.112C173.44 551.481 180.748 550.77 185.5 552.972C190.252 555.174 207.4 555.151 215.38 554.864L213.4 551.079L222.76 552.972L216.46 550.219H226C219.52 546.091 211.66 533.361 208.54 527.512H211.78C206.452 522.557 203.68 513.979 202.96 510.309L206.56 512.717C204.4 509.827 200.14 500.618 198.28 496.375L201.88 498.439C196.984 492.797 194.8 483.129 194.32 479Z" fill="url(#paint41_linear_234_397)"/>
<path d="M-4.10927 606.49C-3.43907 582.415 11.7975 561.164 34.384 552.802L64.5069 541.65C78.011 536.651 92.8773 536.763 106.305 541.965L155.722 561.11C164.514 564.516 174.467 562.809 181.621 556.667L184.557 554.146C187.884 551.29 192.218 549.891 196.587 550.261V550.261C201.029 550.638 205.432 549.185 208.776 546.237L248.542 511.193C254.137 506.262 261.49 503.807 268.926 504.386L272.337 504.652C277.136 505.026 281.897 503.559 285.653 500.548V500.548C289.829 497.201 295.226 495.778 300.51 496.629L311.727 498.436C322.534 500.178 333.603 497.879 342.822 491.978L407.387 450.655C409.616 449.228 411.641 447.505 413.406 445.532L416.215 442.392C423.963 433.732 436.786 431.827 446.718 437.861V437.861C448.76 439.102 450.975 440.032 453.291 440.622L456.8 441.515C461.255 442.649 465.373 444.838 468.806 447.897V447.897C474.3 452.793 481.466 455.39 488.821 455.151L492.875 455.019C495.4 454.937 497.901 454.491 500.3 453.694V453.694C509.611 450.602 519.869 452.957 526.9 459.801L538.398 470.994C545.828 478.226 556.127 481.714 566.422 480.486V480.486C572.852 479.719 579.367 480.785 585.217 483.561L624.817 502.357C641.272 510.167 660.412 509.939 676.677 501.74L730.837 474.434C732.78 473.455 734.563 472.186 736.124 470.671L743.47 463.547C749.43 457.766 759.194 458.9 763.67 465.894V465.894C765.264 468.384 767.651 470.263 770.445 471.227L784.324 476.019C790.742 478.234 796.517 481.993 801.14 486.965V486.965C805.873 492.055 811.811 495.873 818.407 498.065L849.327 508.342C851.495 509.063 853.549 510.088 855.428 511.388V511.388C860.84 515.132 867.548 516.497 873.992 515.165L892.259 511.39C898.139 510.175 904.223 512.17 908.242 516.63V516.63C910.269 518.879 912.863 520.543 915.752 521.448L923.81 523.97C925.479 524.492 927.224 524.728 928.971 524.666V524.666C932.955 524.525 936.839 525.93 939.811 528.586L941.477 530.075C944.886 533.122 949.198 534.973 953.755 535.347L966.331 536.378C973.156 536.938 979.831 538.69 986.051 541.554L998.436 547.256C1002.35 549.056 1006.48 550.33 1010.72 551.045L1020.8 552.743C1026.19 553.65 1031.72 552.528 1036.33 549.595V549.595C1041.48 546.314 1047.77 545.316 1053.69 546.837L1067.24 550.32C1076.98 552.825 1087.23 552.576 1096.85 549.6L1103.41 547.566C1107.12 546.417 1110.94 545.637 1114.81 545.238L1130.5 543.618C1134.05 543.252 1137.63 543.324 1141.16 543.831V543.831C1151.15 545.266 1161.32 543.186 1169.94 537.947L1183.33 529.815C1191.25 525.004 1200.19 522.126 1209.43 521.413L1209.91 521.376L1235.46 519.133L1257.37 517.141C1263.29 516.603 1269.1 515.172 1274.59 512.897L1397.78 461.899C1437.06 445.64 1480.12 474.997 1479.34 517.5L1470.57 993.688C1469.97 1025.84 1443.74 1051.6 1411.58 1051.6H44.1653C10.9374 1051.6 -15.7365 1024.17 -14.8119 990.96L-4.10927 606.49Z" fill="url(#paint42_linear_234_397)"/>
<path d="M892.753 736.408C898.369 725.02 915.843 706.641 928.508 707.556L990.465 712.033C995.22 712.377 999.943 711.012 1003.78 708.183L1010.85 702.977C1025.87 691.905 1046.53 705.604 1042.18 723.753L1035.91 749.935C1035.27 752.616 1035.52 755.435 1036.64 757.958C1040.13 765.865 1034.8 774.857 1026.19 775.6L964.591 780.918C962.821 781.071 961.038 780.987 959.289 780.669L925.015 774.438C923.722 774.202 922.46 773.845 921.258 773.313C913.452 769.859 883.511 755.149 892.753 736.408Z" fill="#8FC9A1"/>
<path d="M1034.68 585.383C1032.18 619.857 1020.9 651.884 1015.57 663.588H1019.33L1010.25 682.342H1018.08L1004.61 711.868H1012.44L980.168 756.956L993.014 754.961C998.34 753.498 1011.06 751.849 1019.33 756.956C1027.6 762.063 1057.45 762.01 1071.34 761.345L1067.89 752.567L1084.19 756.956L1073.22 750.572H1089.82C1078.55 740.996 1064.86 711.469 1059.43 697.903H1065.07C1055.8 686.411 1050.98 666.514 1049.72 658.002L1055.99 663.588C1052.23 656.885 1044.81 635.525 1041.58 625.683L1047.84 630.471C1039.32 617.383 1035.52 594.959 1034.68 585.383Z" fill="url(#paint43_linear_234_397)"/>
<path d="M467.917 713.8C368.913 713.8 19.338 578.368 -47.5 541.145V995L1444 1024.5V582.998L1093.27 736.134C1093.27 736.134 884.861 859.608 790.62 721.777C696.378 583.945 621.645 603.461 596.058 630.447C527.758 701.437 501.912 713.8 467.917 713.8Z" fill="url(#paint44_linear_234_397)"/>
<path d="M399.407 630.848C397.732 653.909 390.191 675.332 386.63 683.162H389.144L383.069 695.706H388.306L379.299 715.457H384.535L362.96 745.618L371.549 744.283C375.109 743.305 383.614 742.201 389.144 745.618C394.674 749.034 414.629 748.999 423.915 748.554L421.611 742.682L432.503 745.618L425.172 741.347H436.273C428.733 734.942 419.586 715.19 415.955 706.116H419.726C413.525 698.429 410.3 685.119 409.462 679.425L413.651 683.162C411.138 678.678 406.18 664.389 404.016 657.805L408.205 661.008C402.508 652.254 399.966 637.254 399.407 630.848Z" fill="url(#paint45_linear_234_397)"/>
<path d="M399.533 586.238C405.251 588.267 411.597 588.173 417.017 585.446L455.834 565.918L466.778 559.674C481.141 551.479 498.682 563.25 496.544 579.648L493.392 603.807C493.084 606.17 493.43 608.573 494.392 610.754C498 618.933 492.493 628.235 483.586 629.004L422.591 634.27C420.821 634.422 419.038 634.339 417.289 634.021L383.015 627.789C381.722 627.554 380.46 627.197 379.258 626.665C371.452 623.21 341.511 608.5 350.753 589.759C358.441 574.169 385.346 581.203 399.533 586.238Z" fill="#8FC9A1"/>
<path d="M599.235 539.12C597.072 568.882 587.34 596.531 582.744 606.636H585.988L578.149 622.826H584.907L573.283 648.317H580.041L552.196 687.242L563.28 685.519C567.876 684.256 578.851 682.832 585.988 687.242C593.125 691.651 618.879 691.605 630.864 691.031L627.89 683.453L641.948 687.242L632.486 681.73H646.814C637.082 673.463 625.277 647.972 620.591 636.26H625.457C617.455 626.339 613.292 609.162 612.211 601.813L617.618 606.636C614.374 600.849 607.976 582.408 605.182 573.911L610.589 578.045C603.236 566.746 599.956 547.387 599.235 539.12Z" fill="url(#paint46_linear_234_397)"/>
<path d="M662.611 534.334C661.165 554.241 654.655 572.735 651.581 579.494H653.751L648.507 590.323H653.028L645.252 607.373H649.773L631.148 633.409L638.562 632.257C641.636 631.412 648.977 630.46 653.751 633.409C658.525 636.358 675.751 636.327 683.767 635.943L681.778 630.874L691.181 633.409L684.852 629.722H694.436C687.926 624.193 680.03 607.142 676.896 599.309H680.151C674.799 592.673 672.014 581.183 671.291 576.268L674.907 579.494C672.737 575.623 668.458 563.288 666.589 557.605L670.206 560.37C665.287 552.813 663.093 539.864 662.611 534.334Z" fill="url(#paint47_linear_234_397)"/>
<path d="M439.145 460.951C437.054 489.728 427.645 516.462 423.201 526.232H426.338L418.757 541.886H425.292L414.053 566.533H420.587L393.665 604.169L404.381 602.503C408.825 601.282 419.437 599.906 426.338 604.169C433.238 608.432 458.139 608.388 469.727 607.832L466.852 600.505L480.444 604.169L471.296 598.84H485.149C475.739 590.846 464.325 566.2 459.795 554.875H464.5C456.763 545.283 452.737 528.674 451.692 521.569L456.92 526.232C453.783 520.636 447.597 502.806 444.896 494.591L450.124 498.588C443.014 487.663 439.842 468.945 439.145 460.951Z" fill="url(#paint48_linear_234_397)"/>
<path d="M1324 576C1318.53 651.292 1293.91 721.24 1282.28 746.802H1290.49L1270.65 787.76H1287.75L1258.34 852.247H1275.44L1205 950.719L1233.04 946.362C1244.67 943.167 1272.43 939.565 1290.49 950.719C1308.54 961.874 1373.69 961.757 1404.01 960.305L1396.49 941.133L1432.05 950.719L1408.12 936.776H1444.36C1419.74 915.862 1389.88 851.375 1378.03 821.746H1390.34C1370.09 796.649 1359.56 753.193 1356.82 734.602L1370.5 746.802C1362.3 732.162 1346.11 685.511 1339.04 664.015L1352.72 674.473C1334.12 645.889 1325.82 596.915 1324 576Z" fill="#19274B"/>
<path d="M786.681 661.652C792.068 650.728 808.83 633.099 820.978 633.977L880.407 638.272C884.969 638.601 889.499 637.291 893.181 634.578L919.65 615.072C930.526 607.057 946.059 612.484 949.577 625.528L958.205 657.52C958.421 658.321 958.698 659.105 959.033 659.865V659.865C963.172 669.247 957.766 680.081 947.781 682.416L856.913 703.659C854.352 704.258 851.695 704.324 849.108 703.854L817.628 698.13C816.387 697.905 815.177 697.562 814.024 697.052C806.537 693.738 777.816 679.628 786.681 661.652V661.652Z" fill="#DBE1BC"/>
<path d="M846.767 672.265L855.726 570.605L893.671 660.782L846.767 672.265Z" fill="#F7E7BA"/>
<path d="M810.622 665.47L855.904 570.048L847.128 671.903L810.622 665.47Z" fill="#DFA286"/>
<path d="M855.586 571.003L860.043 556M855.586 571.142L853.925 567.063L852.263 562.984" stroke="#D0977E" stroke-width="0.72439"/>
<path d="M848.215 658.682L851.408 606.54L837.184 609.992L848.215 658.682Z" fill="#B0861A"/>
<path d="M838.136 622.319L821.046 642.606L838.136 607.638V622.319Z" fill="#931F2E"/>
<path d="M836.849 610.328L851.838 606.526L855.822 570.126L836.849 610.328Z" fill="#931F2E"/>
<path d="M867.425 644.406L873.713 626.14L851.837 604.715L848.215 658.682L867.425 644.406Z" fill="#FFBF1A"/>
<path d="M873.554 625.921L876.104 618.66L855.821 570.669L851.475 606.526L873.554 625.921Z" fill="#C5283D"/>
<path d="M925.805 667.672L931.142 607.109L953.748 660.831L925.805 667.672Z" fill="#F7E7BA"/>
<path d="M904.273 663.624L931.25 606.777L926.021 667.456L904.273 663.624Z" fill="#DFA286"/>
<path d="M931.06 607.346L933.715 598.408M931.06 607.429L930.07 604.999L929.08 602.569" stroke="#D0977E" stroke-width="0.431552"/>
<path d="M926.668 659.58L928.57 628.517L920.096 630.573L926.668 659.58Z" fill="#B0861A"/>
<path d="M920.664 637.917L910.482 650.003L920.664 629.171V637.917Z" fill="#931F2E"/>
<path d="M919.896 630.774L928.826 628.509L931.2 606.823L919.896 630.774Z" fill="#931F2E"/>
<path d="M938.113 651.075L941.858 640.193L928.826 627.43L926.668 659.58L938.113 651.075Z" fill="#FFBF1A"/>
<path d="M941.764 640.063L943.284 635.737L931.2 607.147L928.611 628.509L941.764 640.063Z" fill="#C5283D"/>
<path d="M298.571 764.986L-11 776.513V1030H1445.5V845.856L1165.67 842.833C1170.24 837.044 1162.1 848.153 1165.67 842.833L1057 812L967.789 824.538L966.387 820.034L959.971 823.046L959.667 817.681L945.407 823.776L948.647 815.273L942.997 816.633L935.367 823.472L932.717 817.148L923.327 823.269L922.09 816.604L912.986 822.711C914.022 820.775 916.138 816.687 916.317 815.817C916.497 814.948 910.572 817.182 907.587 818.407L893.853 823.67L894.675 817.978L863.868 825.172L875.298 814.645L852.293 823.062L862.943 813.919L849.78 819.152L859.542 809.515L842.926 819.496L851.547 809.916L837.695 818.144L834.127 810.789L823.473 814.821L819.125 808.85L815.763 815.207L812.465 807.57C810.679 809.722 806.981 813.871 806.488 813.25C805.871 812.474 803.929 808.536 803.898 807.999C803.874 807.57 798.57 811.674 795.921 813.78C794.778 812.133 792.419 808.574 792.129 807.513C791.84 806.451 790.118 810.752 789.293 813.036L786.612 806.175L781.145 810.754L774.165 803.839L766.428 808.801L766.078 802.63L757.107 806.039L753.692 801.368L747.607 805.17L744.702 799.397L737.414 802.183L735.605 795.548L730.953 804.391L726.604 798.42L724.849 802.813C723.495 800.818 720.78 796.721 720.756 796.292C720.731 795.863 719.195 799.061 718.43 800.713L712.612 799.122L712.307 793.756C712.246 792.683 710.962 796.962 710.327 799.236L703.428 798.775L702.488 798.822C703.386 797.511 704.216 796.287 704.943 795.201L692.544 794.276L692.241 793.416L691.407 794.191L685.059 793.717L683.822 791.417L682.822 793.815L680.406 794.797L678.545 789.26L675.744 796.433L675.636 796.085C675.829 794.196 676.083 791.295 676.02 790.193C675.975 789.381 673.804 791.272 671.53 793.511L667.998 795.169L667.694 789.804L653.434 795.899L656.674 787.396L651.024 788.756L648.546 790.977L646.017 786.316L641.801 791.794L640.743 789.271L640.698 789.301L640.876 786.574L630.949 793.21L630.117 788.727L626.088 791.429L625.669 791.103L621.865 793.217C622.921 791.184 624.206 788.61 624.344 787.94C624.522 787.078 618.703 789.265 615.693 790.498L614.38 788.978L611.322 792.175L609.81 792.754L607.975 787.146L602.39 792.256L602.702 790.101L601.288 790.431L601.045 786.148L597.923 791.217L596.799 791.48L594.987 785.376L590.544 792.863L575.554 793.925L583.325 786.768L560.932 794.961L560.549 794.988L570.969 786.041L557.807 791.275L567.569 781.638L550.953 791.619L559.573 782.039L545.721 790.266L542.154 782.912L531.5 786.943L527.152 780.973L523.79 787.33L520.492 779.693C518.705 781.845 515.008 785.994 514.514 785.373C513.898 784.597 511.955 780.659 511.925 780.122C511.901 779.693 506.597 783.797 503.948 785.903C502.805 784.256 500.446 780.697 500.156 779.636C499.866 778.574 498.144 782.875 497.319 785.159L494.639 778.298L489.171 782.877L482.192 775.962L474.455 780.924L474.105 774.753L465.134 778.162L461.718 773.491L455.634 777.293L452.729 771.52L445.441 774.306L443.632 767.671L438.979 776.513L434.631 770.543L432.876 774.936C431.522 772.941 428.807 768.844 428.783 768.415C428.758 767.986 427.222 771.184 426.456 772.836L420.638 771.244L420.334 765.879C420.273 764.806 418.988 769.085 418.354 771.359L411.454 770.898L402.316 771.356L400.267 765.539L395.371 770.089L391.849 763.54L389.328 769.585L386.572 761.383L383.571 769.066C383.761 767.353 384.12 763.604 384.047 762.316C383.974 761.029 378.56 766.537 375.861 769.453C374.763 768.611 372.616 766.764 372.807 766.108C372.999 765.453 364.643 768.58 360.44 770.226L354.043 758.439L348.443 765.715L348.903 758.697L337.591 766.259L333.696 763.225L327.31 766.774L322.406 761.101L318.081 765.622L316.002 759.269L309.468 765.247L309.072 758.271L305.139 764.657L303.014 757.499L298.571 764.986Z" fill="#19274B"/>
<path d="M417.197 665.361C413.792 664.922 410.01 660.606 408.546 658.502C407.447 661.886 407.639 669.86 417.197 674.689C427.635 678.859 428.779 670.665 428.047 666.047C427.409 663.235 427.046 661.027 426.892 659.315C427.787 660.809 430.193 662.41 432.166 663.441C428.541 669.037 430.656 677.295 432.166 680.724V685.076H432.14V702.186C430.664 714.768 435.873 721.906 438.663 723.902C440.561 735.063 448.415 747.833 452.105 747.987C454.688 758.463 452.039 775.428 450.392 782.601L457.047 784.97C456.52 769.44 460.122 762.574 461.989 761.082V788.195H470.818C468.077 769.4 474.244 760.49 477.671 758.384C498.214 772.633 515.831 766.803 522.16 764.708C522.875 764.471 523.446 764.282 523.861 764.175C527.129 763.333 539.675 778.828 545.539 786.681L544.551 814.254H553.38L555.621 801.619L560.562 815.965H567.679L565.768 812.016C564.186 808.331 562.517 790.169 561.88 781.548C547.173 771.914 548.68 759.328 551.272 754.239C574.94 727.074 546.418 710.236 529.198 705.213C522.433 705.41 506.913 704.318 498.954 698.369C492.362 693.443 482.244 688.899 475.804 686.373C474.118 680.842 468.817 677.379 466.362 676.335C464.604 672.384 461.601 670.116 460.319 669.476C460.319 669.45 460.32 669.409 460.322 669.354C460.344 668.559 460.444 664.902 458.259 662.206C466.262 661.843 465.593 657.844 465.327 656.251C465.291 656.04 465.263 655.871 465.263 655.759C465.263 654.991 462.7 654.524 461.418 654.387C469.328 651.424 470.94 657.725 470.757 661.246C464.055 655.869 465.126 668.927 468.559 672.631C478.722 682.645 486.55 670.162 484.627 657.131C477.76 627.364 450.294 635.595 442.329 650.272C437.248 632.851 406.486 631.754 417.197 665.361Z" fill="#19274B"/>
<path d="M394.994 641.074C398.31 640.67 384.432 639.869 395.385 639.869C396.454 642.983 404.299 645.214 394.994 649.658C384.833 653.496 383.719 645.955 384.432 641.705C385.053 639.117 384.282 642.65 384.432 641.074C383.561 642.449 386.353 640.125 384.432 641.074C387.962 646.224 381.892 652.057 380.422 655.213V659.218H380.448L372.664 679.173C374.101 690.753 376.813 693.115 374.097 694.952C372.25 705.224 364.604 716.977 361.012 717.118C358.497 726.76 365.887 770.9 367.49 777.502L361.012 779.682C361.525 765.389 353.207 730.544 351.39 729.171L356.201 782.65H347.605C350.274 765.352 339.459 728.626 336.123 726.688C316.125 739.802 298.974 734.435 292.813 732.508C292.117 732.29 291.561 732.116 291.157 732.017C287.975 731.242 275.762 745.503 270.053 752.731L271.015 778.107H262.42L260.239 766.479L255.428 779.682H248.5L250.36 776.048C251.9 772.656 253.525 755.941 254.145 748.007C268.462 739.14 266.995 727.556 264.472 722.872C241.431 697.871 269.198 682.374 285.961 677.751C292.547 677.933 307.655 676.928 315.404 671.453C321.821 666.919 331.671 662.737 337.94 660.412C339.581 655.322 344.742 652.135 347.132 651.173C348.843 647.537 351.767 645.45 353.015 644.861C353.015 644.837 353.014 644.799 353.012 644.749C348.202 644.749 349.263 642.35 351.39 639.869C343.599 639.534 347.881 634.155 348.14 632.689C348.174 632.495 348.202 632.34 348.202 632.236C348.202 631.529 350.697 631.1 351.945 630.974C344.244 628.247 342.676 634.046 342.854 637.286C349.378 632.337 348.335 644.356 344.993 647.765C335.1 656.981 327.479 645.492 329.351 633.499C336.036 606.103 362.774 613.678 370.528 627.186C375.475 611.153 405.422 610.143 394.994 641.074Z" fill="#19274B"/>
<path d="M57.8846 605.168C69.1504 578.803 93.0075 506.658 98.309 429C100.076 450.572 108.117 501.085 126.142 530.566L112.888 519.78C119.736 541.951 135.42 590.068 143.372 605.168L130.118 592.584C132.769 611.759 142.975 656.58 162.59 682.466H150.662C162.149 713.026 191.086 779.538 214.943 801.11H179.821L203.015 815.491L168.555 805.604L175.844 825.378C160.386 826.166 135.583 826.572 113 825.105V865H84V821.672C76.1981 820.136 69.8293 818.116 65.8369 815.491C48.3418 803.986 21.4363 807.701 10.1705 810.997L-17 815.491L51.2576 713.924H34.6903L63.1862 647.412H46.6188L65.8369 605.168H57.8846Z" fill="#19274B"/>
</g>
<defs>
<linearGradient id="paint0_linear_234_397" x1="720" y1="0" x2="720" y2="1024" gradientUnits="userSpaceOnUse">
<stop stop-color="#D1F5E0"/>
<stop offset="0.338523" stop-color="#F5FDDC"/>
</linearGradient>
<linearGradient id="paint1_linear_234_397" x1="690.544" y1="274.335" x2="701.219" y2="577.874" gradientUnits="userSpaceOnUse">
<stop stop-color="#B5EBCD"/>
<stop offset="1" stop-color="#EAFEEE"/>
</linearGradient>
<linearGradient id="paint2_linear_234_397" x1="758.663" y1="418.677" x2="758.663" y2="472.092" gradientUnits="userSpaceOnUse">
<stop stop-color="#69DBB2"/>
<stop offset="1" stop-color="#21948B"/>
</linearGradient>
<linearGradient id="paint3_linear_234_397" x1="256.168" y1="443.403" x2="256.168" y2="521.146" gradientUnits="userSpaceOnUse">
<stop stop-color="#69DBB2"/>
<stop offset="1" stop-color="#21948B"/>
</linearGradient>
<linearGradient id="paint4_linear_234_397" x1="290.588" y1="401.926" x2="290.588" y2="511.781" gradientUnits="userSpaceOnUse">
<stop stop-color="#69DBB2"/>
<stop offset="1" stop-color="#21948B"/>
</linearGradient>
<linearGradient id="paint5_linear_234_397" x1="327.244" y1="421.283" x2="327.244" y2="509.972" gradientUnits="userSpaceOnUse">
<stop stop-color="#69DBB2"/>
<stop offset="1" stop-color="#21948B"/>
</linearGradient>
<linearGradient id="paint6_linear_234_397" x1="366.094" y1="401.926" x2="366.094" y2="490.616" gradientUnits="userSpaceOnUse">
<stop stop-color="#69DBB2"/>
<stop offset="1" stop-color="#21948B"/>
</linearGradient>
<linearGradient id="paint7_linear_234_397" x1="408.703" y1="412.296" x2="408.703" y2="500.985" gradientUnits="userSpaceOnUse">
<stop stop-color="#69DBB2"/>
<stop offset="1" stop-color="#21948B"/>
</linearGradient>
<linearGradient id="paint8_linear_234_397" x1="472.93" y1="347.687" x2="472.93" y2="465.604" gradientUnits="userSpaceOnUse">
<stop stop-color="#69DBB2"/>
<stop offset="1" stop-color="#21948B"/>
</linearGradient>
<linearGradient id="paint9_linear_234_397" x1="546.243" y1="397.938" x2="546.243" y2="515.855" gradientUnits="userSpaceOnUse">
<stop stop-color="#69DBB2"/>
<stop offset="1" stop-color="#21948B"/>
</linearGradient>
<linearGradient id="paint10_linear_234_397" x1="588.853" y1="421.07" x2="588.853" y2="538.986" gradientUnits="userSpaceOnUse">
<stop stop-color="#69DBB2"/>
<stop offset="0.590327" stop-color="#21948B"/>
</linearGradient>
<linearGradient id="paint11_linear_234_397" x1="625.509" y1="429.046" x2="625.509" y2="515.72" gradientUnits="userSpaceOnUse">
<stop stop-color="#69DBB2"/>
<stop offset="1" stop-color="#21948B"/>
</linearGradient>
<linearGradient id="paint12_linear_234_397" x1="525.252" y1="385.974" x2="525.252" y2="472.648" gradientUnits="userSpaceOnUse">
<stop stop-color="#69DBB2"/>
<stop offset="1" stop-color="#21948B"/>
</linearGradient>
<linearGradient id="paint13_linear_234_397" x1="664.045" y1="409.903" x2="664.045" y2="515.726" gradientUnits="userSpaceOnUse">
<stop stop-color="#69DBB2"/>
<stop offset="1" stop-color="#21948B"/>
</linearGradient>
<linearGradient id="paint14_linear_234_397" x1="643.68" y1="457.761" x2="643.68" y2="516.215" gradientUnits="userSpaceOnUse">
<stop stop-color="#69DBB2"/>
<stop offset="1" stop-color="#21948B"/>
</linearGradient>
<linearGradient id="paint15_linear_234_397" x1="697.255" y1="426.653" x2="697.255" y2="498.21" gradientUnits="userSpaceOnUse">
<stop stop-color="#69DBB2"/>
<stop offset="1" stop-color="#21948B"/>
</linearGradient>
<linearGradient id="paint16_linear_234_397" x1="726.079" y1="406.712" x2="726.079" y2="498.425" gradientUnits="userSpaceOnUse">
<stop stop-color="#69DBB2"/>
<stop offset="1" stop-color="#21948B"/>
</linearGradient>
<linearGradient id="paint17_linear_234_397" x1="748.95" y1="421.07" x2="748.95" y2="465.414" gradientUnits="userSpaceOnUse">
<stop stop-color="#69DBB2"/>
<stop offset="1" stop-color="#21948B"/>
</linearGradient>
<linearGradient id="paint18_linear_234_397" x1="767.749" y1="438.617" x2="767.749" y2="482.962" gradientUnits="userSpaceOnUse">
<stop stop-color="#69DBB2"/>
<stop offset="1" stop-color="#21948B"/>
</linearGradient>
<linearGradient id="paint19_linear_234_397" x1="781.22" y1="433.832" x2="781.22" y2="487.247" gradientUnits="userSpaceOnUse">
<stop stop-color="#69DBB2"/>
<stop offset="1" stop-color="#21948B"/>
</linearGradient>
<linearGradient id="paint20_linear_234_397" x1="818.504" y1="417.879" x2="818.504" y2="506.569" gradientUnits="userSpaceOnUse">
<stop stop-color="#69DBB2"/>
<stop offset="1" stop-color="#21948B"/>
</linearGradient>
<linearGradient id="paint21_linear_234_397" x1="852.967" y1="452.177" x2="852.967" y2="518.695" gradientUnits="userSpaceOnUse">
<stop stop-color="#69DBB2"/>
<stop offset="1" stop-color="#21948B"/>
</linearGradient>
<linearGradient id="paint22_linear_234_397" x1="874.585" y1="476.904" x2="874.585" y2="518.225" gradientUnits="userSpaceOnUse">
<stop stop-color="#69DBB2"/>
<stop offset="1" stop-color="#21948B"/>
</linearGradient>
<linearGradient id="paint23_linear_234_397" x1="898.396" y1="460.951" x2="898.396" y2="522.429" gradientUnits="userSpaceOnUse">
<stop stop-color="#69DBB2"/>
<stop offset="1" stop-color="#21948B"/>
</linearGradient>
<linearGradient id="paint24_linear_234_397" x1="923.147" y1="483.285" x2="923.147" y2="533.677" gradientUnits="userSpaceOnUse">
<stop stop-color="#69DBB2"/>
<stop offset="1" stop-color="#21948B"/>
</linearGradient>
<linearGradient id="paint25_linear_234_397" x1="949.778" y1="452.177" x2="949.778" y2="555.985" gradientUnits="userSpaceOnUse">
<stop stop-color="#69DBB2"/>
<stop offset="1" stop-color="#21948B"/>
</linearGradient>
<linearGradient id="paint26_linear_234_397" x1="987.374" y1="476.904" x2="987.374" y2="556.523" gradientUnits="userSpaceOnUse">
<stop stop-color="#69DBB2"/>
<stop offset="1" stop-color="#21948B"/>
</linearGradient>
<linearGradient id="paint27_linear_234_397" x1="1035" y1="443.403" x2="1035" y2="563.336" gradientUnits="userSpaceOnUse">
<stop stop-color="#69DBB2"/>
<stop offset="1" stop-color="#21948B"/>
</linearGradient>
<linearGradient id="paint28_linear_234_397" x1="1074.47" y1="479.297" x2="1074.47" y2="562.947" gradientUnits="userSpaceOnUse">
<stop stop-color="#69DBB2"/>
<stop offset="1" stop-color="#21948B"/>
</linearGradient>
<linearGradient id="paint29_linear_234_397" x1="1123.97" y1="411.498" x2="1123.97" y2="559.65" gradientUnits="userSpaceOnUse">
<stop stop-color="#69DBB2"/>
<stop offset="1" stop-color="#21948B"/>
</linearGradient>
<linearGradient id="paint30_linear_234_397" x1="1165.96" y1="448.987" x2="1165.96" y2="556.825" gradientUnits="userSpaceOnUse">
<stop stop-color="#69DBB2"/>
<stop offset="1" stop-color="#21948B"/>
</linearGradient>
<linearGradient id="paint31_linear_234_397" x1="1205.52" y1="423" x2="1205.52" y2="530.839" gradientUnits="userSpaceOnUse">
<stop stop-color="#69DBB2"/>
<stop offset="1" stop-color="#21948B"/>
</linearGradient>
<linearGradient id="paint32_linear_234_397" x1="1246.52" y1="446" x2="1246.52" y2="553.839" gradientUnits="userSpaceOnUse">
<stop stop-color="#69DBB2"/>
<stop offset="1" stop-color="#21948B"/>
</linearGradient>
<linearGradient id="paint33_linear_234_397" x1="1281.5" y1="361" x2="1281.5" y2="526" gradientUnits="userSpaceOnUse">
<stop stop-color="#69DBB2"/>
<stop offset="1" stop-color="#21948B"/>
</linearGradient>
<linearGradient id="paint34_linear_234_397" x1="1326.5" y1="425" x2="1326.5" y2="518" gradientUnits="userSpaceOnUse">
<stop stop-color="#69DBB2"/>
<stop offset="1" stop-color="#21948B"/>
</linearGradient>
<linearGradient id="paint35_linear_234_397" x1="1367.5" y1="396" x2="1367.5" y2="489" gradientUnits="userSpaceOnUse">
<stop stop-color="#69DBB2"/>
<stop offset="1" stop-color="#21948B"/>
</linearGradient>
<linearGradient id="paint36_linear_234_397" x1="46.5" y1="437" x2="46.5" y2="576" gradientUnits="userSpaceOnUse">
<stop stop-color="#69DBB2"/>
<stop offset="1" stop-color="#21948B"/>
</linearGradient>
<linearGradient id="paint37_linear_234_397" x1="97.5" y1="424" x2="97.5" y2="563" gradientUnits="userSpaceOnUse">
<stop stop-color="#69DBB2"/>
<stop offset="1" stop-color="#21948B"/>
</linearGradient>
<linearGradient id="paint38_linear_234_397" x1="140.5" y1="481" x2="140.5" y2="557" gradientUnits="userSpaceOnUse">
<stop stop-color="#69DBB2"/>
<stop offset="1" stop-color="#21948B"/>
</linearGradient>
<linearGradient id="paint39_linear_234_397" x1="162.5" y1="494" x2="162.5" y2="570" gradientUnits="userSpaceOnUse">
<stop stop-color="#69DBB2"/>
<stop offset="1" stop-color="#21948B"/>
</linearGradient>
<linearGradient id="paint40_linear_234_397" x1="225.5" y1="463" x2="225.5" y2="539" gradientUnits="userSpaceOnUse">
<stop stop-color="#69DBB2"/>
<stop offset="1" stop-color="#21948B"/>
</linearGradient>
<linearGradient id="paint41_linear_234_397" x1="194.5" y1="479" x2="194.5" y2="555" gradientUnits="userSpaceOnUse">
<stop stop-color="#69DBB2"/>
<stop offset="1" stop-color="#21948B"/>
</linearGradient>
<linearGradient id="paint42_linear_234_397" x1="512.406" y1="448.189" x2="571.38" y2="734.799" gradientUnits="userSpaceOnUse">
<stop stop-color="#D0E6AA"/>
<stop offset="1" stop-color="#7FD3A9"/>
</linearGradient>
<linearGradient id="paint43_linear_234_397" x1="1035" y1="585.383" x2="1035" y2="761.66" gradientUnits="userSpaceOnUse">
<stop stop-color="#69DBB2"/>
<stop offset="1" stop-color="#21948B"/>
</linearGradient>
<linearGradient id="paint44_linear_234_397" x1="594.805" y1="636.431" x2="780.389" y2="1033.5" gradientUnits="userSpaceOnUse">
<stop stop-color="#85D4A6"/>
<stop offset="1" stop-color="#D3D58D"/>
</linearGradient>
<linearGradient id="paint45_linear_234_397" x1="399.617" y1="630.848" x2="399.617" y2="748.765" gradientUnits="userSpaceOnUse">
<stop stop-color="#69DBB2"/>
<stop offset="1" stop-color="#21948B"/>
</linearGradient>
<linearGradient id="paint46_linear_234_397" x1="599.505" y1="539.12" x2="599.505" y2="691.303" gradientUnits="userSpaceOnUse">
<stop stop-color="#69DBB2"/>
<stop offset="1" stop-color="#21948B"/>
</linearGradient>
<linearGradient id="paint47_linear_234_397" x1="662.792" y1="534.334" x2="662.792" y2="636.125" gradientUnits="userSpaceOnUse">
<stop stop-color="#69DBB2"/>
<stop offset="1" stop-color="#21948B"/>
</linearGradient>
<linearGradient id="paint48_linear_234_397" x1="439.407" y1="460.951" x2="439.407" y2="608.096" gradientUnits="userSpaceOnUse">
<stop stop-color="#69DBB2"/>
<stop offset="1" stop-color="#21948B"/>
</linearGradient>
<clipPath id="clip0_234_397">
<rect width="1440" height="1024" fill="white"/>
</clipPath>
</defs>
</svg>
