<svg width="7689" height="4136" viewBox="0 0 7689 4136" fill="none" xmlns="http://www.w3.org/2000/svg">
<g clip-path="url(#clip0_893_2551)">
<rect width="7689" height="4136" fill="url(#paint0_linear_893_2551)"/>
<path d="M5759.7 1227.88C5295.04 1223.78 4362.59 1215.59 4350.07 1215.59V773.484C4401.38 766.661 4482.95 766.934 4558.78 947.053C4558.78 947.053 4638.43 1063.15 4758.79 954.422C4853.42 841.365 4943.69 1003.56 4958.44 1032.12C4959.9 1034.95 4961.22 1037.71 4963 1040.34C4974.24 1056.92 5025.43 1114.4 5149.24 1019.92C5219.04 966.658 5285.11 1078.2 5345.36 1137.29C5365.17 1156.73 5391.29 1167.38 5417.78 1175.7C5439.63 1182.55 5462.74 1184.03 5485.49 1181.39C5650.7 1162.16 5736.62 1203.29 5759.7 1227.88Z" fill="url(#paint1_linear_893_2551)"/>
<path d="M2940.44 1227.88C3405.1 1223.78 4337.55 1215.59 4350.07 1215.59V773.484C4298.76 766.661 4217.19 766.934 4141.36 947.053C4141.36 947.053 4061.71 1063.15 3941.36 954.422C3846.72 841.365 3756.45 1003.56 3741.7 1032.12C3740.24 1034.95 3738.92 1037.71 3737.14 1040.34C3725.9 1056.92 3674.71 1114.4 3550.9 1019.92C3481.11 966.658 3415.03 1078.2 3354.78 1137.29C3334.97 1156.73 3308.85 1167.38 3282.36 1175.7C3260.52 1182.55 3237.4 1184.03 3214.65 1181.39C3049.44 1162.16 2963.52 1203.29 2940.44 1227.88Z" fill="url(#paint2_linear_893_2551)"/>
<path d="M9098.27 684.414C8633.61 680.32 7701.16 672.133 7688.63 672.133V230.023C7739.94 223.2 7821.51 223.473 7897.34 403.592C7897.34 403.592 7976.99 519.687 8097.35 410.961C8191.98 297.904 8282.25 460.096 8297 488.66C8298.46 491.489 8299.78 494.247 8301.57 496.883C8312.8 513.464 8363.99 570.937 8487.8 476.458C8557.6 423.197 8623.67 534.736 8683.92 593.832C8703.74 613.268 8729.86 623.924 8756.34 632.235C8778.19 639.092 8801.3 640.572 8824.05 637.925C8989.26 618.698 9075.18 659.827 9098.27 684.414Z" fill="url(#paint3_linear_893_2551)"/>
<path d="M6279 684.414C6743.66 680.32 7676.11 672.133 7688.63 672.133V230.023C7637.33 223.2 7555.76 223.473 7479.93 403.592C7479.93 403.592 7400.27 519.687 7279.92 410.961C7185.28 297.904 7095.01 460.096 7080.27 488.66C7078.81 491.489 7077.48 494.247 7075.7 496.883C7064.46 513.464 7013.27 570.937 6889.46 476.458C6819.67 423.197 6753.6 534.736 6693.35 593.832C6673.53 613.268 6647.41 623.924 6620.93 632.235C6599.08 639.092 6575.96 640.572 6553.22 637.925C6388.01 618.698 6302.08 659.827 6279 684.414Z" fill="url(#paint4_linear_893_2551)"/>
<path d="M2972.75 1841.81C2669.19 1839.13 2060.02 1833.77 2051.84 1833.77L2059.92 1544.25C2093.44 1539.78 2138.65 1539.96 2188.19 1657.91C2188.19 1657.91 2240.23 1733.94 2318.85 1662.74C2379.24 1590.43 2436.9 1690.06 2448.53 1712.17C2450.01 1714.99 2451.33 1717.78 2453.22 1720.35C2462.21 1732.57 2496.11 1765.16 2573.93 1705.63C2619.54 1670.74 2662.71 1743.82 2702.08 1782.51C2715.01 1795.22 2732.07 1802.2 2749.36 1807.64C2763.64 1812.13 2778.75 1813.1 2793.62 1811.37C2901.54 1798.78 2957.67 1825.71 2972.75 1841.81Z" fill="#F5FDE6"/>
<path d="M931.098 1841.81C1233.33 1839.13 2043.7 1833.77 2051.84 1833.77L2059.92 1544.25C2026.55 1539.78 1973.49 1539.96 1924.17 1657.91C1924.17 1657.91 1872.36 1733.94 1794.08 1662.74C1749.7 1609.36 1706.8 1649.67 1682.72 1683.34C1667.78 1704.22 1656.79 1729.11 1635.01 1742.71C1611.59 1757.32 1576.25 1762.6 1540.12 1705.63C1529.08 1688.23 1322.14 1779.81 1211.7 1796.8C1190.43 1800.07 1168.94 1802.76 1148.43 1809.24C1137.55 1812.68 1125.99 1813.45 1114.68 1812.01C1003.81 1797.91 946.353 1825.45 931.098 1841.81Z" fill="#F5FDE6"/>
<path d="M2724.35 819.93C2259.69 816.669 1002.09 810.148 989.569 810.148V458.025C1040.88 452.591 1122.45 452.808 1198.28 596.266C1198.28 596.266 1277.93 688.731 1398.28 602.135C1491.41 513.525 1580.31 637.207 1597.17 662.851C1599.15 665.856 1600.96 668.871 1603.36 671.549C1616.18 685.853 1667.83 727.786 1788.74 654.301C1861.22 610.25 2179.95 707.74 2303.45 753.016C2329.76 762.664 2356.26 771.833 2383.46 778.63C2404.73 783.946 2426.8 785.099 2448.63 783.044C2614.82 767.39 2701.19 800.288 2724.35 819.93Z" fill="#F5FDE6"/>
<path d="M121.172 819.93C412.749 816.669 997.869 810.148 1005.73 810.148V458.025C973.531 452.591 922.346 452.808 874.762 596.266C874.762 596.266 824.778 688.731 749.255 602.135C690.226 512.629 633.903 639.731 624.143 663.599C623.118 666.105 622.191 668.582 620.895 670.96C613.431 684.646 581.185 728.824 504.242 654.301C459.627 611.089 417.437 704.08 379.063 750.375C368.115 763.583 352.673 771.624 336.735 777.972C322.478 783.651 306.883 784.861 291.693 782.677C189.036 767.916 135.584 800.445 121.172 819.93Z" fill="#F5FDE6"/>
<path d="M-2004.01 2466.33L-1849.7 2376.17L-1766.9 2418.25L-1642.7 2346.12H-1552.37L-1371.72 2264.97L-950.189 2457.32L-841.044 2433.27L-338.947 2687.23L-114.663 2583.54L-66.5101 2623.57L149.682 2563.48L257.778 2570.03L319.351 2494.64L416.501 2476.06L571.119 2488.08L738.675 2400.33L866.479 2290.35L939.196 2276.27L996.488 2200.61L1085.46 2245.86L1110.84 2305.59L1313.86 2418.64L1385.98 2444.24L1495.5 2428.24L1670.07 2193.38L1710.17 2175.29L1758.98 2219.83L1842.66 2171.11L1860.09 2109.86L1917.62 2048.61L1973.41 2083.41L2118.1 2061.14L2215.72 2019.37L2269.77 1983.18L2323.31 2038.84L2337.43 2085.2L2491.2 2157.88L2558.67 2230.55L2688.9 2405.22L2751.67 2368.88L2811.85 2376.57L2888.68 2418.67L2963.99 2436.71L3274.3 2635.19L3459.36 2677.96L3707.9 2545.65L3779.84 2635.19L3965.63 2815.69V4184.47H-1849.7L-2097 2639.95L-2004.01 2466.33Z" fill="#B5EBCD"/>
<path d="M3896.97 3332.23V2139.14H3908V1988.2H3926.2V1882.76H3950.46V1746.81L4004.87 1651.98H4087.78L4145.83 1753.15V1884.43H4165.54V1987.64H4183.74V3326.12L3896.97 3332.23Z" fill="url(#paint5_linear_893_2551)"/>
<path d="M4001.98 2925.97V2459.7H4021.33V2437.56H4057.66V2461.11H4079.84V2438.03H4166.19V2407.89H4197.8V2439.45H4244.52V2425.32H4256.79L4259 2417.06H4243.57V2390.47H4257.26V2380.1H4243.57V2352.79H4257.73V2342.9H4244.52V2316.05H4256.31V2303.34H4245.46V2277.9H4253.48V2261.42H4244.99V2230.33H4255.37V2215.26H4245.46V2185.59H4256.79V2173.58H4243.34V2146.97H4258.67V2130.49H4243.1V2105.29H4259.85V2091.63H4240.74V2055.84H4263.16V2015.1H4313.41V1968.94H4368.14V2014.39H4380.41V1654.8H4388.9V1679.76H4432.79V1651.98H4439.86V1678.35H4488.94V1652.45H4496.96V1679.76H4541.78V1652.45H4551.22V1677.41H4599.35V1657.16H4607.84V2928.32L4001.98 2925.97Z" fill="#388FAA"/>
<path d="M5209.66 2871.77V1741.52L5271.22 1679.84L5487.8 1651.98V1702.23H5533.4V2062.23H5600.43V2049.9H5580.82L5649.28 2031.52L5626.6 2044.64V2064.06H5675.21V2113.4H5693.45V2097.86H5740.41V2113.4H5750.9V2866.29L5209.66 2871.77Z" fill="url(#paint6_linear_893_2551)"/>
<path d="M5775.38 2930.57L5805.43 1778.2H5772.83C5769.75 1767.39 5769.04 1747.48 5731.06 1736.38L5714.76 1614.52H5690.31V1602.79H5713.74C5744.41 1563.16 5768.46 1563.24 5793.63 1556.62V1515.85H5837.52V1467.92H5840.32L5845.16 1316.73L5850.77 1468.18H5853.82V1516.11H5897.63V1555.11C5935.42 1561.34 5963.97 1577.85 5984.48 1603.3H6005.36V1618.34H5975.31L5967.41 1737.4C5933.49 1736.34 5923.99 1754.68 5920.04 1777.43H5888.2L5922.97 2932.36L5775.38 2930.57Z" fill="url(#paint7_linear_893_2551)"/>
<path d="M6078.35 2796.14V2153.35H6112.36C6112.36 2153.35 6109.21 2334.3 6112.02 2136.87C6112.02 2136.83 6112.08 2136.82 6112.11 2136.79C6112.11 2136.79 6112.18 2136.71 6112.24 2136.68C6137.81 2136.26 6179.91 2134.32 6212.2 2136.54V2154.4H6313.13V2135.49H6338.36V2153.35H6357.01V2138.64H6404.18V2153.35H6472.2V2133.39H6513.89V2152.3H6575.32V2386.52H6622.49V2399.38H6603.02V2420.65H6622.77V2429.32H6603.02V2453.74H6623.59V2466.34H6601.38V2492.07H6625.24V2500.21H6601.1V2528.31H6627.16V2543.67H6600.83V2567.96H6624.96V2578.2H6600.83V2599.73H6626.61V2611.81H6600.55V2633.34H6623.59V2643.32H6600.55V2666.16H6624.41V2679.69H6600.69V2697.94H6621.4V2711.07H6600V2730.5H6623.59V2746.78H6602.75V2767.78H6624.69V2784.59H6604.94V2801.39L6078.35 2796.14Z" fill="url(#paint8_linear_893_2551)"/>
<path d="M6591.45 2068.29H6090.18V2089.29H6591.45V2068.29Z" fill="url(#paint9_linear_893_2551)"/>
<path d="M6579.7 2068H6557.76V2173.03H6579.7V2068Z" fill="url(#paint10_linear_893_2551)"/>
<path d="M6095.96 2072.04H6074.02V2170.53H6095.96V2072.04Z" fill="url(#paint11_linear_893_2551)"/>
<path d="M6397.25 2131.56H6288.09V2158.86H6397.25V2131.56Z" fill="url(#paint12_linear_893_2551)"/>
<path d="M4676.51 2821.65V2335.82H4685.9V2343.06H4710.29V2299.5H4730.6V2315.12H4818.35V2046.81H4831.55V1991.12H4847.11V1964.01H4854.28V1940.52H4859.62V1918.55H4869.65V1940.65H4875.36V1964.27H4882.09V1991.44H5009.71V1963H5016.57V1941.54H5023.42V1918.94H5033.45V1941.67H5040.06V1963.63H5045.26V1991.57H5063.8V2046.93H5076.38V2822.67L4676.51 2821.65Z" fill="url(#paint13_linear_893_2551)"/>
<path d="M5017.28 1970.24H4884.46V1977.35H5017.28V1970.24Z" fill="url(#paint14_linear_893_2551)"/>
<path d="M4868.05 1886.6H4862.3V1927.55H4868.05V1886.6Z" fill="url(#paint15_linear_893_2551)"/>
<path d="M5032.54 1886.24H5026.8V1927.19H5032.54V1886.24Z" fill="url(#paint16_linear_893_2551)"/>
<path d="M5917.88 2818.91C5984.36 2783.7 6003.9 2569.64 6005.36 2487.49C5418.41 2701.45 4981.85 2496.15 4951.19 2474.29C4952.65 2556.44 4972.19 2788.1 5038.68 2823.31L5917.88 2818.91Z" fill="#388FAA"/>
<path d="M3214.03 2696.23C2826.17 2570.74 1608.59 2734.58 1323.5 2742.5L1132.23 3832.01L7862 3951.16L7926.62 2728.44C7926.62 2728.44 6336.3 2693.25 5739.88 2786.44C5267.68 2860.21 4517.45 2728.44 4517.45 2728.44C4517.45 2728.44 4019.47 2641.36 3684.92 2696.23C3446.97 2735.25 3344.67 2738.49 3214.03 2696.23Z" fill="url(#paint17_linear_893_2551)"/>
<path d="M2612.08 2097.4C2635.47 2095.92 2648.57 2095.18 2671.4 2097.4C2064.47 2467.15 1454.47 2750.61 981.695 3114.34L646.195 3082.34L548.5 3015C1235.25 2661.96 1992.13 2309.28 2612.08 2097.4Z" fill="#DC2733"/>
<path d="M1536.14 3026.8C1367.13 3013.02 1101.94 3026.8 1101.94 3026.8L932.297 3299.44L1620.96 3442.82H3232.54L8199 3527.64V2996.51L6651.61 3044.98C6651.61 3044.98 6309.84 3146.56 6084.12 3170.19C5875.47 3192.03 5756.4 3181.6 5546.93 3170.19C5259.46 3154.53 5101.64 3110.05 4815.86 3075.27C4478.67 3034.23 4292.47 2990.6 3951.5 2978.33C3647.46 2967.39 3477.16 3001.62 3173.98 3026.8C2876.08 3051.54 2711.26 3062.48 2412.61 3075.27C2200.65 3084.34 2080.67 3094.17 1869.36 3075.27C1738.38 3063.55 1667.2 3037.49 1536.14 3026.8Z" fill="url(#paint18_linear_893_2551)"/>
<path d="M4179.7 2768.78C4179.7 2768.78 4186.49 2733.64 4203.94 2724.35C4227.73 2711.68 4268.56 2748.58 4268.56 2748.58C4268.56 2748.58 4308.95 2704.15 4331.17 2724.35C4353.38 2744.54 4363.32 2681.08 4389.73 2669.82C4427.19 2653.85 4472.53 2704.15 4472.53 2704.15C4472.53 2704.15 4512.92 2671.84 4535.14 2704.15C4557.35 2736.47 4570.45 2668.91 4599.76 2663.76C4648.43 2655.22 4710.84 2724.35 4710.84 2724.35C4710.84 2724.35 4730.68 2691.59 4753.25 2694.06C4770.78 2695.97 4787.51 2709.26 4805.76 2724.35C4816.07 2732.88 4820.04 2739.63 4829.99 2748.58C4859.08 2774.75 4838.72 2888.1 4866.89 2914.03L4925.63 2918.52C4918.96 2903.7 4976.9 2782.98 5038 2748.58C5062.78 2734.63 5078.49 2728.18 5106.67 2724.35C5125.42 2721.8 5136.23 2723.38 5155.14 2724.35C5205.65 2726.94 5282.37 2748.58 5282.37 2748.58C5282.37 2748.58 5333.79 2716.63 5367.19 2708.19C5403.18 2699.1 5424.03 2699.85 5460.09 2704.15C5490.86 2707.83 5508.67 2711.41 5536.83 2724.35C5564.66 2737.14 5601.45 2768.78 5601.45 2768.78C5601.45 2768.78 5649.91 2702.73 5696.37 2690.02C5739.3 2678.27 5809.46 2704.15 5809.46 2704.15C5809.46 2704.15 5855.71 2642.23 5906.4 2635.49C5947.05 2630.08 6039.69 2665.78 6039.69 2665.78C6039.69 2665.78 6053.91 2609.37 6088.16 2587.02C6127.75 2561.2 6146.26 2593.8 6203.27 2587.02C6245.56 2581.99 6232.95 2522.18 6288.09 2522.4C6330.18 2522.56 6443.6 2570.86 6443.6 2570.86C6443.6 2570.86 6600.73 2390.64 6738.45 2370.93C6782.95 2364.56 6810.1 2359.42 6853.56 2370.93C6892.44 2381.23 6913.53 2393.66 6944.44 2419.4C6967.29 2438.43 6977.26 2456.34 6979.39 2472.48C7268.12 2151.07 7955.66 2392.44 7746.5 2807.15C7521.91 3252.47 6407.25 2883.89 6407.25 2883.89L5664.06 2962.65L5106.67 2932.36L4930.97 2918.93C4928.79 2920.2 4927.25 2920.33 4926.3 2919.48C4916.59 2920.5 4893.67 2922.31 4876.44 2918.93C4872.75 2918.21 4869.6 2916.52 4866.89 2914.03L4472.53 2883.89L4179.7 2807.15V2768.78Z" fill="url(#paint19_linear_893_2551)"/>
<path d="M1594.7 3213.07C1403.84 3242.25 1352.36 3334.24 1352.36 3334.24L1681.54 4474.34H8552.5L8756.47 3163.67C8756.47 3163.67 7085.6 3215.5 6790.96 3240.41C6483 3266.45 6310.3 3286.29 6001.32 3292.92C5545.11 3302.7 5289.5 3268.17 4834.03 3240.41C4168.84 3199.87 4080.47 3258.84 3414.3 3240.41C3087.91 3231.38 2904.38 3255.51 2578.21 3240.41C2276.86 3226.46 1785.56 3183.89 1594.7 3213.07Z" fill="url(#paint20_linear_893_2551)"/>
<path d="M4469.02 3227.69C3983.1 3304.12 3159.23 3424.23 2516.43 3560.7L2438.87 3607.12C2568.1 3992.41 2979.02 3969.31 3377.35 3974.44C3970.66 3704.51 4377.11 3478.75 4773.45 3241.82C4696.11 3237.02 4584.58 3224.63 4469.02 3227.69Z" fill="#37849F"/>
<path d="M464.271 2973.29L-780.688 2848.04L-1140.5 4476L4906.37 4668.51C4906.37 4668.51 4978.12 4700.18 5003.44 4659.51C5100.43 4503.71 4560.22 4186.88 4183.81 4026.22C3913.7 3910.93 3717.54 3922.51 3445.26 3812.48C3339.43 3769.71 3347.58 3890.65 3315.46 3730.35C3314 3723.05 3312.35 3711.55 3312.35 3711.55L3285.01 3720.05L3286.76 3698.41L3226.34 3714.91L3244.01 3682.68C3244.01 3682.68 3169.07 3693.81 3135.02 3667.6C3113.19 3650.8 3091.87 3642.84 3091.87 3642.84L3084.77 3616.07L3047.63 3601.58L3046.37 3574.23L3006.56 3593.62C3011.78 3586.45 3022.51 3571.27 3023.71 3567.89C3024.91 3564.5 2999.96 3570.16 2987.34 3573.41L2929.48 3586.87L2935.92 3564.55L2808.68 3576.28L2860.24 3540.49L2763.54 3561.43L2811.21 3530.74L2755.65 3544.39L2800.04 3511.24L2728.04 3541.97L2767.83 3508.42L2707.85 3533.67L2697.65 3502.27L2652.79 3512.5L2638.7 3486.21L2621.73 3509.78L2612.77 3477.4C2604.43 3485.02 2587.34 3499.57 2585.71 3496.82C2583.67 3493.37 2578.08 3476.54 2578.25 3474.37C2578.39 3472.64 2554.9 3486.13 2543.14 3493.08C2539.47 3485.86 2532 3470.32 2531.43 3465.91C2530.86 3461.5 2521.59 3477.76 2517.03 3486.44L2510.1 3457.5L2485.69 3472.8L2461.59 3441.27L2427.89 3456.84L2429.91 3431.95L2392.13 3440.63L2381.05 3420.05L2354.6 3431.89L2346.17 3407.18L2315.47 3414.3L2311.91 3386.75L2288.4 3419.55L2274.31 3393.26L2264.85 3409.86C2260.54 3401.13 2251.95 3383.24 2252.08 3381.51C2252.22 3379.78 2244.31 3391.72 2240.33 3397.91L2217.93 3388.32L2219.68 3366.68C2220.03 3362.36 2212.53 3378.77 2208.73 3387.51L2065.38 3332.6L2061.59 3332.26C2065.91 3327.52 2069.91 3323.08 2073.42 3319.14L2024.32 3308.57L2023.59 3304.96L2019.82 3307.6L1994.68 3302.19L1991.01 3292.3L1985.68 3301.35L1975.47 3303.94L1971.09 3280.75L1955.91 3307.9L1955.67 3306.45C1957.49 3299 1960.11 3287.53 1960.47 3283.09C1960.74 3279.82 1951.01 3286.18 1940.67 3293.88L1925.62 3298.56L1927.37 3276.92L1866.95 3293.42L1884.62 3261.19L1861.26 3263.5L1850.12 3271.02L1842.57 3250.97L1822.67 3270.55L1819.84 3259.87L1819.64 3259.96L1821.87 3249.15L1778.47 3270.21L1777.62 3251.81L1760.01 3260.39L1758.52 3258.86L1742.12 3265.21C1747.48 3257.66 1754.04 3248.07 1754.96 3245.47C1756.15 3242.12 1731.66 3247.65 1718.94 3250.91L1714.52 3244.1L1700.52 3255.2L1694.15 3256.68L1689.91 3233.23L1664.74 3250.58L1667.18 3242.13L1661.34 3242.67L1662.74 3225.4L1647.44 3243.95L1642.8 3244.38L1638.93 3218.96L1617.01 3246.45L1556.45 3242.4L1591.5 3218.07L1497.37 3238.46L1495.82 3238.35L1542.47 3208.33L1486.91 3221.98L1531.3 3188.83L1459.29 3219.56L1499.09 3186L1439.11 3211.25L1428.91 3179.85L1384.05 3190.08L1369.96 3163.79L1352.99 3187.36L1344.02 3154.98C1335.68 3162.6 1318.59 3177.16 1316.96 3174.4C1314.92 3170.95 1309.33 3154.12 1309.51 3151.96C1309.65 3150.23 1286.16 3163.71 1274.39 3170.67C1270.73 3163.45 1263.26 3147.9 1262.69 3143.5C1262.12 3139.09 1252.85 3155.34 1248.29 3164.02L1241.36 3135.09L1216.95 3150.38L1192.85 3118.85L1159.15 3134.42L1161.16 3109.54L1123.39 3118.21L1112.31 3097.63L1085.86 3109.48L1077.43 3084.77L1046.73 3091.88L1043.17 3064.33L1019.66 3097.14L1005.56 3070.84L996.109 3087.45C991.796 3078.72 983.204 3060.82 983.343 3059.09C983.482 3057.36 975.564 3069.3 971.588 3075.49L949.19 3065.9L950.943 3044.27C951.293 3039.94 943.784 3056.35 939.987 3065.1L912.639 3059.43L875.824 3056.21L870.847 3031.8L848.738 3047.3L838.272 3019.14L824.84 3041.93L818.353 3007.59L802.094 3036.67C803.8 3029.92 807.315 3015.12 807.735 3009.93C808.155 3004.73 783.442 3023.78 771.032 3033.95C767.105 3029.97 759.535 3021.39 760.665 3018.88C761.796 3016.36 726.632 3024.25 708.907 3028.5L689.837 2977.8L663.402 3003.82L669.129 2975.99L619.683 2999.98L605.778 2985.69L578.266 2996.35L561.786 2970.94L541.977 2986.64L537.176 2960.07L507.726 2980.37L510.003 2952.24L490.731 2975.61L486.193 2945.79L464.271 2973.29Z" fill="#19274B"/>
<path d="M6704.12 3449.36C6798.85 3428.53 6972.72 3360.5 6972.72 3360.5L7261 3397.5L7879.5 3627.08C7879.5 3627.08 6984.07 3676.71 6944.44 3627.08C6911.62 3585.96 6894.06 3540.24 6841.45 3540.24C6772.78 3540.24 6749.15 3498.75 6687.96 3477.63C6676.18 3473.56 6652.14 3478.88 6657.67 3467.53C6666.21 3450.03 6685.1 3453.54 6704.12 3449.36Z" fill="#19274B"/>
<path d="M3077.04 2974.77C2762.45 2636.62 2708.29 2461.57 2691.31 2280.05L2740.64 2160.9C2789.24 2480.92 2798.25 2601.63 3171.96 2964.67L3077.04 2974.77Z" fill="#6C383A"/>
<path d="M3388.05 2253.8C3091.18 2399.2 2802.99 2667.82 2717.56 2968.71H2799.41C2893.76 2647.3 3214.37 2387.09 3450.65 2267.93L3388.05 2253.8Z" fill="#6C383A"/>
<path d="M3739.45 2332.56C3465.18 2467.98 3268.58 2624.31 3157.82 2936.4H3239.67C3335.01 2630.12 3565.38 2490.86 3800.03 2346.7L3739.45 2332.56Z" fill="#6C383A"/>
<path d="M4074.69 2417.38C3866.53 2534.83 3663.14 2640.9 3565.77 2885.91H3631.53C3712.8 2645.51 3948.33 2567.56 4119.12 2429.5L4074.69 2417.38Z" fill="#6C383A"/>
<path d="M3361.79 2821.29C3051.95 2422.31 3090.42 2280.09 3105.31 2191.19L3147.72 2201.29C3138.67 2333.78 3111.46 2407.74 3422.38 2809.17L3361.79 2821.29Z" fill="#6C383A"/>
<path d="M4054.11 2809.17C3824.46 2515.05 3825.35 2422.33 3836.38 2356.79L3878.79 2366.89L3878.73 2367.8C3872.06 2464.81 3869.28 2505.23 4099.02 2800.24L4054.11 2809.17Z" fill="#6C383A"/>
<path d="M4286.88 2475.95C4146.74 2572.05 4019.07 2651.1 3953.52 2851.58H3997.79C4052.5 2654.87 4202.06 2599.07 4317.03 2486.1L4286.88 2475.95Z" fill="#6C383A"/>
<path d="M4325.41 2803.11C4182.48 2621.24 4156.06 2511.57 4149.41 2437.57L4183.74 2445.65C4197.59 2544.53 4236.75 2620.26 4361.46 2795.88L4325.41 2803.11Z" fill="#6C383A"/>
<path d="M4479.06 2532.49C4362.55 2619.3 4258.2 2677.15 4212.02 2823.3H4246.92C4291.59 2678.21 4417.72 2637.19 4506.87 2540.57L4479.06 2532.49Z" fill="#6C383A"/>
<path d="M4644.2 2582.98C4527.61 2669.77 4448.07 2713.54 4401.85 2859.66H4436.78C4481.49 2714.6 4579.22 2685.63 4668.43 2589.04L4644.2 2582.98Z" fill="#6C383A"/>
<path d="M4535.14 2809.17C4399.24 2632.1 4406.65 2564.65 4404.18 2512.3L4431.16 2518.76C4437.93 2580.38 4427.62 2613.22 4563.71 2803.45L4535.14 2809.17Z" fill="#6C383A"/>
<path d="M4710.53 2861.68C4574.63 2684.61 4582.04 2617.16 4579.57 2564.8L4606.55 2571.27C4613.32 2632.89 4603.01 2665.73 4739.1 2855.96L4710.53 2861.68Z" fill="#6C383A"/>
<path d="M3717.23 2799.07C3463.33 2471.71 3483.34 2350.97 3495.54 2278.03L3530.29 2286.32C3522.87 2395.02 3512.1 2459.75 3766.88 2789.13L3717.23 2799.07Z" fill="#6C383A"/>
<path d="M4773.06 3239.33L4470.52 3225.27C4526.52 3076.89 4759.49 3028.43 4780.82 2919.96C4849.89 2926.18 4890.25 2887.05 4902.69 2865.72C4904.03 3042.7 4793.65 3065.42 4773.06 3239.33Z" fill="#7D8E76" fill-opacity="0.46"/>
<path d="M4902.2 2848.07C4902.33 2844.71 4904.64 2865.37 4888.56 2920.24L4873.93 2918.77L4888.56 2861.68L4902.2 2848.07Z" fill="#6D0E0D"/>
<path d="M2723.27 2184.25L2758.14 2115.01C3117.15 2190.08 3424.16 2257.18 3686.61 2319.23C3784.18 2342.3 3875.59 2364.67 3961.23 2386.49C4027.06 2403.27 4089.48 2419.72 4148.66 2435.91C4209.41 2452.54 4266.74 2468.89 4320.84 2485.04C4365.54 2498.39 4406.09 2510.38 4443.3 2521.39L4458.4 2525.86C4488.77 2534.85 4516.88 2543.18 4543.22 2551.06C4564.62 2557.48 4586.74 2565.23 4605.82 2570.87C4632.14 2578.64 4651.7 2583.75 4670.45 2589.04C4686.13 2593.47 4699.91 2597.31 4712.86 2600.97C4727.57 2605.13 4741.21 2609.04 4755.37 2613.28L4761.33 2748.58L4728.82 2649.59C4736.92 2684.7 4735.43 2717.27 4724.97 2766.76C4716.39 2692.19 4703.8 2653.52 4670.45 2589.04C4694.43 2647.83 4694.32 2684.3 4672.47 2750.6C4665.7 2674.7 4649.9 2635.72 4605.82 2570.87C4636.32 2632.79 4630.9 2668.41 4615.92 2736.47C4605.68 2650.65 4583.86 2611.57 4543.22 2551.06C4581.21 2621.24 4573.11 2662.92 4553.31 2732.43C4537.76 2643.24 4509.04 2602.67 4458.4 2525.86C4485.17 2578.8 4498.37 2609.69 4466.47 2709.18C4432.55 2608.72 4395.57 2562.54 4320.84 2485.04C4377.2 2556.59 4388 2605.12 4362.26 2709.18C4294.73 2584.34 4250.28 2528.83 4185.96 2469.24C4228.42 2516.76 4233.19 2574.56 4200.97 2696.36C4127.85 2540.41 4071.98 2478.3 3961.23 2386.49C4040.57 2467.92 4044.93 2534.02 3989.56 2683.53C3899.05 2531.51 3829.94 2452.75 3686.61 2319.23C3766.19 2453.29 3751.72 2537.82 3677.89 2697.14C3558.35 2494.91 3485.87 2401.41 3335.71 2309.91C3325.49 2456.56 3289.09 2528.81 3211.48 2653.55C3036.77 2436.37 2934.11 2324.62 2723.27 2184.25Z" fill="url(#paint21_linear_893_2551)"/>
<g filter="url(#filter0_i_893_2551)">
<path d="M2352.75 2822.8L2004.03 3035.65C3161.02 2944.11 3655.18 2718.55 4884.68 2878.63L4894.61 2853.6C4429.71 2747.65 3763.91 2746.2 2352.75 2822.8Z" fill="url(#paint22_linear_893_2551)"/>
</g>
<path d="M2025.29 3318.42C1906.82 3332.09 1859.08 3337.59 1748.19 3324.86L1887.67 3217.94C3178.05 3112.76 4446.28 2833.4 4894.62 2910.14L4885.69 2924.5C4531.1 2885.91 4035.26 3050.72 2029.34 3317.95L2025.29 3318.42Z" fill="#7E100E"/>
<path d="M4893.65 2892.23C4451.88 2808.64 3196.83 2964.92 1994.57 3144.85L2142.77 2967.9C3636.33 2821.7 4364.13 2730.05 4899.93 2851.05C4896.3 2868.7 4908.56 2880.64 4893.65 2892.23Z" fill="#6D0E0D"/>
<path d="M4331.17 2498.16C4440.22 2673.86 4239.59 2872.78 4157.49 2958.61L4203.94 2954.57C4393.48 2770.94 4428.1 2613.27 4331.17 2498.16Z" fill="#7E100E"/>
<path d="M3961.59 2962.42C4177.16 2796.53 4283.42 2545.9 4160.64 2444.67C4156.61 2441.63 4152.51 2438.59 4148.36 2435.55C4152.68 2438.44 4156.78 2441.48 4160.64 2444.67C4388.97 2616.77 4428.13 2803.22 4315.58 2923.68C4363.35 2830.7 4393.76 2696.4 4235.22 2536.28C4256.94 2668 4186.63 2816.11 4009.37 2972.75L3961.59 2962.42Z" fill="#7E100E"/>
<path d="M4329.15 2496.14C4424.56 2628.11 4317.87 2828.8 4131.23 2963.2L4175.43 2972.75C4339.39 2827.88 4404.43 2690.91 4384.34 2569.1C4508.52 2719.51 4453.73 2852.39 4409.93 2934.38C4500.36 2830.11 4534.82 2668.8 4329.15 2496.14Z" fill="#7E100E"/>
<g filter="url(#filter1_d_893_2551)">
<path d="M3292.12 3051.04C3275.34 2697.63 2953.59 2356.42 2692.75 2238.11L2731.99 2158.61C3157.31 2421.18 3337.88 2708.01 3361.86 3040.78L3292.12 3051.04Z" fill="#7E100E"/>
</g>
<path d="M3963.41 2388.62C4055.13 2492.83 3992.08 2727.04 3680.07 3004.09L3771.61 2991.27C3987.12 2762.36 4052.43 2616.4 4041.87 2496.33C4150.04 2592 4223.23 2712.63 4183.54 2929.72H4216.23C4245.29 2752.58 4233.99 2581.02 3963.41 2388.62Z" fill="#7E100E"/>
<path d="M3993.92 2955.36C3989.84 2740.35 3944.87 2595.74 3743.28 2406.57L3688.79 2319.38C3941.28 2505.82 4049.25 2683.7 4035.33 2947.67L3993.92 2955.36Z" fill="#7E100E"/>
<g filter="url(#filter2_d_893_2551)">
<path d="M2699.29 3127.97C2625.15 2899.52 2553.21 2810.33 2446.47 2707.4L2490.06 2617.65C2670.14 2835.16 2693.61 2869.64 2764.68 3122.84L2699.29 3127.97Z" fill="#7E100E"/>
</g>
<path d="M951.33 3157.23L875 3051.5C1589.31 2761.44 2616.58 2116.02 2623.01 2100.68C2629.44 2085.33 2758.14 2115.01 2758.14 2115.01C2716.65 2542.75 2197.86 3007.45 1764.29 3326.48C1390.33 3282.05 1219.62 3242.21 951.33 3157.23Z" fill="#7E100E"/>
<path d="M3666.99 2314.25C3797.74 2483.39 3579.38 2800.02 3240.62 3061.61L3394.55 3039.27C3682.76 2765.1 3836.36 2496.97 3688.79 2319.38L3666.99 2314.25Z" fill="#7E100E"/>
<path d="M3274.68 2225.28C3427.25 2435.57 3046.5 2866.55 2604.47 3144.41L2790.26 3122.2C3272.32 2773.87 3428.75 2421.83 3313.91 2232.98L3274.68 2225.28Z" fill="#7E100E"/>
<path d="M3717.12 2992.05C3697.19 2785.75 3548.26 2397.67 3074.17 2181.69C3453.65 2271.68 3771.37 2623.75 3778.15 2984.36L3717.12 2992.05Z" fill="#7E100E"/>
<path d="M4512.93 2914.18C4546.62 2856.63 4574.21 2679.99 4468.5 2546.63C4571.59 2628.67 4594.48 2815.4 4541.2 2914.18L4512.93 2914.18Z" fill="#7E100E"/>
<path d="M4559.37 2570.86L4547.26 2556.73L4555.34 2570.86H4559.37Z" fill="#7E100E"/>
<path d="M4691.37 2898.27C4714.04 2855.82 4739.11 2710.21 4672.47 2595.1C4737.09 2690.02 4741.11 2822.76 4710.4 2898.27L4691.37 2898.27Z" fill="#7E100E"/>
<path d="M4729.87 2898.27C4752.54 2855.82 4779.5 2716.27 4712.86 2601.16C4777.48 2696.08 4779.6 2822.76 4748.9 2898.27L4729.87 2898.27Z" fill="#7E100E"/>
<path d="M4713.41 2602.18C4753.33 2693.47 4706.39 2826.33 4618.16 2905.1L4645.81 2911.73C4727.11 2834.65 4763.8 2690.27 4712.86 2601.16L4713.41 2602.18Z" fill="#7E100E"/>
<path d="M4743.15 2609.24C4780.98 2714.83 4762.06 2832.95 4669.92 2905.1L4697.57 2911.73C4778.91 2850.64 4793.92 2717.57 4749.21 2611.26L4743.15 2609.24Z" fill="#7E100E"/>
<path d="M4729.12 2905.86C4798.7 2818.08 4794.58 2737.22 4771.39 2666.91C4766.84 2659.66 4761.93 2652.8 4756.77 2646.37L4764.01 2646.37C4766.62 2653.11 4769.1 2659.96 4771.39 2666.91C4808.14 2725.48 4821.36 2810.17 4750.09 2913.52L4729.12 2905.86Z" fill="#7E100E"/>
<path d="M4466.47 2542.59C4521.37 2673.21 4415.53 2838.75 4269.21 2947.99L4337.86 2926.84C4470.63 2805.14 4541.82 2617.88 4458.4 2526.43L4466.47 2542.59Z" fill="#7E100E"/>
<path d="M4549.28 2562.79C4604.75 2676.29 4503.97 2831.44 4373.54 2948.31L4437.39 2924.94C4555.75 2807.34 4619.96 2655.74 4543.22 2550.67L4549.28 2562.79Z" fill="#7E100E"/>
<path d="M4580.59 2901.77C4608.68 2849.19 4635.38 2680.6 4547.26 2558.75C4627.65 2630.85 4642.2 2808.24 4604.16 2901.77L4580.59 2901.77Z" fill="#7E100E"/>
<path d="M4609.86 2578.94C4648.27 2690.67 4579.71 2820.87 4480.25 2920.24L4514.5 2928.45C4606.69 2832.33 4661.03 2715.83 4615.92 2585L4609.86 2578.94Z" fill="#7E100E"/>
<path d="M4641.12 2904.32C4667.11 2855.65 4687.38 2685.65 4605.82 2572.88C4680.22 2639.62 4698.14 2817.76 4662.93 2904.32L4641.12 2904.32Z" fill="#7E100E"/>
<path d="M4670.45 2589.04C4716.9 2690.02 4649.43 2823.82 4555.33 2912.16L4579.95 2918.9C4667.42 2825.78 4726.03 2691.22 4672.47 2593.08L4670.45 2589.04Z" fill="#7E100E"/>
<path d="M4321.07 2920.24C4338.17 2875.8 4348.61 2843.02 4353.38 2801.09L4375.6 2766.76C4378.66 2779.07 4377.42 2869.08 4365.5 2916.2L4321.07 2920.24Z" fill="#7E100E"/>
<path d="M4430.12 2913.15C4442.93 2879.51 4449.24 2860.82 4452.81 2829.09L4478.59 2788.97C4480.89 2798.29 4467.32 2882.56 4458.4 2918.22L4430.12 2913.15Z" fill="#7E100E"/>
<path d="M4321.07 2486.04L4337.23 2508.26L4359.44 2524.41C4341.98 2506.53 4327.35 2491.32 4321.07 2486.04Z" fill="#7E100E"/>
<path d="M4500.81 2578.94L4472.54 2544.61L4474.55 2558.75L4500.81 2578.94Z" fill="#7E100E"/>
<path d="M4886.54 2926.3C4820.13 2898.38 4768.09 2762.55 4749.21 2611.25L4767.39 2617.31C4844.03 2803.59 4883.85 2808.65 4924.91 2857.64C4926.69 2886.07 4904.35 2916.74 4886.54 2926.3Z" fill="#7E100E"/>
<path d="M4197.45 3781.34L4371.13 3797.5L5617.18 3882.32L5778.75 3894.44C5778.75 3894.44 5842.86 3898.21 5831.25 3914.63C5824.49 3924.21 5805 3924.73 5805 3924.73C5805 3924.73 5684.67 3934.41 5625.26 3938.87C5525.38 3946.36 5470.96 3946.95 5370.8 3946.95C5258.02 3946.95 5194.73 3950.49 5082.01 3946.95C4969.06 3943.4 4905.74 3939.19 4793.22 3928.77C4704.67 3920.57 4654.92 3917.91 4567.03 3902.52C4469.36 3885.41 4412.2 3877.66 4318.63 3843.95C4281.41 3830.54 4223.71 3809.62 4223.71 3809.62C4223.71 3809.62 4174.35 3785.74 4185.34 3781.34C4189.73 3779.59 4197.45 3781.34 4197.45 3781.34Z" fill="#1D657F"/>
<mask id="mask0_893_2551" style="mask-type:alpha" maskUnits="userSpaceOnUse" x="4066" y="3372" width="1887" height="580">
<rect x="4087.65" y="3372.62" width="1866.05" height="500.844" transform="rotate(2.4076 4087.65 3372.62)" fill="#D9D9D9"/>
</mask>
<g mask="url(#mask0_893_2551)">
<path d="M5855.91 3828.52C5579.03 3922.6 5228.54 3934.54 5088.79 3924.03L5849.93 3816.69L5855.91 3828.52Z" fill="#F8D496"/>
<path d="M5835.15 3787.5C5180.17 3973.39 4533.57 3896.92 4160.9 3687.24C4342.68 3830.71 4935.18 4057.86 5850.92 3818.66L5835.15 3787.5Z" fill="#795D47"/>
<path d="M4159.51 3685.47C4359.35 3843.41 5087.24 4010.03 5838.1 3784.52C5509.17 3733.37 4711.57 3648.58 4159.51 3685.47Z" fill="url(#paint23_linear_893_2551)"/>
<path d="M5479.49 3810.09C5433.83 3871.61 4656.4 3826.99 4452.42 3760.45C4409.96 3743.13 4463.5 3726.54 4495.58 3720.41C4851.61 3670.37 5481.91 3734.58 5479.49 3810.09Z" fill="#71503F"/>
<path d="M5023.94 3730.01C5125.17 3748.01 5286.44 3794.52 4929.72 3814.07C4694.51 3819.19 4607.46 3655.96 5023.94 3730.01Z" fill="#583C30"/>
<path d="M5500.92 3741.96C5575.76 3775.25 5629.62 3819.16 5458.4 3866.29C5776.93 3828.95 5609.29 3747.74 5500.92 3741.96Z" fill="url(#paint24_linear_893_2551)"/>
</g>
</g>
<defs>
<filter id="filter0_i_893_2551" x="2004.03" y="2753.05" width="2890.58" height="282.598" filterUnits="userSpaceOnUse" color-interpolation-filters="sRGB">
<feFlood flood-opacity="0" result="BackgroundImageFix"/>
<feBlend mode="normal" in="SourceGraphic" in2="BackgroundImageFix" result="shape"/>
<feColorMatrix in="SourceAlpha" type="matrix" values="0 0 0 0 0 0 0 0 0 0 0 0 0 0 0 0 0 0 127 0" result="hardAlpha"/>
<feOffset dy="-44.4297"/>
<feGaussianBlur stdDeviation="8.07812"/>
<feComposite in2="hardAlpha" operator="arithmetic" k2="-1" k3="1"/>
<feColorMatrix type="matrix" values="0 0 0 0 0 0 0 0 0 0 0 0 0 0 0 0 0 0 0.25 0"/>
<feBlend mode="normal" in2="shape" result="effect1_innerShadow_893_2551"/>
</filter>
<filter id="filter1_d_893_2551" x="2656.4" y="2126.3" width="705.459" height="924.74" filterUnits="userSpaceOnUse" color-interpolation-filters="sRGB">
<feFlood flood-opacity="0" result="BackgroundImageFix"/>
<feColorMatrix in="SourceAlpha" type="matrix" values="0 0 0 0 0 0 0 0 0 0 0 0 0 0 0 0 0 0 127 0" result="hardAlpha"/>
<feOffset dx="-20.1953" dy="-16.1562"/>
<feGaussianBlur stdDeviation="8.07812"/>
<feComposite in2="hardAlpha" operator="out"/>
<feColorMatrix type="matrix" values="0 0 0 0 0 0 0 0 0 0 0 0 0 0 0 0 0 0 0.25 0"/>
<feBlend mode="normal" in2="BackgroundImageFix" result="effect1_dropShadow_893_2551"/>
<feBlend mode="normal" in="SourceGraphic" in2="effect1_dropShadow_893_2551" result="shape"/>
</filter>
<filter id="filter2_d_893_2551" x="2410.12" y="2585.33" width="354.559" height="542.637" filterUnits="userSpaceOnUse" color-interpolation-filters="sRGB">
<feFlood flood-opacity="0" result="BackgroundImageFix"/>
<feColorMatrix in="SourceAlpha" type="matrix" values="0 0 0 0 0 0 0 0 0 0 0 0 0 0 0 0 0 0 127 0" result="hardAlpha"/>
<feOffset dx="-20.1953" dy="-16.1562"/>
<feGaussianBlur stdDeviation="8.07812"/>
<feComposite in2="hardAlpha" operator="out"/>
<feColorMatrix type="matrix" values="0 0 0 0 0 0 0 0 0 0 0 0 0 0 0 0 0 0 0.25 0"/>
<feBlend mode="normal" in2="BackgroundImageFix" result="effect1_dropShadow_893_2551"/>
<feBlend mode="normal" in="SourceGraphic" in2="effect1_dropShadow_893_2551" result="shape"/>
</filter>
<linearGradient id="paint0_linear_893_2551" x1="3844.5" y1="0" x2="3844.5" y2="4136" gradientUnits="userSpaceOnUse">
<stop stop-color="#86C1DA"/>
<stop offset="0.466667" stop-color="#D2F6E0"/>
</linearGradient>
<linearGradient id="paint1_linear_893_2551" x1="4350.07" y1="771.461" x2="4350.07" y2="1227.88" gradientUnits="userSpaceOnUse">
<stop stop-color="#F5FDE6"/>
<stop offset="0.576042" stop-color="#F5FDE6" stop-opacity="0.7"/>
<stop offset="1" stop-color="#F5FDE6" stop-opacity="0"/>
</linearGradient>
<linearGradient id="paint2_linear_893_2551" x1="4350.07" y1="771.461" x2="4350.07" y2="1227.88" gradientUnits="userSpaceOnUse">
<stop stop-color="#F5FDE6"/>
<stop offset="0.576042" stop-color="#F5FDE6" stop-opacity="0.7"/>
<stop offset="1" stop-color="#F5FDE6" stop-opacity="0"/>
</linearGradient>
<linearGradient id="paint3_linear_893_2551" x1="7688.63" y1="228" x2="7688.63" y2="684.414" gradientUnits="userSpaceOnUse">
<stop stop-color="#F5FDE6"/>
<stop offset="0.576042" stop-color="#F5FDE6" stop-opacity="0.7"/>
<stop offset="1" stop-color="#F5FDE6" stop-opacity="0"/>
</linearGradient>
<linearGradient id="paint4_linear_893_2551" x1="7688.63" y1="228" x2="7688.63" y2="684.414" gradientUnits="userSpaceOnUse">
<stop stop-color="#F5FDE6"/>
<stop offset="0.576042" stop-color="#F5FDE6" stop-opacity="0.7"/>
<stop offset="1" stop-color="#F5FDE6" stop-opacity="0"/>
</linearGradient>
<linearGradient id="paint5_linear_893_2551" x1="4040.36" y1="1651.98" x2="4040.36" y2="3332.23" gradientUnits="userSpaceOnUse">
<stop stop-color="#388FAA"/>
<stop offset="1" stop-color="#388FAA" stop-opacity="0"/>
</linearGradient>
<linearGradient id="paint6_linear_893_2551" x1="5480.28" y1="1651.98" x2="5480.28" y2="2871.77" gradientUnits="userSpaceOnUse">
<stop stop-color="#388FAA"/>
<stop offset="1" stop-color="#388FAA" stop-opacity="0"/>
</linearGradient>
<linearGradient id="paint7_linear_893_2551" x1="5847.84" y1="1971.06" x2="5847.84" y2="2932.36" gradientUnits="userSpaceOnUse">
<stop stop-color="#20738D"/>
<stop offset="1" stop-color="#20738D" stop-opacity="0"/>
</linearGradient>
<linearGradient id="paint8_linear_893_2551" x1="6350.59" y1="2068" x2="6350.59" y2="2801.39" gradientUnits="userSpaceOnUse">
<stop stop-color="#388FAA"/>
<stop offset="1" stop-color="#388FAA" stop-opacity="0"/>
</linearGradient>
<linearGradient id="paint9_linear_893_2551" x1="6350.59" y1="2068" x2="6350.59" y2="2801.39" gradientUnits="userSpaceOnUse">
<stop stop-color="#388FAA"/>
<stop offset="1" stop-color="#388FAA" stop-opacity="0"/>
</linearGradient>
<linearGradient id="paint10_linear_893_2551" x1="6350.59" y1="2068" x2="6350.59" y2="2801.39" gradientUnits="userSpaceOnUse">
<stop stop-color="#388FAA"/>
<stop offset="1" stop-color="#388FAA" stop-opacity="0"/>
</linearGradient>
<linearGradient id="paint11_linear_893_2551" x1="6350.59" y1="2068" x2="6350.59" y2="2801.39" gradientUnits="userSpaceOnUse">
<stop stop-color="#388FAA"/>
<stop offset="1" stop-color="#388FAA" stop-opacity="0"/>
</linearGradient>
<linearGradient id="paint12_linear_893_2551" x1="6350.59" y1="2068" x2="6350.59" y2="2801.39" gradientUnits="userSpaceOnUse">
<stop stop-color="#388FAA"/>
<stop offset="1" stop-color="#388FAA" stop-opacity="0"/>
</linearGradient>
<linearGradient id="paint13_linear_893_2551" x1="4876.44" y1="1886.24" x2="4876.44" y2="2942.46" gradientUnits="userSpaceOnUse">
<stop offset="0.292834" stop-color="#388FAA"/>
<stop offset="1" stop-color="#388FAA" stop-opacity="0"/>
</linearGradient>
<linearGradient id="paint14_linear_893_2551" x1="4876.44" y1="1886.24" x2="4876.44" y2="2942.46" gradientUnits="userSpaceOnUse">
<stop offset="0.292834" stop-color="#388FAA"/>
<stop offset="1" stop-color="#388FAA" stop-opacity="0"/>
</linearGradient>
<linearGradient id="paint15_linear_893_2551" x1="4876.44" y1="1886.24" x2="4876.44" y2="2942.46" gradientUnits="userSpaceOnUse">
<stop offset="0.292834" stop-color="#388FAA"/>
<stop offset="1" stop-color="#388FAA" stop-opacity="0"/>
</linearGradient>
<linearGradient id="paint16_linear_893_2551" x1="4876.44" y1="1886.24" x2="4876.44" y2="2942.46" gradientUnits="userSpaceOnUse">
<stop offset="0.292834" stop-color="#388FAA"/>
<stop offset="1" stop-color="#388FAA" stop-opacity="0"/>
</linearGradient>
<linearGradient id="paint17_linear_893_2551" x1="3042.71" y1="3267.13" x2="3264.04" y2="2147.74" gradientUnits="userSpaceOnUse">
<stop stop-color="#D3D58D"/>
<stop offset="1" stop-color="#85D4A6"/>
</linearGradient>
<linearGradient id="paint18_linear_893_2551" x1="4066.61" y1="2798.59" x2="4026.22" y2="3446.86" gradientUnits="userSpaceOnUse">
<stop stop-color="#D9D9D9" stop-opacity="0"/>
<stop offset="1" stop-color="#D9D9D9"/>
</linearGradient>
<linearGradient id="paint19_linear_893_2551" x1="5609.53" y1="2488.06" x2="5643.86" y2="3047.47" gradientUnits="userSpaceOnUse">
<stop stop-color="#8FC9A1"/>
<stop offset="0.659375" stop-color="#80D4AA"/>
<stop offset="0.846875" stop-color="#80D4AA" stop-opacity="0"/>
</linearGradient>
<linearGradient id="paint20_linear_893_2551" x1="4555.34" y1="3081.8" x2="4733.05" y2="4321.8" gradientUnits="userSpaceOnUse">
<stop stop-color="#5BC0E4"/>
<stop offset="1" stop-color="#1C647E"/>
</linearGradient>
<linearGradient id="paint21_linear_893_2551" x1="3860.97" y1="2115.01" x2="3863.99" y2="2709.96" gradientUnits="userSpaceOnUse">
<stop stop-color="#8BD4DE"/>
<stop offset="1" stop-color="#CFE7E4" stop-opacity="0.65"/>
</linearGradient>
<linearGradient id="paint22_linear_893_2551" x1="3407.63" y1="2456.09" x2="3544.07" y2="2799.02" gradientUnits="userSpaceOnUse">
<stop stop-color="#E1E1E1"/>
<stop offset="1" stop-color="#8D8D8D"/>
</linearGradient>
<linearGradient id="paint23_linear_893_2551" x1="4912.49" y1="3723.58" x2="4882.64" y2="3956.68" gradientUnits="userSpaceOnUse">
<stop offset="0.447917" stop-color="#FDE7A4"/>
<stop offset="0.448017" stop-color="#F7D79D"/>
</linearGradient>
<linearGradient id="paint24_linear_893_2551" x1="5504.1" y1="3740.35" x2="5557.3" y2="3845.45" gradientUnits="userSpaceOnUse">
<stop stop-color="#FF4760"/>
<stop offset="1" stop-color="#992232"/>
</linearGradient>
<clipPath id="clip0_893_2551">
<rect width="7689" height="4136" fill="white"/>
</clipPath>
</defs>
</svg>
